<?xml version="1.0" encoding="utf-8"?>
<!-- Generator: Adobe Illustrator 24.0.2, SVG Export Plug-In . SVG Version: 6.00 Build 0)  -->
<svg version="1.1" id="OBJECTS" xmlns="http://www.w3.org/2000/svg" xmlns:xlink="http://www.w3.org/1999/xlink" x="0px" y="0px"
	 viewBox="0 0 1977.52 374.59" style="enable-background:new 0 0 1977.52 374.59;" xml:space="preserve">
<style type="text/css">
	.st0{fill:#FFFFFF;}
	.st1{fill:#A1262A;}
</style>
<g>
	<g>
		<g>
			<g>
				<path class="st0" d="M1672.12,291.76l5.55-56.71l-66.21-9.61l-4.98,50.89c-0.61,6.26-6.12,11.03-12.81,11.1l-5.46,0.05
					c-2.58,0.03-5.07,0.4-7.43,1.07c5.05,7.28,7.65,16.33,6.72,25.84c-0.81,8.29-4.18,15.7-9.25,21.55c3.04,1.26,6.37,2.04,9.9,2.16
					l40.96,1.42c1.93,0.07,3.84,0,5.72-0.18c-0.94-4.03-1.26-8.27-0.84-12.62C1635.93,306.84,1652.58,291.95,1672.12,291.76z"/>
				<path class="st1" d="M1586.17,340.17c-2.99-0.29-5.93-1.03-8.76-2.2l-2.81-1.16l1.99-2.3c4.97-5.74,7.98-12.77,8.72-20.33
					c0.84-8.61-1.41-17.27-6.34-24.37l-1.75-2.53l2.96-0.84c2.61-0.74,5.3-1.12,8.01-1.15l5.46-0.05
					c5.57-0.05,10.15-3.97,10.65-9.11l5.21-53.18l70.56,10.24l-5.95,60.76l-1.97,0.02c-18.68,0.18-34.15,14.36-35.97,32.98
					c-0.39,3.99-0.12,7.99,0.79,11.9l0.57,2.45l-2.5,0.24c-2,0.19-4.02,0.26-6,0.19l-40.96-1.42
					C1587.43,340.27,1586.8,340.23,1586.17,340.17z M1581.9,334.89c2.07,0.6,4.19,0.94,6.33,1.01l40.96,1.42
					c0.99,0.03,1.99,0.03,2.99-0.01c-0.6-3.57-0.73-7.19-0.38-10.81c1.98-20.2,18.29-35.73,38.33-36.88l5.16-52.71l-61.86-8.98
					l-4.76,48.6c-0.72,7.38-7.16,13-14.98,13.08l-5.46,0.05c-1.32,0.01-2.63,0.12-3.92,0.33c4.31,7.4,6.21,16.02,5.37,24.59
					C1588.96,322.01,1586.28,328.96,1581.9,334.89z"/>
			</g>
			<g>
				<path class="st0" d="M1670.81,305.09l1.31-13.33c-19.54,0.19-36.19,15.08-38.14,34.97c-0.43,4.35-0.11,8.59,0.84,12.62
					C1653.75,337.51,1669.02,323.4,1670.81,305.09z"/>
				<path class="st1" d="M1633.11,341.71l-0.44-1.87c-1.03-4.38-1.32-8.86-0.89-13.33c2.04-20.86,19.37-36.74,40.3-36.95l2.45-0.02
					L1673,305.3c-1.86,19.04-17.83,34.28-37.97,36.22L1633.11,341.71z M1669.68,294.06c-17.57,1.34-31.78,15.08-33.52,32.88
					c-0.33,3.34-0.19,6.69,0.39,9.98c17.12-2.5,30.47-15.7,32.07-32.04L1669.68,294.06z"/>
			</g>
			<g>
				<path class="st0" d="M1580.77,288.54c-9.92,2.8-17.43,10.88-18.7,21c-1.43,11.49,5.56,22,16.17,26.39
					c5.06-5.85,8.44-13.26,9.25-21.55C1588.43,304.87,1585.83,295.83,1580.77,288.54z"/>
				<path class="st1" d="M1578.87,338.57l-1.46-0.61c-11.81-4.88-19.01-16.68-17.51-28.7c1.34-10.77,9.3-19.74,20.28-22.84
					l1.51-0.43l0.89,1.29c5.52,7.96,8.05,17.66,7.1,27.31c-0.83,8.47-4.21,16.34-9.77,22.77L1578.87,338.57z M1579.85,291.14
					c-8.48,2.98-14.53,10.16-15.6,18.68c-1.21,9.71,4.12,18.94,13.36,23.43c4.35-5.5,7-12.06,7.69-19.08
					C1586.1,306.09,1584.17,297.98,1579.85,291.14z"/>
			</g>
		</g>
		<g>
			<path class="st0" d="M1683.41,236.63l-77.79-7.62c-2.36-0.23-4.08-2.33-3.85-4.69l2.4-24.48c0.23-2.36,2.33-4.08,4.69-3.85
				l77.79,7.62c2.36,0.23,4.08,2.33,3.85,4.69l-2.4,24.48C1687.87,235.14,1685.77,236.86,1683.41,236.63z"/>
			<path class="st1" d="M1682.78,238.77l-76.95-7.54c-3.79-0.37-6.57-3.76-6.2-7.55l2.32-23.64c0.37-3.79,3.76-6.57,7.55-6.2
				l76.95,7.54c3.79,0.37,6.57,3.76,6.2,7.55l-2.32,23.64C1689.95,236.36,1686.57,239.14,1682.78,238.77z M1609.06,198.22
				c-1.38-0.14-2.61,0.88-2.75,2.26l-2.32,23.64c-0.14,1.38,0.88,2.61,2.26,2.75l76.95,7.54c1.38,0.14,2.61-0.88,2.75-2.26
				l2.32-23.64c0.14-1.38-0.88-2.61-2.26-2.75L1609.06,198.22z"/>
		</g>
	</g>
	<g>
		<g>
			<path class="st1" d="M1644.65,198.33l3.07-3.43c3.23-3.62,19.79-21.43,28.22-17.01c2.86,1.5,4.11,4.38,3.25,7.51
				c-2.47,9.06-17.17,13.81-29.94,13.16L1644.65,198.33z M1673.13,181.57c-3.09-0.3-10.36,4.1-18.72,12.6
				c12.7-0.67,19.59-6.5,20.53-9.93c0.32-1.17,0.01-1.91-1.05-2.46C1673.68,181.67,1673.42,181.6,1673.13,181.57z"/>
		</g>
		<g>
			<path class="st1" d="M1648.03,198.66l-4.55-0.66c-12.66-1.84-26.15-9.35-26.82-18.72c-0.23-3.24,1.55-5.82,4.65-6.74
				c9.11-2.7,21.91,17.99,24.38,22.16L1648.03,198.66z M1623.34,176.69c-0.29-0.03-0.55-0.01-0.78,0.06c-1.14,0.34-1.59,1-1.51,2.21
				c0.25,3.55,5.88,10.61,18.21,13.73C1632.71,182.72,1626.43,177,1623.34,176.69z"/>
		</g>
		<g>
			<path class="st1" d="M1647.97,196.26c-0.1,1.04-0.7,1.83-1.34,1.77c-0.64-0.06-1.07-0.95-0.97-1.99c0.1-1.04,0.7-1.83,1.34-1.77
				C1647.64,194.33,1648.07,195.22,1647.97,196.26z"/>
		</g>
	</g>
</g>
<g>
	<g>
		<g>
			<path class="st1" d="M1777.44,161.67l2.11-3.7c2.22-3.9,13.75-23.24,22.22-20.88c2.88,0.8,4.57,3.16,4.4,6.16
				c-0.48,8.68-12.85,15.83-24.53,17.74L1777.44,161.67z M1799.95,140.96c-2.85,0.33-8.58,5.72-14.48,15.05
				c11.36-3.08,16.46-9.69,16.64-12.98c0.06-1.12-0.37-1.73-1.43-2.02C1800.46,140.94,1800.22,140.93,1799.95,140.96z"/>
		</g>
		<g>
			<path class="st1" d="M1780.56,161.31l-4.24,0.29c-11.81,0.8-25.48-3.37-27.91-11.72c-0.84-2.89,0.27-5.57,2.89-7
				c7.72-4.22,23.32,12.01,26.37,15.31L1780.56,161.31z M1753.95,146.24c-0.27,0.03-0.5,0.1-0.7,0.21
				c-0.97,0.53-1.25,1.21-0.93,2.29c0.92,3.17,7.38,8.45,19.15,8.87C1763.6,149.88,1756.8,145.91,1753.95,146.24z"/>
		</g>
		<g>
			<path class="st1" d="M1780.04,159.15c0.11,0.96-0.28,1.79-0.86,1.86c-0.59,0.07-1.15-0.65-1.26-1.61
				c-0.11-0.96,0.28-1.79,0.86-1.86C1779.36,157.47,1779.93,158.19,1780.04,159.15z"/>
		</g>
	</g>
	<g>
		<g>
			<path class="st0" d="M1852.52,275.68l-121.37,13.93c-2.15,0.25-4.09-1.3-4.34-3.45l-10.09-87.9l129.15-14.82l10.09,87.9
				C1856.21,273.5,1854.67,275.44,1852.52,275.68z"/>
			<path class="st1" d="M1852.69,277.71l-121.24,13.91c-3.3,0.38-6.28-2-6.66-5.29l-10.31-89.86l133.19-15.29l10.31,89.86
				C1858.36,274.34,1855.98,277.33,1852.69,277.71z M1718.98,200.05l9.85,85.82c0.12,1.07,1.09,1.84,2.16,1.71l121.24-13.91
				c1.07-0.12,1.84-1.09,1.71-2.16l-9.85-85.82L1718.98,200.05z"/>
		</g>
		<g>
			<path class="st0" d="M1850.5,193.81l-135.58,15.56c-2.89,0.33-5.51-1.74-5.84-4.64l-3.21-28c-0.33-2.89,1.74-5.51,4.64-5.84
				l135.58-15.56c2.89-0.33,5.51,1.74,5.84,4.64l3.21,28.01C1855.47,190.87,1853.39,193.48,1850.5,193.81z"/>
			<path class="st1" d="M1850.64,195.84l-135.4,15.54c-4.05,0.46-7.72-2.45-8.19-6.5l-3.19-27.83c-0.46-4.05,2.45-7.72,6.5-8.19
				l135.4-15.54c4.05-0.46,7.72,2.45,8.19,6.5l3.19,27.83C1857.61,191.71,1854.69,195.38,1850.64,195.84z M1710.82,172.9
				c-1.82,0.21-3.13,1.86-2.92,3.68l3.19,27.83c0.21,1.82,1.86,3.13,3.68,2.92l135.4-15.54c1.82-0.21,3.13-1.86,2.92-3.68
				l-3.19-27.83c-0.21-1.82-1.86-3.13-3.68-2.92L1710.82,172.9z"/>
		</g>
		<g>
			
				<rect x="1765.79" y="162.99" transform="matrix(0.9935 -0.114 0.114 0.9935 -13.7952 204.8229)" class="st0" width="35.82" height="120.05"/>
			<path class="st1" d="M1810.59,282.39l-39.62,4.55l-14.15-123.31l39.62-4.55L1810.59,282.39z M1774.54,282.44l31.54-3.62
				l-13.22-115.23l-31.54,3.62L1774.54,282.44z"/>
		</g>
	</g>
</g>
<g>
	<g>
		<g>
			<path class="st1" d="M404.76,166.13l2.72-3.71c2.87-3.91,17.63-23.25,26.42-19.68c2.99,1.21,4.51,3.96,3.97,7.16
				c-1.58,9.26-15.74,15.41-28.52,16.02L404.76,166.13z M431.48,146.67c-3.1,0-9.91,5.09-17.4,14.37
				c12.58-1.9,18.86-8.37,19.46-11.89c0.2-1.2-0.18-1.9-1.29-2.35C432.03,146.72,431.77,146.67,431.48,146.67z"/>
		</g>
		<g>
			<path class="st1" d="M408.16,166.13l-4.59-0.22c-12.78-0.6-26.94-6.76-28.52-16.02c-0.55-3.2,0.97-5.94,3.97-7.16
				c8.81-3.57,23.56,15.77,26.42,19.68L408.16,166.13z M381.44,146.67c-0.29,0-0.55,0.04-0.77,0.14c-1.11,0.45-1.49,1.15-1.29,2.35
				c0.6,3.51,6.89,9.98,19.46,11.89C391.35,151.76,384.54,146.67,381.44,146.67z"/>
		</g>
		<g>
			<path class="st1" d="M407.86,163.74c0,1.04-0.52,1.89-1.16,1.89c-0.64,0-1.16-0.85-1.16-1.89s0.52-1.89,1.16-1.89
				C407.34,161.86,407.86,162.7,407.86,163.74z"/>
		</g>
	</g>
	<g>
		<g>
			<rect x="396.51" y="305.45" class="st0" width="21.58" height="29.72"/>
			<path class="st1" d="M420.29,337.37h-25.97v-34.12h25.97V337.37z M398.71,332.97h17.19v-25.33h-17.19V332.97z"/>
		</g>
		<g>
			<path class="st0" d="M446.46,269.76h7.89c1.74,0,2.81-1.91,1.9-3.39l-22.71-37.18c-0.91-1.49,0.16-3.39,1.9-3.39h6.15
				c1.77,0,2.83-1.95,1.87-3.44l-34.75-53.91c-0.88-1.37-2.89-1.36-3.76,0.02l-33.9,53.91c-0.93,1.49,0.13,3.42,1.89,3.42h6.2
				c1.74,0,2.81,1.91,1.9,3.39l-22.71,37.18c-0.91,1.49,0.16,3.39,1.9,3.39h7.89c1.73,0,2.8,1.89,1.91,3.37l-21.77,36.43
				c-0.89,1.49,0.18,3.37,1.91,3.37h57.05h0.11h57.05c1.73,0,2.8-1.89,1.91-3.37l-21.77-36.43
				C443.66,271.65,444.73,269.76,446.46,269.76z"/>
			<path class="st1" d="M464.4,315.14H350.2c-1.61,0-3.05-0.84-3.85-2.24c-0.8-1.4-0.78-3.07,0.05-4.46l21.77-36.43l-7.92-0.05
				c-1.6,0-3.08-0.87-3.86-2.26c-0.78-1.39-0.75-3.11,0.08-4.47l22.71-37.18l-6.23-0.05c-1.61,0-3.1-0.88-3.87-2.29
				c-0.78-1.41-0.73-3.13,0.13-4.5l33.9-53.91c0.81-1.29,2.2-2.06,3.72-2.07c0.01,0,0.02,0,0.02,0c1.51,0,2.9,0.76,3.72,2.03
				l34.75,53.91c0.88,1.36,0.94,3.09,0.17,4.52c-0.78,1.42-2.27,2.31-3.89,2.31h-6.15l22.68,37.24c0.83,1.36,0.87,3.08,0.08,4.47
				c-0.78,1.39-2.26,2.26-3.86,2.26h-7.89c-0.01,0-0.02,0-0.02,0l21.76,36.48c0.83,1.38,0.85,3.05,0.05,4.45
				C467.46,314.3,466.02,315.14,464.4,315.14z M406.88,169.63l-33.96,53.91l6.23,0.05c1.6,0,3.08,0.87,3.86,2.26
				c0.78,1.39,0.75,3.11-0.08,4.47l-22.71,37.19l7.92,0.05c1.61,0,3.05,0.84,3.85,2.24c0.8,1.4,0.78,3.07-0.05,4.46l-21.77,36.43
				l57.08,0.05h57.15l-21.74-36.48c-0.83-1.39-0.85-3.05-0.05-4.46c0.8-1.4,2.24-2.24,3.85-2.24h7.89l-22.68-37.24
				c-0.83-1.36-0.86-3.08-0.08-4.47c0.78-1.39,2.26-2.26,3.86-2.26h6.15L406.88,169.63z"/>
		</g>
		<g>
			<path class="st0" d="M361.05,290.04c0,0,58.98-2.63,81.62-43.97"/>
			<path class="st1" d="M361.15,292.23l-0.2-4.39c0.58-0.03,58.02-3.08,79.8-42.83l3.85,2.11c-9.53,17.4-27.01,30.72-50.54,38.52
				C376.4,291.49,361.76,292.2,361.15,292.23z"/>
		</g>
		<g>
			<path class="st0" d="M388.43,194.72c0,0,11.06,34.76,46.6,37.92"/>
			<path class="st1" d="M434.84,234.82c-36.58-3.25-48.39-39.08-48.5-39.44l4.19-1.33l-2.09,0.67l2.09-0.67
				c0.11,0.33,11.08,33.41,44.71,36.4L434.84,234.82z"/>
		</g>
	</g>
</g>
<g>
	<g>
		<g>
			<path class="st1" d="M1935.45,172.38l3.49-2.99c3.68-3.16,22.46-18.62,30.21-13.14c2.64,1.86,3.49,4.88,2.23,7.87
				c-3.65,8.66-18.84,11.42-31.42,9.1L1935.45,172.38z M1965.9,159.53c-3.02-0.71-10.81,2.7-20.22,10.02
				c12.68,1.01,20.27-3.85,21.66-7.14c0.47-1.12,0.26-1.89-0.72-2.58C1966.42,159.7,1966.18,159.59,1965.9,159.53z"/>
		</g>
		<g>
			<path class="st1" d="M1938.76,173.15l-4.42-1.26c-12.3-3.5-24.69-12.72-24.12-22.09c0.2-3.24,2.3-5.57,5.49-6.06
				c9.39-1.48,19.34,20.72,21.24,25.19L1938.76,173.15z M1917.18,148.12c-0.28-0.07-0.55-0.08-0.78-0.04
				c-1.18,0.18-1.71,0.78-1.79,1.99c-0.22,3.56,4.43,11.29,16.24,16.01C1925.67,155.34,1920.2,148.83,1917.18,148.12z"/>
		</g>
		<g>
			<path class="st1" d="M1939.01,170.77c-0.24,1.01-0.93,1.72-1.56,1.57s-0.93-1.09-0.7-2.1c0.24-1.01,0.93-1.72,1.56-1.57
				C1938.94,168.81,1939.25,169.75,1939.01,170.77z"/>
		</g>
	</g>
	<g>
		<g>
			<path class="st0" d="M1926.78,366.44c0.15,0.03,0.3,0.06,0.45,0.09c8.68,1.61,17.06-4.06,19.07-12.66l3.67-15.67
				c-13.56,5.05-26.06,7.43-35.88,8.51C1912.2,355.63,1917.79,364.61,1926.78,366.44z"/>
			<path class="st1" d="M1925.81,368.47c-4.59-1.07-8.54-3.84-11.16-7.84c-2.76-4.21-3.75-9.45-2.71-14.38l0.33-1.56l1.58-0.17
				c12.08-1.33,23.98-4.15,35.35-8.39l3.84-1.43l-4.6,19.66c-2.3,9.84-11.79,16.13-21.61,14.32l-0.49-0.1c0,0,0,0,0,0l0,0
				C1926.16,368.55,1925.98,368.51,1925.81,368.47z M1915.99,348.7c-0.35,3.34,0.46,6.67,2.33,9.52c2.08,3.16,5.23,5.31,8.9,6.06
				l0.41,0.08c7.5,1.39,14.76-3.44,16.53-11l2.75-11.74C1936.89,345.05,1926.51,347.43,1915.99,348.7z"/>
		</g>
		<g>
			<path class="st0" d="M1957.78,181.9c-6-4.56-13.98-7.95-24.6-9.17c-31.03-3.56-50.84,14.54-58.75,32.47
				C1882.81,205.64,1920.41,206.05,1957.78,181.9z"/>
			<path class="st1" d="M1871.13,207.23l1.28-2.91c8.27-18.76,28.64-37.49,61.01-33.77c10.2,1.17,18.84,4.4,25.68,9.61l2.49,1.89
				l-2.63,1.7c-38.25,24.72-77.23,24.04-84.66,23.65L1871.13,207.23z M1939.81,176.09c-2.2-0.51-4.49-0.91-6.88-1.18
				c-28.28-3.25-46.65,11.93-55.06,28.2c11.61,0.13,43.71-1.54,75.94-21.3C1949.74,179.23,1945.06,177.32,1939.81,176.09z"/>
		</g>
		<g>
			<path class="st0" d="M1921.33,316.58c-2.84,11.83-5.38,22.33-7.15,29.62c-0.04,0.17-0.06,0.34-0.1,0.51
				c9.82-1.08,22.32-3.47,35.88-8.51l7.84-33.48C1944.69,310.97,1932.09,314.55,1921.33,316.58z"/>
			<path class="st1" d="M1911.31,349.23l0.64-3.09c0.03-0.15,0.05-0.31,0.09-0.46c1.77-7.28,4.31-17.77,7.15-29.61l0.33-1.38
				l1.4-0.26c12.52-2.36,24.61-6.29,35.93-11.68l4.13-1.97l-9.15,39.08l-1.1,0.41c-11.71,4.36-23.96,7.27-36.41,8.64L1911.31,349.23
				z M1923.14,318.47c-2.39,9.96-4.56,18.91-6.2,25.69c10.63-1.4,21.09-3.95,31.16-7.61l6.55-27.96
				C1944.6,312.99,1934.03,316.31,1923.14,318.47z"/>
		</g>
		<g>
			<path class="st0" d="M1973.51,237.59c0.37-1.58,0.67-3.18,0.93-4.78c-12.88,9.72-26.05,16.26-38.3,20.65
				c-2.19,9.69-4.77,20.79-7.42,32.04c11.52-3.11,24.34-8.04,37.27-15.82L1973.51,237.59z"/>
			<path class="st1" d="M1925.74,288.59l0.84-3.58c2.9-12.3,5.39-23.07,7.41-32.02l0.27-1.18l1.14-0.41
				c13.62-4.88,26.31-11.72,37.72-20.34l4.37-3.3l-0.88,5.4c-0.31,1.88-0.61,3.44-0.96,4.92l-7.73,33.01l-0.8,0.48
				c-11.69,7.03-24.42,12.43-37.83,16.05L1925.74,288.59z M1938.02,255.12c-1.77,7.82-3.88,16.97-6.3,27.26
				c11.41-3.39,22.28-8.12,32.35-14.09l7.12-30.41C1960.96,244.99,1949.84,250.78,1938.02,255.12z"/>
		</g>
		<g>
			<path class="st0" d="M1971.12,199.72c-2.64-6.49-6.81-12.85-13.34-17.82c-37.37,24.15-74.97,23.74-83.35,23.3
				c-1.01,2.3-1.83,4.6-2.45,6.85c-3.25,11.79,6.49,23.06,18.63,21.63c0.1-0.01,0.2-0.02,0.29-0.03c6.6-0.79,11.93-5.79,13.15-12.32
				l0.03-0.13c2.94-15.73,30.76-19.25,36.32-1.8C1950.6,214.51,1961.03,208.11,1971.12,199.72z"/>
			<path class="st1" d="M1884.13,235.48c-3.96-0.93-7.58-3.08-10.3-6.26c-4.2-4.9-5.69-11.54-3.97-17.76
				c0.66-2.38,1.52-4.79,2.56-7.15l0.61-1.39l1.51,0.08c7.19,0.38,44.93,1.04,82.05-22.95l1.29-0.84l1.23,0.93
				c6.18,4.7,10.9,11,14.05,18.74l0.61,1.49l-1.24,1.03c-9.48,7.88-19.97,14.59-31.18,19.95l-2.27,1.09l-0.77-2.4
				c-2.55-8-10.17-10.44-16.44-10.05c-6.56,0.41-14.26,4.21-15.63,11.59l-0.03,0.15c-1.41,7.51-7.46,13.18-15.05,14.09l-0.3,0.04
				C1888.57,236.13,1886.3,235.99,1884.13,235.48z M1875.85,207.46c-0.7,1.72-1.29,3.46-1.76,5.17c-1.35,4.89-0.23,9.89,3.07,13.73
				c3.31,3.86,8.12,5.73,13.19,5.13l0.29-0.03c5.68-0.68,10.2-4.92,11.26-10.55l0.03-0.14c1.55-8.29,9.64-14.53,19.68-15.15
				c9.01-0.56,16.59,3.6,19.97,10.75c9.6-4.78,18.63-10.59,26.89-17.3c-2.61-5.83-6.24-10.69-10.82-14.47
				C1921.97,207.1,1885.99,207.78,1875.85,207.46z"/>
		</g>
		<g>
			<path class="st0" d="M1966,269.69c-12.93,7.77-25.76,12.71-37.27,15.82c-2.49,10.58-5.04,21.28-7.39,31.07
				c10.76-2.03,23.36-5.61,36.47-11.86L1966,269.69z"/>
			<path class="st1" d="M1918.4,319.37l0.79-3.3c2.35-9.79,4.9-20.48,7.39-31.06l0.3-1.28l1.27-0.34
				c13.02-3.52,25.37-8.76,36.71-15.58l4.46-2.68l-9.62,41.12l-0.95,0.45c-11.66,5.56-24.11,9.61-37,12.04L1918.4,319.37z
				 M1930.56,287.28c-2.11,8.98-4.27,18.01-6.29,26.47c10.98-2.33,21.6-5.88,31.63-10.57l6.8-29.05
				C1952.62,279.72,1941.84,284.13,1930.56,287.28z"/>
		</g>
		<g>
			<path class="st0" d="M1974.44,232.81c1.18-7.28,1.22-14.71-0.12-21.98c-0.66-3.58-1.68-7.37-3.2-11.11
				c-10.09,8.39-20.52,14.79-30.72,19.66c1.12,3.51,1.36,7.85,0.29,13.13c-1.1,5.43-2.68,12.68-4.55,20.96
				C1948.39,249.07,1961.56,242.53,1974.44,232.81z"/>
			<path class="st1" d="M1933.12,256.88l0.88-3.9c1.99-8.83,3.52-15.86,4.54-20.91c0.93-4.59,0.85-8.63-0.23-12.02l-0.58-1.82
				l1.73-0.83c10.89-5.2,21.07-11.72,30.27-19.37l2.31-1.92l1.13,2.78c1.46,3.59,2.58,7.47,3.33,11.54
				c1.34,7.3,1.39,14.95,0.12,22.73l-0.14,0.87l-0.7,0.53c-11.76,8.88-24.85,15.94-38.88,20.97L1933.12,256.88z M1942.99,220.56
				c0.82,3.68,0.77,7.83-0.15,12.38c-0.87,4.3-2.1,10.02-3.67,17.04c11.91-4.65,23.07-10.82,33.23-18.39
				c1.04-6.98,0.96-13.82-0.24-20.36c-0.5-2.73-1.18-5.37-2.03-7.87C1961.77,210.03,1952.66,215.8,1942.99,220.56z"/>
		</g>
	</g>
</g>
<g>
	<g>
		<g>
			<g>
				
					<ellipse transform="matrix(0.2962 -0.9551 0.9551 0.2962 -177.4093 244.4704)" class="st0" cx="77.19" cy="242.62" rx="68.4" ry="68.4"/>
				<path class="st1" d="M82.53,313.01c-38.81,2.95-72.79-26.23-75.74-65.04c-2.95-38.81,26.23-72.79,65.04-75.74
					c38.81-2.95,72.79,26.23,75.74,65.04C150.53,276.09,121.35,310.06,82.53,313.01z M72.17,176.61c-36.4,2.76-63.76,34.63-61,71.02
					c2.76,36.4,34.63,63.76,71.02,61c36.4-2.76,63.76-34.63,61-71.02C140.43,201.21,108.57,173.85,72.17,176.61z"/>
			</g>
			<g>
				<path class="st0" d="M76.84,147.78c0.32,4.17-2.81,7.81-6.98,8.12c-4.17,0.32-7.81-2.81-8.12-6.98
					c-0.32-4.17,2.81-7.81,6.98-8.12C72.89,140.49,76.53,143.61,76.84,147.78z"/>
				<path class="st1" d="M70.04,158.09c-5.37,0.41-10.07-3.63-10.48-9c-0.41-5.37,3.63-10.07,9-10.48c5.37-0.41,10.07,3.63,10.48,9
					C79.44,152.98,75.41,157.68,70.04,158.09z M68.89,142.99c-2.96,0.22-5.18,2.81-4.95,5.77c0.22,2.95,2.81,5.18,5.77,4.95
					c2.95-0.22,5.17-2.81,4.95-5.76C74.43,144.99,71.84,142.77,68.89,142.99z"/>
			</g>
			<g>
				<path class="st0" d="M88.1,174.06l-33.97,2.58c-1.51,0.12-2.83-1.02-2.95-2.53l-0.94-12.34c-0.12-1.51,1.02-2.83,2.53-2.95
					l33.97-2.58c1.51-0.11,2.83,1.02,2.95,2.53l0.94,12.34C90.75,172.63,89.62,173.95,88.1,174.06z"/>
				<path class="st1" d="M88,176.27l-33.43,2.54c-2.87,0.22-5.38-1.94-5.6-4.81l-0.9-11.8c-0.22-2.87,1.94-5.38,4.81-5.6l33.43-2.54
					c2.87-0.22,5.38,1.94,5.6,4.81l0.9,11.8C93.02,173.54,90.87,176.05,88,176.27z M53.22,160.99c-0.45,0.03-0.79,0.43-0.76,0.88
					l0.9,11.8c0.03,0.45,0.43,0.79,0.88,0.76l33.43-2.54c0.45-0.03,0.79-0.43,0.76-0.88l-0.9-11.8c-0.03-0.45-0.43-0.79-0.88-0.76
					L53.22,160.99z"/>
			</g>
		</g>
		<g>
			<g>
				<path class="st1" d="M67.46,141.14l2.43-3.9c2.56-4.12,15.8-24.52,24.86-21.63c3.08,0.98,4.8,3.6,4.5,6.84
					c-0.87,9.35-14.53,16.56-27.22,18.13L67.46,141.14z M92.63,119.72c-3.1,0.24-9.5,5.82-16.26,15.64
					c12.4-2.85,18.18-9.78,18.51-13.33c0.11-1.21-0.32-1.88-1.46-2.24C93.18,119.73,92.92,119.7,92.63,119.72z"/>
			</g>
			<g>
				<path class="st1" d="M70.85,140.89l-4.6,0.13c-12.78,0.37-27.37-4.7-29.65-13.81c-0.79-3.15,0.52-6,3.41-7.44
					c8.51-4.23,24.68,13.94,27.84,17.62L70.85,140.89z M42.74,123.51c-0.29,0.02-0.55,0.09-0.76,0.19c-1.07,0.53-1.4,1.26-1.1,2.44
					c0.86,3.46,7.62,9.43,20.31,10.38C53.01,127.84,45.83,123.28,42.74,123.51z"/>
			</g>
			<g>
				<path class="st1" d="M70.37,138.53c0.08,1.04-0.37,1.92-1.01,1.97s-1.22-0.75-1.3-1.79c-0.08-1.04,0.37-1.92,1.01-1.97
					C69.71,136.69,70.3,137.49,70.37,138.53z"/>
			</g>
		</g>
	</g>
	<rect x="65.95" class="st1" width="6.95" height="138.71"/>
</g>
<g>
	<g>
		<g>
			<g>
				<path class="st1" d="M276.52,107.91l3.16-3.34c3.33-3.53,20.37-20.89,28.66-16.26c2.82,1.57,3.99,4.48,3.05,7.59
					c-2.71,8.99-17.53,13.35-30.28,12.36L276.52,107.91z M305.44,91.91c-3.08-0.38-10.47,3.82-19.05,12.1
					c12.72-0.33,19.76-5.98,20.79-9.39c0.35-1.16,0.06-1.91-0.99-2.49C305.98,92.03,305.73,91.95,305.44,91.91z"/>
			</g>
			<g>
				<path class="st1" d="M279.89,108.33l-4.53-0.78c-12.6-2.18-25.89-10.04-26.31-19.42c-0.15-3.24,1.7-5.78,4.82-6.61
					c9.19-2.45,21.43,18.56,23.79,22.8L279.89,108.33z M255.79,85.72c-0.29-0.04-0.55-0.02-0.79,0.04
					c-1.15,0.31-1.62,0.96-1.57,2.17c0.16,3.56,5.6,10.76,17.84,14.2C265,92,258.87,86.11,255.79,85.72z"/>
			</g>
			<g>
				<path class="st1" d="M279.89,105.93c-0.13,1.03-0.75,1.81-1.38,1.73c-0.63-0.08-1.04-0.98-0.91-2.02
					c0.13-1.03,0.75-1.81,1.38-1.73C279.61,103.99,280.02,104.9,279.89,105.93z"/>
			</g>
		</g>
		<g>
			<g>
				<path class="st0" d="M306.95,205.27c0,0,10.96-22.93,3.34-50.38c-7.62-27.45-3.36-37.96,18.93-39.6l0.99-13.86
					c0,0-136.18,5.84-134.62,93.64L306.95,205.27z"/>
				<path class="st1" d="M193.43,197.08l-0.03-1.97c-0.66-36.92,22.91-65.22,68.16-81.85c33.78-12.41,68.21-14.01,68.56-14.03
					l2.46-0.11l-1.3,18.22l-1.89,0.14c-9.25,0.68-14.9,2.9-17.77,6.98c-3.71,5.27-3.46,14.47,0.8,29.84
					c7.75,27.92-3.01,50.95-3.47,51.91l-0.66,1.38L193.43,197.08z M327.84,103.78c-8.39,0.61-36.87,3.34-64.85,13.64
					c-43.07,15.85-65,41.29-65.21,75.65l107.78,9.88c2.12-5.28,8.87-24.92,2.61-47.46c-4.71-16.98-4.76-27.01-0.16-33.54
					c3.47-4.93,9.58-7.7,19.15-8.67L327.84,103.78z"/>
			</g>
			<g>
				<path class="st0" d="M309.18,251.19L184.94,235.7c-2.57-0.32-4.39-2.66-4.07-5.23l4.26-34.19c0.32-2.57,2.66-4.39,5.23-4.07
					L314.6,207.7c2.57,0.32,4.39,2.66,4.07,5.23l-4.26,34.19C314.09,249.69,311.75,251.51,309.18,251.19z"/>
				<path class="st1" d="M308.45,253.32l-123.32-15.38c-4.02-0.5-6.88-4.18-6.38-8.2l4.15-33.28c0.5-4.02,4.18-6.88,8.2-6.38
					l123.32,15.38c4.02,0.5,6.88,4.18,6.38,8.2l-4.15,33.28C316.14,250.96,312.47,253.82,308.45,253.32z M190.55,194.44
					c-1.61-0.2-3.09,0.95-3.29,2.56l-4.15,33.28c-0.2,1.61,0.95,3.09,2.56,3.29l123.32,15.38c1.61,0.2,3.09-0.95,3.29-2.56
					l4.15-33.28c0.2-1.61-0.95-3.09-2.56-3.29L190.55,194.44z"/>
			</g>
			<g>
				
					<ellipse transform="matrix(0.8097 -0.5868 0.5868 0.8097 3.5342 219.008)" class="st0" cx="339.45" cy="104.05" rx="16.8" ry="16.8"/>
				<path class="st1" d="M337.1,122.91c-10.4-1.3-17.8-10.81-16.5-21.21c1.3-10.4,10.81-17.8,21.21-16.5
					c10.4,1.3,17.8,10.81,16.5,21.21C357.01,116.8,347.5,124.21,337.1,122.91z M341.26,89.56c-7.99-1-15.31,4.7-16.3,12.69
					c-1,7.99,4.69,15.31,12.69,16.3c7.99,1,15.31-4.69,16.3-12.69C354.94,97.87,349.25,90.56,341.26,89.56z"/>
			</g>
		</g>
	</g>
	<rect x="275.19" class="st1" width="6.95" height="106.93"/>
</g>
<rect x="403.36" class="st1" width="6.95" height="166.1"/>
<rect x="1774.25" class="st1" width="6.95" height="160.62"/>
<rect x="1644.15" class="st1" width="6.95" height="196.78"/>
<rect x="1934.53" class="st1" width="6.95" height="173.77"/>
<g>
	<path class="st1" d="M38.12,252.3c1.45-0.23,2.51-1.42,2.64-2.82l7.8-1.22l-4.73,6.48l1.24,0.9l5.63-7.72l4.06-0.63l-4.73,6.48
		l1.24,0.9l5.63-7.72l4.06-0.63l-4.73,6.48l1.24,0.9l5.63-7.72l1.72-0.27c0.56,2.81,2.06,5.23,4.11,6.97l-0.97,1.32l-9.44,1.47
		l0.24,1.52l7.92-1.24l-2.43,3.32l-9.44,1.47l0.24,1.52l7.92-1.24l-2.43,3.32l-9.44,1.47l0.24,1.52l7.92-1.24l-4.65,6.38
		c-1.3-0.53-2.85-0.13-3.71,1.06c-1.02,1.4-0.72,3.37,0.69,4.39c1.4,1.02,3.37,0.72,4.39-0.69c0.87-1.19,0.78-2.78-0.12-3.86
		l4.65-6.38l1.24,7.92l1.52-0.24l-1.47-9.44l2.43-3.32l1.24,7.92l1.52-0.24L65.51,260l2.43-3.32l1.24,7.92l1.52-0.24l-1.47-9.44
		l0.95-1.3c2.27,1.5,5.04,2.26,7.92,2l0.24,1.55l-5.63,7.72l1.24,0.9l4.73-6.48l0.63,4.06l-5.63,7.72l1.24,0.9l4.73-6.48l0.63,4.07
		l-5.63,7.72l1.24,0.9l4.73-6.48l1.22,7.8c-1.29,0.55-2.1,1.92-1.88,3.37c0.27,1.71,1.87,2.89,3.59,2.62
		c1.71-0.27,2.89-1.87,2.62-3.59c-0.23-1.45-1.42-2.51-2.82-2.64l-1.22-7.8l6.48,4.73l0.9-1.24l-7.72-5.63l-0.63-4.06l6.48,4.73
		l0.9-1.24l-7.72-5.63l-0.63-4.07l6.48,4.73l0.9-1.24l-7.72-5.63l-0.24-1.54c2.82-0.61,5.23-2.16,6.95-4.26l1.32,0.97l1.47,9.44
		l1.52-0.24l-1.24-7.92l3.32,2.43l1.47,9.44l1.52-0.24l-1.24-7.92l3.32,2.43l1.47,9.44l1.52-0.24l-1.24-7.92l6.38,4.65
		c-0.53,1.3-0.13,2.85,1.06,3.71c1.4,1.02,3.37,0.72,4.39-0.69c1.02-1.4,0.72-3.37-0.69-4.39c-1.19-0.87-2.78-0.78-3.86,0.12
		l-6.38-4.65l7.92-1.24l-0.24-1.52l-9.44,1.47l-3.32-2.43l7.92-1.24l-0.24-1.52l-9.44,1.47l-3.32-2.43l7.92-1.24l-0.24-1.52
		l-9.44,1.47l-1.33-0.97c1.45-2.29,2.16-5.07,1.84-7.94l1.72-0.26l7.7,5.65l0.91-1.24l-6.46-4.75l4.07-0.62l7.7,5.65l0.91-1.24
		l-6.46-4.75l4.07-0.62l7.7,5.65l0.91-1.24l-6.46-4.75l7.8-1.19c0.55,1.3,1.91,2.11,3.37,1.89c1.72-0.26,2.89-1.87,2.63-3.58
		c-0.26-1.72-1.87-2.89-3.58-2.63c-1.45,0.22-2.52,1.41-2.65,2.81l-7.8,1.19l4.75-6.46l-1.24-0.91l-5.65,7.7l-4.07,0.62l4.75-6.46
		l-1.24-0.91l-5.65,7.7l-4.07,0.62l4.75-6.46l-1.24-0.91l-5.65,7.7l-1.75,0.27c-0.65-2.74-2.18-5.09-4.25-6.76l1.11-1.51l9.44-1.45
		l-0.23-1.52l-7.92,1.21l2.44-3.32l9.44-1.45l-0.23-1.52l-7.92,1.21l2.44-3.32l9.44-1.45l-0.23-1.52l-7.92,1.21l4.67-6.36
		c1.3,0.53,2.85,0.14,3.72-1.05c1.03-1.4,0.73-3.36-0.67-4.39c-1.4-1.03-3.36-0.73-4.39,0.67c-0.87,1.18-0.78,2.78,0.11,3.86
		l-4.67,6.36l-1.21-7.92l-1.52,0.23l1.45,9.44l-2.44,3.32l-1.21-7.92l-1.52,0.23l1.45,9.44l-2.44,3.32l-1.21-7.92l-1.52,0.23
		l1.45,9.44l-1.13,1.53c-2.23-1.39-4.92-2.09-7.7-1.83l-0.29-1.91l5.65-7.7l-1.24-0.91l-4.75,6.46l-0.62-4.07l5.65-7.7L79,214.21
		l-4.75,6.46l-0.62-4.07l5.65-7.7L78.05,208l-4.75,6.46l-1.19-7.8c1.3-0.55,2.11-1.91,1.89-3.37c-0.26-1.72-1.87-2.89-3.58-2.63
		c-1.72,0.26-2.89,1.87-2.63,3.58c0.22,1.45,1.41,2.52,2.81,2.65l1.19,7.8l-6.46-4.75l-0.91,1.24l7.7,5.65l0.62,4.07l-6.46-4.75
		l-0.91,1.24l7.7,5.65l0.62,4.07l-6.46-4.75l-0.91,1.24l7.7,5.65l0.29,1.92c-2.74,0.6-5.08,2.09-6.79,4.11l-1.51-1.11l-1.45-9.44
		l-1.52,0.23l1.21,7.92l-3.32-2.44l-1.45-9.44l-1.52,0.23l1.21,7.92l-3.32-2.44l-1.45-9.44l-1.52,0.23l1.21,7.92l-6.36-4.67
		c0.53-1.3,0.14-2.85-1.05-3.72c-1.4-1.03-3.36-0.73-4.39,0.67c-1.03,1.4-0.73,3.36,0.67,4.39c1.18,0.87,2.77,0.78,3.86-0.11
		l6.36,4.67l-7.92,1.21l0.23,1.52l9.44-1.45l3.32,2.44l-7.92,1.21l0.23,1.52l9.44-1.45l3.32,2.44l-7.92,1.21l0.23,1.52l9.44-1.45
		l1.51,1.11c-1.44,2.21-2.19,4.89-1.98,7.68l-1.75,0.27l-7.72-5.63l-0.9,1.24l6.48,4.73l-4.07,0.63l-7.72-5.63l-0.9,1.24l6.48,4.73
		l-4.06,0.63l-7.72-5.63l-0.9,1.24l6.48,4.73l-7.8,1.22c-0.55-1.29-1.92-2.1-3.37-1.88c-1.71,0.27-2.89,1.87-2.62,3.59
		C34.79,251.39,36.4,252.56,38.12,252.3z M65.92,245.55l6.07-0.95c0.23,0.86,0.66,1.61,1.24,2.22l-3.64,4.98
		C67.77,250.23,66.43,248.07,65.92,245.55z M70.81,252.73l3.62-4.96c0.76,0.43,1.62,0.67,2.53,0.67l0.95,6.09
		C75.34,254.75,72.86,254.07,70.81,252.73z M79.43,254.3l-0.95-6.08c0.86-0.26,1.62-0.74,2.22-1.36l4.97,3.63
		C84.12,252.36,81.96,253.74,79.43,254.3z M86.56,249.24l-4.98-3.63c0.39-0.78,0.6-1.66,0.55-2.57l6.07-0.93
		C88.48,244.68,87.85,247.17,86.56,249.24z M87.94,240.59l-6.11,0.93c-0.28-0.79-0.75-1.48-1.35-2.03l3.64-4.95
		C85.97,236.05,87.35,238.15,87.94,240.59z M82.88,233.66l-3.65,4.97c-0.7-0.34-1.49-0.52-2.3-0.51l-0.93-6.09
		C78.48,231.81,80.87,232.43,82.88,233.66z M74.48,232.27l0.93,6.09c-0.78,0.25-1.47,0.67-2.04,1.22l-4.96-3.65
		C69.94,234.15,72.04,232.82,74.48,232.27z M67.49,237.17l4.96,3.64c-0.37,0.68-0.6,1.45-0.63,2.26l-6.1,0.95
		C65.55,241.54,66.21,239.16,67.49,237.17z"/>
</g>
</svg>
