<?xml version="1.0" encoding="utf-8"?>
<!-- Generator: Adobe Illustrator 24.0.2, SVG Export Plug-In . SVG Version: 6.00 Build 0)  -->
<svg version="1.1" xmlns="http://www.w3.org/2000/svg" xmlns:xlink="http://www.w3.org/1999/xlink" x="0px" y="0px"
	 viewBox="0 0 630.86 388.67" style="enable-background:new 0 0 630.86 388.67;" xml:space="preserve">
<style type="text/css">
	.st0{opacity:0.15;fill:#D08F4F;}
	.st1{fill:#C62C2E;}
	.st2{fill:#F6F3F1;}
	.st3{fill:#417368;}
	.st4{fill:#366055;}
	.st5{fill:#EFCE96;}
	.st6{fill:#F4D7A1;}
	.st7{fill:#E9B35B;}
	.st8{fill:#DA9C48;}
	.st9{fill:#300C18;}
	.st10{fill:#D08F4F;}
	.st11{opacity:0.31;fill:#B4662B;}
	.st12{fill:#B4662B;}
	.st13{opacity:0.49;fill:#F6F3F1;}
	.st14{opacity:0.18;fill:#D08F4F;}
	.st15{opacity:0.14;fill:#C62C2E;}
	.st16{opacity:0.57;fill:#335950;}
	.st17{fill:#ECB787;}
	.st18{fill:#DE9A63;}
	.st19{fill:#B21E27;}
	.st20{fill:#060000;}
	.st21{fill:#1A2130;}
	.st22{fill:#0E131A;}
	.st23{opacity:0.29;fill:#E9B35B;}
	.st24{opacity:0.25;fill:#F6F3F1;}
	.st25{fill:#1E0012;}
	.st26{fill:#B31A22;}
	.st27{fill:none;stroke:#F4D7A1;stroke-width:0.9848;stroke-miterlimit:10;}
	.st28{opacity:0.15;fill:#F6F3F1;}
	.st29{opacity:0.09;fill:#D08F4F;}
	.st30{fill:#FFFFFF;}
</style>
<g id="BACKGROUND">
</g>
<g id="OBJECTS">
	<g>
		<g>
			<ellipse class="st0" cx="315.12" cy="352.75" rx="309.2" ry="29.56"/>
			<g>
				<g>
					<path class="st1" d="M436.08,137.25c0.22-1.57,0.34-3.17,0.3-4.76c-0.04-1.52-0.3-3.02-0.65-4.5l-9.14,0.09
						c0.13,0.21,0.26,0.42,0.38,0.64c0.26,0.63,0.48,1.28,0.64,1.94c0.2,1.2,0.27,2.42,0.22,3.63c-0.17,1.94-0.59,3.86-1.19,5.71
						c-0.07,0.18-0.15,0.36-0.22,0.54l9.06-0.43C435.73,139.18,435.94,138.22,436.08,137.25z"/>
					<path class="st1" d="M420.08,166.33c2.25-3.37,4.51-6.73,6.79-10.08c0.05-0.08,0.1-0.15,0.15-0.23
						c0.06-0.09,0.13-0.18,0.19-0.28l-10.58,0.5c-2.5,3.7-4.98,7.4-7.46,11.12c-0.33,0.5-0.66,0.99-0.99,1.49l10.54-0.5
						C419.18,167.68,419.63,167.01,420.08,166.33z"/>
					<path class="st1" d="M412.33,177.95c1.75-2.64,3.51-5.27,5.27-7.9l-10.54,0.5c-2.23,3.35-4.46,6.69-6.68,10.04
						c-0.56,0.85-1.12,1.69-1.68,2.54l10.52-0.5C410.26,181.07,411.3,179.51,412.33,177.95z"/>
					<path class="st1" d="M422.62,116.32c-3.48-0.62-7.08-0.51-10.46,0.58c-0.65,0.21-1.27,0.46-1.88,0.74l16.31-0.16
						C425.31,116.94,423.97,116.55,422.62,116.32z"/>
					<path class="st1" d="M399.4,128.84c-0.02,0.04-0.04,0.08-0.05,0.13c-0.29,0.52-0.43,1.07-0.41,1.66
						c-0.09,0.56-0.03,1.12,0.18,1.66c0.33,0.97,1.16,2,2.11,2.43c1.02,0.46,2.24,0.65,3.31,0.23c0.97-0.38,2.04-1.09,2.43-2.11
						c0.36-0.93,0.86-1.82,1.4-2.66c0.48-0.67,1-1.3,1.56-1.91l-10.31,0.1C399.56,128.52,399.47,128.67,399.4,128.84z"/>
					<path class="st1" d="M389.4,198.42c0.01,0.51,0.08,1.01,0.22,1.41c0.33,0.97,1.16,2,2.11,2.43c1.02,0.46,2.24,0.65,3.31,0.23
						c0.33-0.16,0.65-0.32,0.98-0.48c0.62-0.42,1.11-0.96,1.45-1.63c0.53-0.81,1.06-1.61,1.59-2.42L389.4,198.42z"/>
					<path class="st1" d="M405.04,188.94c1.02-1.54,2.04-3.08,3.07-4.62l-10.52,0.5c-1.44,2.18-2.89,4.36-4.33,6.55
						c-1.12,1.69-2.28,3.37-3.36,5.09c-0.01,0.02-0.03,0.04-0.04,0.07c-0.05,0.08-0.09,0.17-0.14,0.26l10.47-0.5
						C401.8,193.83,403.42,191.38,405.04,188.94z"/>
					<path class="st1" d="M413.43,125.58c0.83-0.37,1.69-0.67,2.58-0.88c1.11-0.18,2.23-0.25,3.35-0.21
						c1.2,0.12,2.39,0.34,3.55,0.69c0.6,0.24,1.19,0.53,1.75,0.86c0.18,0.14,0.36,0.28,0.53,0.43l10.03-0.1
						c-0.82-2.22-2.15-4.25-3.85-5.88c-0.55-0.52-1.14-0.99-1.77-1.42l-22.23,0.23c-0.92,0.63-1.8,1.33-2.64,2.09
						c-1.58,1.42-2.84,3.13-3.98,4.92c-0.09,0.13-0.16,0.28-0.24,0.41l11.29-0.11C412.32,126.24,412.86,125.88,413.43,125.58z"/>
					<path class="st1" d="M433.56,145.66c0.55-1.26,1.05-2.56,1.46-3.88l-9.31,0.44c-0.64,1.4-1.38,2.76-2.25,4.04
						c-1.9,2.77-3.82,5.52-5.7,8.3l10.63-0.5C430.3,151.37,432.23,148.68,433.56,145.66z"/>
					<path class="st2" d="M409.23,182.63l-10.52,0.5c-0.37,0.56-0.74,1.12-1.12,1.69l10.52-0.5
						C408.48,183.75,408.85,183.19,409.23,182.63z"/>
					<path class="st2" d="M399.61,197.16c0.19-0.29,0.39-0.58,0.58-0.88l-10.47,0.5c-0.23,0.47-0.32,1.06-0.31,1.65l9.67-0.46
						C399.25,197.7,399.43,197.43,399.61,197.16z"/>
					<path class="st2" d="M418.73,168.36l-10.54,0.5c-0.37,0.56-0.75,1.12-1.12,1.69l10.54-0.5
						C417.98,169.48,418.35,168.92,418.73,168.36z"/>
					<path class="st2" d="M428.4,154.06l-10.63,0.5c-0.09,0.13-0.18,0.26-0.27,0.39c-0.29,0.43-0.58,0.86-0.87,1.3l10.58-0.5
						C427.61,155.19,428,154.63,428.4,154.06z"/>
					<path class="st2" d="M435.48,140.13l-9.06,0.43c-0.22,0.56-0.45,1.12-0.71,1.67l9.31-0.44
						C435.2,141.24,435.34,140.68,435.48,140.13z"/>
					<path class="st2" d="M435.72,127.98c-0.13-0.55-0.31-1.08-0.5-1.61l-10.03,0.1c0.27,0.23,0.53,0.46,0.77,0.72
						c0.22,0.29,0.43,0.59,0.62,0.9l9.14-0.09C435.72,127.99,435.72,127.99,435.72,127.98z"/>
					<path class="st2" d="M411.8,126.61l-11.29,0.11c-0.32,0.53-0.61,1.08-0.87,1.64l10.31-0.1c0.34-0.37,0.69-0.72,1.05-1.06
						C411.25,126.99,411.53,126.8,411.8,126.61z"/>
					<path class="st2" d="M426.6,117.47l-16.31,0.16c-1.02,0.47-2,1.03-2.92,1.66l22.23-0.23
						C428.66,118.44,427.65,117.91,426.6,117.47z"/>
				</g>
				<g>
					<path class="st3" d="M83.23,215.77c-0.99-1.24-2.09-2.42-3.27-3.47c-1.14-1.01-2.41-1.84-3.73-2.59l-6.17,6.74
						c0.24,0.05,0.48,0.09,0.72,0.16c0.64,0.24,1.26,0.53,1.86,0.86c1.01,0.67,1.95,1.46,2.81,2.32c1.3,1.45,2.41,3.07,3.36,4.77
						c0.09,0.17,0.16,0.35,0.25,0.53l5.87-6.91C84.39,217.34,83.84,216.53,83.23,215.77z"/>
					<path class="st3" d="M93.54,247.32c-0.92-3.94-1.83-7.89-2.72-11.84c-0.02-0.09-0.04-0.18-0.06-0.27
						c-0.02-0.11-0.05-0.22-0.07-0.33l-6.86,8.07c1,4.35,2.01,8.7,3.03,13.04c0.14,0.58,0.27,1.16,0.41,1.74l6.83-8.04
						C93.92,248.9,93.73,248.11,93.54,247.32z"/>
					<path class="st3" d="M96.74,260.91c-0.73-3.08-1.45-6.16-2.17-9.25l-6.83,8.04c0.92,3.91,1.84,7.83,2.77,11.74
						c0.23,0.99,0.47,1.98,0.71,2.96l6.82-8.03C97.6,264.55,97.17,262.73,96.74,260.91z"/>
					<path class="st3" d="M58.75,211.3c-2.83,2.12-5.21,4.83-6.72,8.04c-0.29,0.62-0.53,1.25-0.75,1.88l11.02-12.03
						C61.04,209.77,59.84,210.48,58.75,211.3z"/>
					<path class="st3" d="M52.03,236.81c0.02,0.04,0.04,0.08,0.06,0.12c0.18,0.57,0.49,1.04,0.93,1.43c0.35,0.45,0.8,0.78,1.33,1
						c0.94,0.42,2.26,0.52,3.22,0.12c1.04-0.43,2-1.19,2.43-2.26c0.39-0.97,0.6-2.24,0.12-3.22c-0.44-0.9-0.74-1.87-0.99-2.84
						c-0.16-0.81-0.27-1.62-0.33-2.44l-6.96,7.6C51.91,236.48,51.96,236.65,52.03,236.81z"/>
					<path class="st3" d="M96.03,291.65c0.38,0.34,0.79,0.63,1.18,0.8c0.94,0.42,2.26,0.52,3.22,0.12c1.04-0.43,2-1.19,2.43-2.26
						c0.11-0.35,0.21-0.7,0.32-1.05c0.12-0.74,0.06-1.47-0.2-2.17c-0.23-0.94-0.45-1.88-0.68-2.82L96.03,291.65z"/>
					<path class="st3" d="M99.78,273.74c-0.43-1.8-0.85-3.6-1.28-5.4l-6.82,8.02c0.61,2.55,1.21,5.09,1.82,7.64
						c0.47,1.98,0.91,3.97,1.42,5.93c0.01,0.03,0.01,0.05,0.02,0.08c0.02,0.09,0.06,0.19,0.1,0.28l6.79-7.99
						C101.15,279.45,100.46,276.6,99.78,273.74z"/>
					<path class="st3" d="M59.23,224.34c0.3-0.86,0.67-1.69,1.12-2.49c0.62-0.93,1.34-1.8,2.14-2.59c0.91-0.8,1.88-1.52,2.93-2.12
						c0.59-0.28,1.2-0.51,1.82-0.69c0.23-0.04,0.45-0.07,0.68-0.09l6.78-7.4c-2.18-0.92-4.57-1.33-6.92-1.2
						c-0.76,0.04-1.51,0.16-2.25,0.32L50.5,224.49c-0.17,1.1-0.25,2.22-0.27,3.35c-0.04,2.12,0.34,4.22,0.88,6.27
						c0.04,0.15,0.09,0.31,0.14,0.46l7.63-8.33C58.96,225.6,59.07,224.97,59.23,224.34z"/>
					<path class="st3" d="M87.65,223.35c-0.54-1.26-1.15-2.51-1.84-3.72l-6.03,7.1c0.59,1.43,1.07,2.9,1.42,4.4
						c0.72,3.28,1.43,6.56,2.17,9.84l6.89-8.11C89.6,229.63,88.95,226.39,87.65,223.35z"/>
					<path class="st2" d="M98.03,266.38l-6.82,8.03c0.16,0.66,0.31,1.31,0.47,1.97l6.82-8.02
						C98.35,267.69,98.19,267.03,98.03,266.38z"/>
					<path class="st2" d="M102.08,283.33c-0.08-0.34-0.16-0.68-0.24-1.02l-6.79,7.99c0.19,0.49,0.56,0.96,0.99,1.35l6.27-7.38
						C102.23,283.95,102.15,283.64,102.08,283.33z"/>
					<path class="st2" d="M94.1,249.69l-6.83,8.04c0.15,0.66,0.31,1.31,0.47,1.97l6.83-8.04C94.41,251.01,94.25,250.35,94.1,249.69z
						"/>
					<path class="st2" d="M90.27,232.86l-6.89,8.11c0.03,0.15,0.07,0.31,0.1,0.46c0.12,0.51,0.24,1.01,0.35,1.52l6.86-8.07
						C90.55,234.21,90.41,233.54,90.27,232.86z"/>
					<path class="st2" d="M84.92,218.17l-5.87,6.91c0.26,0.54,0.51,1.1,0.73,1.65l6.03-7.1C85.54,219.14,85.23,218.65,84.92,218.17z
						"/>
					<path class="st2" d="M76.22,209.7c-0.49-0.28-1-0.52-1.52-0.74l-6.78,7.4c0.35-0.04,0.7-0.07,1.05-0.07
						c0.36,0.03,0.73,0.09,1.08,0.16l6.17-6.74C76.22,209.71,76.22,209.7,76.22,209.7z"/>
					<path class="st2" d="M58.87,226.24l-7.63,8.33c0.17,0.6,0.37,1.18,0.6,1.76l6.96-7.6c-0.04-0.5-0.06-0.99-0.06-1.49
						C58.78,226.9,58.83,226.57,58.87,226.24z"/>
					<path class="st2" d="M62.31,209.19l-11.02,12.03c-0.36,1.07-0.61,2.16-0.78,3.27l15.02-16.39
						C64.42,208.34,63.34,208.72,62.31,209.19z"/>
				</g>
				<g>
					<path class="st3" d="M462.39,170.56c1.16-1.08,2.27-2.25,3.23-3.51c0.93-1.21,1.67-2.53,2.33-3.9l-7.15-5.69
						c-0.03,0.25-0.06,0.49-0.11,0.73c-0.19,0.66-0.44,1.29-0.73,1.91c-0.6,1.06-1.32,2.04-2.12,2.96c-1.36,1.4-2.89,2.62-4.53,3.69
						c-0.17,0.1-0.34,0.19-0.51,0.28l7.3,5.38C460.91,171.83,461.67,171.22,462.39,170.56z"/>
					<path class="st3" d="M431.64,183.04c3.87-1.19,7.74-2.38,11.62-3.54c0.09-0.03,0.17-0.05,0.26-0.08
						c0.11-0.03,0.22-0.06,0.32-0.09l-8.53-6.28c-4.27,1.3-8.53,2.61-12.8,3.93c-0.57,0.18-1.14,0.35-1.7,0.53l8.5,6.26
						C430.09,183.52,430.86,183.28,431.64,183.04z"/>
					<path class="st3" d="M418.3,187.17c3.02-0.94,6.05-1.88,9.07-2.81l-8.5-6.26c-3.84,1.19-7.68,2.38-11.52,3.58
						c-0.97,0.3-1.94,0.61-2.91,0.91l8.48,6.25C414.73,188.29,416.52,187.73,418.3,187.17z"/>
					<path class="st3" d="M465.15,145.82c-2.31-2.67-5.18-4.86-8.49-6.14c-0.64-0.25-1.28-0.45-1.93-0.61l12.77,10.16
						C466.84,148.01,466.04,146.86,465.15,145.82z"/>
					<path class="st3" d="M439.23,140.9c-0.04,0.02-0.08,0.04-0.12,0.07c-0.55,0.22-1.01,0.57-1.36,1.02
						c-0.42,0.38-0.72,0.85-0.9,1.4c-0.35,0.96-0.36,2.29,0.11,3.22c0.5,1,1.33,1.92,2.43,2.27c1,0.32,2.27,0.44,3.22-0.11
						c0.86-0.5,1.81-0.87,2.77-1.18c0.79-0.22,1.6-0.38,2.41-0.5l-8.07-6.42C439.55,140.76,439.38,140.82,439.23,140.9z"/>
					<path class="st3" d="M387.59,188.61c-0.32,0.4-0.57,0.84-0.72,1.23c-0.35,0.96-0.36,2.29,0.11,3.22c0.5,1,1.32,1.92,2.43,2.27
						c0.36,0.08,0.71,0.16,1.07,0.24c0.75,0.07,1.47-0.05,2.15-0.35c0.92-0.29,1.84-0.58,2.76-0.87L387.59,188.61z"/>
					<path class="st3" d="M405.72,191.11c1.76-0.55,3.53-1.1,5.29-1.65l-8.48-6.24c-2.5,0.78-4.99,1.56-7.49,2.35
						c-1.94,0.61-3.89,1.18-5.82,1.83c-0.03,0.01-0.05,0.02-0.08,0.02c-0.09,0.03-0.18,0.07-0.27,0.11l8.44,6.22
						C400.12,192.87,402.92,191.99,405.72,191.11z"/>
					<path class="st3" d="M452.17,147.22c0.88,0.24,1.74,0.55,2.56,0.94c0.97,0.56,1.89,1.21,2.73,1.95
						c0.86,0.85,1.64,1.77,2.32,2.77c0.32,0.57,0.59,1.16,0.82,1.77c0.06,0.22,0.1,0.45,0.14,0.67l7.85,6.25
						c0.76-2.23,1.01-4.66,0.71-6.99c-0.1-0.75-0.26-1.49-0.48-2.22l-17.4-13.84c-1.11-0.09-2.23-0.1-3.36-0.04
						c-2.12,0.11-4.18,0.64-6.19,1.31c-0.15,0.05-0.3,0.11-0.45,0.17l8.84,7.03C450.9,147.03,451.54,147.1,452.17,147.22z"/>
					<path class="st3" d="M455.14,175.5c1.22-0.63,2.42-1.32,3.58-2.09l-7.5-5.52c-1.38,0.68-2.81,1.27-4.29,1.72
						c-3.22,0.95-6.45,1.88-9.66,2.85l8.57,6.31C449.01,177.88,452.2,177,455.14,175.5z"/>
					<path class="st2" d="M412.94,188.85l-8.48-6.25c-0.64,0.2-1.29,0.4-1.93,0.61l8.48,6.24
						C411.65,189.25,412.3,189.05,412.94,188.85z"/>
					<path class="st2" d="M396.31,194.06c0.33-0.11,0.67-0.21,1-0.31l-8.44-6.22c-0.47,0.22-0.92,0.63-1.28,1.08l7.8,5.74
						C395.7,194.26,396.01,194.16,396.31,194.06z"/>
					<path class="st2" d="M429.31,183.76l-8.5-6.26c-0.64,0.2-1.29,0.4-1.93,0.6l8.5,6.26
						C428.02,184.16,428.67,183.96,429.31,183.76z"/>
					<path class="st2" d="M445.83,178.77l-8.57-6.31c-0.15,0.05-0.3,0.09-0.45,0.13c-0.5,0.15-0.99,0.31-1.49,0.46l8.53,6.28
						C444.51,179.14,445.17,178.95,445.83,178.77z"/>
					<path class="st2" d="M460.12,172.42l-7.3-5.38c-0.52,0.3-1.06,0.58-1.6,0.85l7.5,5.52
						C459.2,173.09,459.66,172.76,460.12,172.42z"/>
					<path class="st2" d="M467.96,163.14c0.24-0.51,0.45-1.03,0.63-1.57l-7.85-6.25c0.06,0.35,0.12,0.69,0.15,1.04
						c-0.01,0.37-0.04,0.73-0.08,1.09l7.15,5.69C467.95,163.15,467.96,163.14,467.96,163.14z"/>
					<path class="st2" d="M450.26,146.99l-8.84-7.03c-0.58,0.21-1.16,0.45-1.71,0.72l8.07,6.42c0.49-0.07,0.99-0.13,1.49-0.16
						C449.59,146.94,449.92,146.97,450.26,146.99z"/>
					<path class="st2" d="M467.5,149.23l-12.77-10.16c-1.09-0.28-2.2-0.46-3.31-0.55l17.4,13.84
						C468.5,151.28,468.04,150.23,467.5,149.23z"/>
				</g>
				<g>
					<g>
						<rect x="258.94" y="158.03" class="st3" width="141.59" height="173.55"/>
						<path class="st4" d="M294.14,213.88c13.28,3.53,26.94,4.78,40.6,5.9c22.11,1.81,44.01,5.35,65.79,9.48v-71.23H258.94v42.95
							C271.26,203.65,282,210.66,294.14,213.88z"/>
					</g>
					<rect x="250.75" y="149.39" class="st1" width="158.26" height="51.45"/>
					<g>
						<rect x="323.47" y="149.39" class="st5" width="13.94" height="182.18"/>
						<path class="st6" d="M368.36,111.22c-33.75-2.69-41.04,37.22-41.04,37.22C385.29,170.21,411.42,114.65,368.36,111.22z
							 M333.14,145.04c0,0,4.57-25.04,25.75-23.35C385.9,123.85,369.5,158.7,333.14,145.04z"/>
						<path class="st5" d="M317.41,98.34c-20.78,23.95,12.8,51.02,12.8,51.02C382.02,117.5,343.92,67.79,317.41,98.34z
							 M330.16,143.15c0,0-21.06-16.98-8.03-32.01C338.76,91.97,362.66,123.16,330.16,143.15z"/>
						<path class="st6" d="M279.19,129.59c10.43,28.84,54.33,19.23,54.33,19.23C333.24,92.57,265.87,92.79,279.19,129.59z
							 M327.75,145.36c0,0-27.54,6.03-34.09-12.07C285.31,110.21,327.58,110.08,327.75,145.36z"/>
					</g>
				</g>
				<g>
					<rect x="389.21" y="215.24" class="st7" width="130.4" height="120.05"/>
					<path class="st8" d="M421.62,253.88c12.23,2.44,24.82,3.31,37.39,4.08c20.36,1.25,40.53,3.7,60.59,6.55v-49.27h-130.4v29.71
						C400.55,246.8,410.44,251.65,421.62,253.88z"/>
					<rect x="381.66" y="209.27" class="st1" width="145.76" height="35.59"/>
					<rect x="451.37" y="209.27" class="st9" width="9.65" height="126.02"/>
					<path class="st9" d="M482.42,182.86c-23.34-1.86-28.39,25.75-28.39,25.75C494.13,223.67,512.2,185.24,482.42,182.86z
						 M458.05,206.26c0,0,3.16-17.32,17.81-16.15C494.55,191.59,483.21,215.71,458.05,206.26z"/>
					<path class="st9" d="M447.8,175.1c-14.37,16.57,8.85,35.29,8.85,35.29C492.49,188.35,466.13,153.96,447.8,175.1z
						 M456.62,206.09c0,0-14.57-11.75-5.56-22.14C462.56,170.69,479.1,192.27,456.62,206.09z"/>
					<path class="st9" d="M420.73,195.57c7.22,19.95,37.59,13.31,37.59,13.31C458.12,169.96,411.52,170.11,420.73,195.57z
						 M454.33,206.48c0,0-19.05,4.17-23.58-8.35C424.97,182.16,454.2,182.07,454.33,206.48z"/>
				</g>
				<g>
					<path class="st3" d="M179.84,250.91c0,0,8.4,10.62,16.02,37.29c7.63,26.67,17.12,41.02,17.12,41.02s6.96-9.18,18.98-13.01
						c0,0-14.07-16.43-21.4-37.08c-7.32-20.65-17.3-31.82-22.56-34.93"/>
					<g>
						<path class="st10" d="M98.18,233.95c0,0-26.36,13.04-43.32,44.57c-16.96,31.53,12.31,45.07,22.48,26.55
							C87.51,286.54,98.18,233.95,98.18,233.95z"/>
						<path class="st11" d="M75.98,284.29c-2.57,10.97-8.87,23.69-19.7,26.53c6.47,4.7,16.07,3.34,21.07-5.75
							c8.32-15.16,16.98-53.11,19.85-66.42C84.99,250.81,79.81,267.93,75.98,284.29z"/>
					</g>
					<g>
						<path class="st10" d="M178.08,236.72c0,0,24.24,16.64,36.57,50.25s-18.56,42.87-26.01,23.09
							C181.19,290.29,178.08,236.72,178.08,236.72z"/>
						<path class="st11" d="M192.93,289.69c0.99,11.22,5.42,24.7,15.75,29.05c-7.07,3.74-16.38,1.04-20.04-8.68
							c-6.09-16.18-9.28-54.98-10.24-68.56C188.75,255.28,191.45,272.95,192.93,289.69z"/>
					</g>
					<g>
						<path class="st10" d="M208.13,174.7c-0.71,11.06-10.26,19.45-21.33,18.74s-19.45-10.26-18.74-21.33
							c0.71-11.06,10.26-19.45,21.33-18.74C200.46,154.09,208.85,163.64,208.13,174.7z"/>
						<path class="st12" d="M197.48,176.12c-0.41,6.31-5.85,11.1-12.16,10.69c-6.31-0.41-11.1-5.85-10.69-12.16
							c0.41-6.31,5.85-11.1,12.16-10.69C193.1,164.36,197.88,169.81,197.48,176.12z"/>
					</g>
					<g>
						<path class="st10" d="M89.9,153.21c-8.14,7.52-8.64,20.23-1.12,28.37c7.52,8.14,20.23,8.64,28.37,1.12
							c8.14-7.52,8.64-20.23,1.12-28.37C110.74,146.19,98.04,145.69,89.9,153.21z"/>
						<path class="st12" d="M95.51,162.38c-4.64,4.29-4.93,11.54-0.64,16.18c4.29,4.64,11.54,4.93,16.18,0.64
							c4.64-4.29,4.93-11.54,0.64-16.18C107.4,158.37,100.16,158.08,95.51,162.38z"/>
					</g>
					<path class="st10" d="M191.81,293.73c-2.29,35.55-9.1,56.09-59.64,52.83c-46.14-2.98-54.65-24.51-52.35-60.06
						c2.29-35.55,29.22-62.75,60.15-60.76C170.9,227.75,194.11,258.18,191.81,293.73z"/>
					<path class="st11" d="M95.83,250.53c10.77,18.14,37.75,18.76,56.1,19.55c11.48,0.5,21.41,2.74,28.43,12.57
						c4.7,6.59,7.69,14.18,10.53,21.79c0.39-3.4,0.68-6.97,0.92-10.71c2.29-35.55-20.92-65.99-51.84-67.98
						c-18.26-1.18-35.12,7.83-46.35,22.72C94.47,248.87,95.24,249.54,95.83,250.53z"/>
					
						<ellipse transform="matrix(0.9909 -0.1345 0.1345 0.9909 -26.1446 21.2695)" class="st10" cx="144.33" cy="204.12" rx="50.6" ry="50.6"/>
					<path class="st11" d="M194.86,201.55c-0.4-7.84-2.56-15.18-6.09-21.64c1.46,12.98,3.15,26.34-2.71,38.47
						c-4.88,10.1-13.53,16.94-24.07,20.5c-11.53,3.9-24.44,4.35-36.45,2.97c-6.74-0.78-13.57-2.18-19.78-4.98
						c9.85,11.58,24.77,18.61,41.12,17.78C174.81,253.23,196.28,229.46,194.86,201.55z"/>
					<g>
						<path class="st13" d="M156.14,217.67c-0.6,9.37-7.27,16.57-14.89,16.08c-7.62-0.49-13.3-8.49-12.7-17.86
							c0.6-9.37,7.27-16.57,14.89-16.08C151.06,200.3,156.74,208.3,156.14,217.67z"/>
						<path class="st14" d="M153.27,206.04c0,0.03,0.02,0.05,0.02,0.08c0.97,5.76,0.44,12.46-3.27,17.23
							c-2.57,3.31-7.01,5.09-10.92,6.19c-1.67,0.47-3.52,0.81-5.36,0.84c2.08,1.96,4.66,3.2,7.51,3.38
							c7.62,0.49,14.28-6.71,14.89-16.08C156.42,213.28,155.31,209.2,153.27,206.04z"/>
						<g>
							<path d="M140.62,212.53l-2.32-3.5c-1.15-1.72,0.18-4.01,2.24-3.88l4.95,0.32c2.04,0.13,3.07,2.52,1.77,4.09l-2.63,3.18
								C143.56,214.03,141.55,213.93,140.62,212.53z"/>
							<g>
								<g>
									<path d="M142.14,212.87c-0.17,2.71-0.35,5.42-0.52,8.13c-0.02,0.38-0.05,0.77-0.07,1.15c-0.03,0.5,0.74,0.55,0.77,0.05
										c0.17-2.71,0.35-5.42,0.52-8.13c0.02-0.38,0.05-0.77,0.07-1.15C142.95,212.42,142.17,212.37,142.14,212.87L142.14,212.87z"
										/>
								</g>
								<g>
									<path d="M135.1,218.67c1.89,2.8,5.42,4.48,8.77,3.7c1.89-0.44,3.55-1.5,5.02-2.74c0.38-0.32-0.13-0.91-0.51-0.58
										c-2.11,1.79-4.81,3.22-7.66,2.6c-1.65-0.36-3.11-1.32-4.25-2.54c-0.18-0.2-0.36-0.4-0.53-0.62
										c-0.04-0.05-0.27-0.37-0.14-0.18C135.52,217.91,134.82,218.25,135.1,218.67L135.1,218.67z"/>
								</g>
							</g>
						</g>
					</g>
					<path class="st15" d="M180.06,217.77c-0.31,4.81-4.46,8.45-9.26,8.14c-4.81-0.31-8.45-4.46-8.14-9.26
						c0.31-4.81,4.46-8.45,9.26-8.14C176.72,208.82,180.37,212.97,180.06,217.77z"/>
					
						<ellipse transform="matrix(0.9641 -0.2654 0.2654 0.9641 -52.5486 38.2588)" class="st15" cx="115.31" cy="213.59" rx="8.72" ry="8.72"/>
					<g>
						<path class="st13" d="M172.57,198.34c-0.18,2.86-2.65,5.02-5.51,4.84c-2.86-0.18-5.02-2.65-4.84-5.51
							c0.18-2.86,2.65-5.02,5.51-4.84C170.59,193.02,172.76,195.49,172.57,198.34z"/>
						<path d="M170.92,198.24c-0.13,1.94-1.8,3.41-3.74,3.29c-1.94-0.13-3.41-1.8-3.29-3.74c0.13-1.94,1.8-3.41,3.74-3.29
							C169.57,194.62,171.04,196.29,170.92,198.24z"/>
						<path class="st2" d="M170.29,198.01c-0.03,0.42-0.39,0.74-0.81,0.71c-0.42-0.03-0.74-0.39-0.71-0.81
							c0.03-0.42,0.39-0.74,0.81-0.71C170,197.22,170.31,197.59,170.29,198.01z"/>
					</g>
					<g>
						<path class="st13" d="M127.53,195.44c-0.18,2.86-2.65,5.02-5.51,4.84c-2.86-0.18-5.02-2.65-4.84-5.51
							c0.18-2.86,2.65-5.02,5.51-4.84C125.54,190.11,127.71,192.58,127.53,195.44z"/>
						<path d="M125.87,195.33c-0.13,1.94-1.8,3.41-3.74,3.29c-1.94-0.13-3.41-1.8-3.29-3.74c0.13-1.94,1.8-3.41,3.74-3.29
							C124.52,191.71,125.99,193.39,125.87,195.33z"/>
						<path class="st2" d="M125.24,195.1c-0.03,0.42-0.39,0.74-0.81,0.71c-0.42-0.03-0.74-0.39-0.71-0.81
							c0.03-0.42,0.39-0.74,0.81-0.71C124.95,194.32,125.27,194.68,125.24,195.1z"/>
					</g>
					<g>
						<path class="st10" d="M124.02,316.18c2.77,15.29-5.6,29.61-18.7,31.99c-13.1,2.38-25.97-8.09-28.74-23.38
							c-2.77-15.29,5.6-29.61,18.7-31.99C108.38,290.42,121.25,300.89,124.02,316.18z"/>
						<path class="st11" d="M124.02,316.18c-2.77-15.29-15.64-25.76-28.74-23.38c-1.2,0.22-2.36,0.54-3.47,0.95
							c10.87,0.91,19.27,8.82,21.82,19.94c2.36,10.29-0.82,23.21-10.76,28.43c-5.05,2.65-10.8,2.79-15.82,0.97
							c5.21,4.25,11.71,6.28,18.27,5.09C118.43,345.79,126.8,331.47,124.02,316.18z"/>
						<path class="st12" d="M108.06,319.07c1.38,7.59-2.78,14.69-9.28,15.87c-6.5,1.18-12.89-4.02-14.26-11.6
							c-1.38-7.59,2.78-14.69,9.28-15.87C100.3,306.29,106.68,311.48,108.06,319.07z"/>
					</g>
					<g>
						<path class="st10" d="M146.38,317.62c-4.71,14.81,1.75,30.09,14.43,34.13c12.69,4.04,26.79-4.69,31.51-19.5
							c4.71-14.81-1.75-30.09-14.43-34.12S151.1,302.81,146.38,317.62z"/>
						<path class="st11" d="M146.38,317.62c4.72-14.81,18.82-23.54,31.51-19.5c1.16,0.37,2.27,0.84,3.32,1.38
							c-10.89-0.5-20.25,6.27-24.2,16.97c-3.66,9.9-2.17,23.12,7.02,29.57c4.67,3.28,10.36,4.15,15.57,2.99
							c-5.71,3.55-12.42,4.73-18.78,2.7C148.13,347.7,141.67,332.43,146.38,317.62z"/>
						
							<ellipse transform="matrix(0.3034 -0.9529 0.9529 0.3034 -190.1165 392.2814)" class="st12" cx="173.24" cy="326.17" rx="13.96" ry="11.96"/>
					</g>
					<path class="st3" d="M173.75,256.72c0,0,4.79,12.66,3.99,40.39c-0.8,27.73,3.9,44.28,3.9,44.28s9.42-6.65,22.03-6.66
						c0,0-8.44-19.92-9.17-41.81c-0.73-21.89-6.86-35.56-10.93-40.11"/>
					<path class="st16" d="M189.73,308.52c0.77,9.94,1.09,21.44-3.71,30.41c3.94-1.89,10.23-4.19,17.65-4.2
						c0,0-8.44-19.92-9.17-41.81c-0.53-15.74-3.84-27.2-7.17-34.1C186.32,275.48,188.45,291.92,189.73,308.52z"/>
					<g>
						<path class="st3" d="M100.48,229.37c0,0,34.24,22.61,84.09,5.43c0,0,13.16,2.49,8.09,17.47c-5.08,14.98-77.93,15.5-100.14-3.3
							c0,0-4.44-4.46-1.48-11.97C94.63,227.89,100.48,229.37,100.48,229.37z"/>
						<path class="st16" d="M189.76,237.26c-8.1,13.51-27.15,15.09-41.3,15.52c-10.97,0.34-21.99,0.07-32.77-2.14
							c-8.95-1.83-18.48-4.82-25.43-11c-1.14,5.89,2.26,9.32,2.26,9.32c22.2,18.8,95.06,18.28,100.14,3.3
							C195.44,244.07,192.76,239.62,189.76,237.26z"/>
					</g>
				</g>
				<g>
					<path class="st17" d="M276.98,212.25c0,0,1.95,14.45-8.76,13.14v-13.14H276.98z"/>
					<g>
						<path class="st17" d="M264.46,89.49c0,2.52-1.62,4.57-3.61,4.57c-2,0-3.61-2.04-3.61-4.57c0-2.52,1.62-4.57,3.61-4.57
							C262.84,84.93,264.46,86.97,264.46,89.49z"/>
						<path class="st18" d="M262.69,89.49c0,1.29-0.83,2.34-1.85,2.34c-1.02,0-1.85-1.05-1.85-2.34c0-1.29,0.83-2.34,1.85-2.34
							C261.87,87.15,262.69,88.2,262.69,89.49z"/>
					</g>
					<g>
						<ellipse class="st17" cx="211.87" cy="89.49" rx="3.61" ry="4.57"/>
						<path class="st18" d="M213.72,89.49c0,1.29-0.83,2.34-1.85,2.34c-1.02,0-1.85-1.05-1.85-2.34c0-1.29,0.83-2.34,1.85-2.34
							C212.89,87.15,213.72,88.2,213.72,89.49z"/>
					</g>
					<path class="st1" d="M267.59,221.33h-59.3l-13.23-98.88c-0.2-1.53,0.98-2.89,2.53-2.89h78.19c2.22,0,3.95,1.95,3.68,4.15
						L267.59,221.33z"/>
					<rect x="205.7" y="201.99" class="st1" width="62.94" height="37.26"/>
					<path class="st19" d="M229.96,239.25h38.67v-26.96C264.43,230.19,247.44,236.8,229.96,239.25z"/>
					<path class="st1" d="M208.17,212.25h-14.24v-89.22c0-1.92,1.55-3.47,3.47-3.47h10.77V212.25z"/>
					<path class="st1" d="M279.95,212.25h-14.57v-92.69h10.95c2,0,3.62,1.62,3.62,3.62V212.25z"/>
					<path class="st19" d="M271.83,201.03c-0.28-8.71-0.67-17.3-1.52-25.99c-1.39-14.16-3.2-28.28-4.92-42.41v79.62h6.97
						C271.72,208.58,271.95,204.67,271.83,201.03z"/>
					<path class="st19" d="M199.02,201.03c0.28-8.71,0.67-17.3,1.52-25.99c1.39-14.16,3.2-28.28,4.92-42.41v79.62h-6.97
						C199.13,208.58,198.91,204.67,199.02,201.03z"/>
					<path class="st17" d="M196.94,212.25c0,0-1.95,14.45,8.76,13.14v-13.14H196.94z"/>
					<polygon class="st20" points="254.4,330.27 238.86,330.27 238.86,239.25 262.72,239.25 					"/>
					<polygon class="st20" points="219.45,330.27 234.99,330.27 234.99,239.25 211.12,239.25 					"/>
					<rect x="225.85" y="109.06" class="st1" width="23.17" height="10.51"/>
					<g>
						<path class="st6" d="M219.4,145.46c4.21,0,8.42,0,12.63,0c6.68,0,13.36,0,20.04,0c1.53,0,3.06,0,4.59,0
							c1.96,0,1.97-3.05,0-3.05c-4.21,0-8.42,0-12.63,0c-6.68,0-13.36,0-20.04,0c-1.53,0-3.06,0-4.59,0
							C217.43,142.41,217.43,145.46,219.4,145.46L219.4,145.46z"/>
					</g>
					<g>
						<path class="st6" d="M219.4,160.03c4.21,0,8.42,0,12.63,0c6.68,0,13.36,0,20.04,0c1.53,0,3.06,0,4.59,0
							c1.96,0,1.97-3.05,0-3.05c-4.21,0-8.42,0-12.63,0c-6.68,0-13.36,0-20.04,0c-1.53,0-3.06,0-4.59,0
							C217.43,156.98,217.43,160.03,219.4,160.03L219.4,160.03z"/>
					</g>
					<g>
						<path class="st6" d="M219.4,174.6c4.21,0,8.42,0,12.63,0c6.68,0,13.36,0,20.04,0c1.53,0,3.06,0,4.59,0
							c1.96,0,1.97-3.05,0-3.05c-4.21,0-8.42,0-12.63,0c-6.68,0-13.36,0-20.04,0c-1.53,0-3.06,0-4.59,0
							C217.43,171.55,217.43,174.6,219.4,174.6L219.4,174.6z"/>
					</g>
					<g>
						<path class="st6" d="M218.54,189.18c4.21,0,8.42,0,12.63,0c6.68,0,13.36,0,20.04,0c1.53,0,3.06,0,4.59,0
							c1.96,0,1.97-3.05,0-3.05c-4.21,0-8.42,0-12.63,0c-6.68,0-13.36,0-20.04,0c-1.53,0-3.06,0-4.59,0
							C216.57,186.13,216.57,189.18,218.54,189.18L218.54,189.18z"/>
					</g>
					<polygon class="st7" points="205.7,201.99 262.87,119.57 271.71,125.78 217.96,201.99 					"/>
					<g>
						<path class="st7" d="M252.25,119.57h-1.8c0,0,1.31,21.02,29.5,18.63v-1.7C258.16,137.73,253.3,124.48,252.25,119.57z"/>
						<path class="st3" d="M275.77,119.57h-23.52c1.04,4.91,5.9,18.17,27.7,16.93v-12.75C279.95,121.44,278.08,119.57,275.77,119.57
							z"/>
					</g>
					<polygon class="st7" points="268,201.99 210.82,119.57 201.98,125.78 255.73,201.99 					"/>
					<g>
						<path class="st7" d="M221.62,119.57h1.8c0,0-1.31,21.02-29.5,18.63v-1.7C215.72,137.73,220.58,124.48,221.62,119.57z"/>
						<path class="st3" d="M198.11,119.57h23.52c-1.04,4.91-5.9,18.17-27.7,16.93v-12.75C193.92,121.44,195.8,119.57,198.11,119.57z
							"/>
					</g>
					
						<ellipse transform="matrix(0.7071 -0.7071 0.7071 0.7071 4.6982 193.8586)" class="st17" cx="236.36" cy="91.26" rx="24.49" ry="24.49"/>
					<path class="st21" d="M238.41,95.95c2.78-1.79,8.7-3.04,19.07,5.8c0,0-13.57,5.27-19.65-1.76
						C236.77,98.77,237.05,96.82,238.41,95.95z"/>
					<path class="st21" d="M236.1,95.95c-2.78-1.79-8.7-3.04-19.07,5.8c0,0,13.57,5.27,19.65-1.76
						C237.74,98.77,237.46,96.82,236.1,95.95z"/>
					<circle class="st18" cx="237.18" cy="91.48" r="3.61"/>
					<path class="st21" d="M248.18,84.21c0,1.05-0.71,1.91-1.6,1.91c-0.88,0-1.6-0.85-1.6-1.91s0.71-1.91,1.6-1.91
						C247.47,82.3,248.18,83.15,248.18,84.21z"/>
					<path class="st21" d="M227.44,84.21c0,1.05-0.71,1.91-1.6,1.91c-0.88,0-1.6-0.85-1.6-1.91s0.71-1.91,1.6-1.91
						C226.73,82.3,227.44,83.15,227.44,84.21z"/>
					<path class="st18" d="M249.62,76.27c0,0,6.3,10.57,10.93,11.94c0,0,0.81-7.05-5.73-14.81"/>
					<path class="st18" d="M222.83,76.27c0,0-6.3,10.57-10.93,11.94c0,0-0.81-7.05,5.73-14.81"/>
					<path class="st21" d="M257.27,4.67L213.7,4.78c-1.75,0-3.12,1.51-2.96,3.25l6.11,66.62c0.08,0.92,0.86,1.62,1.78,1.62h34.89
						c1.1,0,2.01-0.85,2.09-1.94l4.96-66.1C260.72,6.3,259.2,4.67,257.27,4.67z"/>
					<path class="st22" d="M250.37,37.32c-1.61,7.24-2.37,14.56-5.28,21.45c-2.56,6.06-6.57,11.35-12.53,14.37
						c-2.7,1.37-6.18,2.61-9.67,3.14h30.64c1.1,0,2.01-0.85,2.09-1.94l4.75-63.32C256.36,19.66,252.46,27.91,250.37,37.32z"/>
					<g>
						<path class="st7" d="M215.03,58.68c2.72,1,5.61,1.64,8.45,2.18c6.62,1.25,13.43,1.67,20.13,0.96
							c4.62-0.49,9.17-1.5,13.52-3.14c0.51-0.19,0.87-0.69,0.71-1.25c-0.14-0.49-0.73-0.91-1.25-0.71
							c-7.25,2.73-15.01,3.7-22.73,3.34c-5.24-0.24-10.46-1.07-15.52-2.48c-0.93-0.26-1.87-0.53-2.78-0.87
							C214.34,56.27,213.81,58.23,215.03,58.68L215.03,58.68z"/>
					</g>
					<path class="st19" d="M225.85,119.57h23.17c0,0-20.6-2.87-23.17-3.82"/>
					<rect x="205.47" y="200.26" class="st6" width="63.17" height="12.98"/>
					<path class="st23" d="M207.72,201.11c3.37,3.68,9.53,3.41,14.15,3.57c5.3,0.18,10.48,0.6,15.76,1.12
						c10.64,1.05,20.95,2.24,31.01,5.21v-10.75H206.8C207.11,200.51,207.42,200.78,207.72,201.11z"/>
					<path class="st24" d="M219.06,32.74c0.52-4.69,2.68-16.3,0.22-21.11c-0.01-0.02-0.02-0.04-0.03-0.05
						c-1.04-1.99-4.07-1.29-4.32,0.94c-0.8,7.41,1.41,15.61,3.18,23.69c0.14,0.63,0.27,1.26,0.41,1.88
						C218.69,36.29,218.86,34.51,219.06,32.74z"/>
					<path class="st20" d="M234.99,339.01v-10.54c0-0.9-0.67-1.66-1.57-1.75c-4.86-0.5-19.8-0.91-28.12,11.27
						c-0.81,1.18,0.02,2.79,1.45,2.79h26.48C234.2,340.78,234.99,339.99,234.99,339.01z"/>
					<path class="st20" d="M238.86,339.01v-10.54c0-0.9,0.67-1.66,1.57-1.75c4.86-0.5,19.8-0.91,28.12,11.27
						c0.81,1.18-0.02,2.79-1.45,2.79h-26.48C239.65,340.78,238.86,339.99,238.86,339.01z"/>
				</g>
				<g>
					<g>
						<g>
							<path class="st9" d="M603.85,347.67h-31.54c-3,0-5.8-1.47-7.49-3.94l-6.92-10.09l1.38-0.65c0.61-0.29,15.03-7.35,12.25-25.94
								l-0.64-4.3l35.33,39.66c0.84,0.94,1.04,2.24,0.52,3.39C606.22,346.95,605.11,347.67,603.85,347.67z M561.7,334.59l5.26,7.67
								c1.21,1.76,3.21,2.82,5.35,2.82h31.54c0.32,0,0.47-0.21,0.52-0.34c0.06-0.13,0.12-0.37-0.09-0.61l-29.82-33.49
								C574.9,325.07,565.28,332.38,561.7,334.59z"/>
						</g>
						<g>
							
								<rect x="581.88" y="314.04" transform="matrix(0.8048 -0.5935 0.5935 0.8048 -83.1955 410.938)" class="st9" width="2.59" height="35.84"/>
						</g>
						<g>
							
								<rect x="572.46" y="326.29" transform="matrix(0.7822 -0.623 0.623 0.7822 -85.3513 430.9378)" class="st9" width="2.59" height="22.54"/>
						</g>
					</g>
					<rect x="528.67" y="253.34" class="st7" width="12.34" height="23.97"/>
					<path class="st7" d="M520.99,234.52c0,0-3.03,21.64,13.85,21.41c16.87-0.23,13.15-21.41,13.15-21.41H520.99z"/>
					<path class="st8" d="M545.88,248.95c-5.7,0.82-11.08,0.62-15.98-2.79c-3.8-2.64-6.42-6.03-9.07-9.76
						c-0.28,5.25,0.19,19.71,14.01,19.52c6.47-0.09,9.9-3.26,11.68-7.14C546.31,248.85,546.09,248.92,545.88,248.95z"/>
					<rect x="528.67" y="259.1" class="st1" width="12.34" height="7.24"/>
					<path class="st9" d="M549.62,239.87H518.9c-0.82,0-1.48-0.66-1.48-1.48v-4.71c0-0.82,0.66-1.48,1.48-1.48h30.72
						c0.82,0,1.48,0.66,1.48,1.48v4.71C551.1,239.21,550.44,239.87,549.62,239.87z"/>
					<rect x="414.86" y="242.87" class="st9" width="63.77" height="93.56"/>
					<path class="st25" d="M467.24,333.99c-13.93-10.35-25.27-22.63-34.48-37.37c-8.87-14.2-12.85-30.86-17.9-46.83v86.63h58.35
						C471.29,336.25,469.27,335.5,467.24,333.99z"/>
					<path class="st1" d="M569.79,336.43h-91.16v-63.77h77.23c9.79,0,17.73,7.94,17.73,17.73v42.24
						C573.59,334.73,571.89,336.43,569.79,336.43z"/>
					<path class="st26" d="M528.5,322.66c-11.94-1.6-22.96-7.23-31.68-15.55c-8.55-8.16-11.2-19.5-18.16-28.74
						c-0.01-0.01-0.02-0.02-0.02-0.04v58.08h85.12c5.43,0,9.83-4.4,9.83-9.83v-8.03c0-1.51-0.08-3-0.23-4.47
						C561.39,323.8,545.29,324.91,528.5,322.66z"/>
					<path class="st7" d="M484.01,243.68h-74.06c-1.14,0-2.07-0.93-2.07-2.07v-6.57c0-1.14,0.93-2.07,2.07-2.07h74.06
						c1.14,0,2.07,0.93,2.07,2.07v6.57C486.08,242.76,485.16,243.68,484.01,243.68z"/>
					<path class="st8" d="M480.76,242.9c-13.67-0.01-27.11-0.51-40.7-1.88c-10.18-1.02-20.65-1.53-29.37-7.37
						c-1.66,0.91-2.81,2.65-2.81,4.68c0,2.96,2.4,5.35,5.35,5.35h67.49c1.25,0,2.38-0.45,3.29-1.16
						C483.01,242.76,481.93,242.9,480.76,242.9z"/>
					<path class="st27" d="M569.87,290.34"/>
					<path class="st1" d="M455.96,294.82h-19.69c-2.47,0-4.47-2-4.47-4.47v-27.37c0-2.47,2-4.47,4.47-4.47h19.69
						c2.47,0,4.47,2,4.47,4.47v27.37C460.42,292.83,458.42,294.82,455.96,294.82z"/>
					<g>
						<path class="st7" d="M502.55,332.68c0,11.36-9.21,20.56-20.56,20.56s-20.56-9.21-20.56-20.56c0-11.36,9.21-20.56,20.56-20.56
							S502.55,321.33,502.55,332.68z"/>
						<path class="st9" d="M496.03,332.68c0,7.75-6.29,14.04-14.04,14.04c-7.75,0-14.04-6.28-14.04-14.04
							c0-7.75,6.28-14.04,14.04-14.04C489.75,318.64,496.03,324.93,496.03,332.68z"/>
						<g>
							<path class="st27" d="M486.26,332.68c0,2.35-1.91,4.26-4.26,4.26c-2.35,0-4.26-1.91-4.26-4.26c0-2.35,1.91-4.26,4.26-4.26
								C484.35,328.42,486.26,330.33,486.26,332.68z"/>
							<g>
								<g>
									<path class="st6" d="M481,319.38c0,2.51,0,5.03,0,7.54c0,0.36,0,0.71,0,1.07c0,1.28,1.98,1.28,1.98,0c0-2.51,0-5.03,0-7.54
										c0-0.36,0-0.71,0-1.07C482.98,318.1,481,318.1,481,319.38L481,319.38z"/>
								</g>
								<g>
									<path class="st6" d="M490.88,322.76c-1.81,1.74-3.62,3.49-5.44,5.23c-0.26,0.25-0.51,0.49-0.77,0.74
										c-0.37,0.36-0.39,1.04,0,1.4c0.4,0.37,1,0.38,1.4,0c1.81-1.74,3.62-3.49,5.44-5.23c0.26-0.25,0.51-0.49,0.77-0.74
										c0.37-0.36,0.39-1.04,0-1.4C491.88,322.39,491.28,322.37,490.88,322.76L490.88,322.76z"/>
								</g>
								<g>
									<path class="st6" d="M495.29,332.2c-2.51-0.1-5.01-0.19-7.52-0.29c-0.36-0.01-0.72-0.03-1.08-0.04
										c-1.28-0.05-1.27,1.93,0,1.98c2.51,0.1,5.01,0.19,7.52,0.29c0.36,0.01,0.72,0.03,1.08,0.04
										C496.56,334.23,496.56,332.25,495.29,332.2L495.29,332.2z"/>
								</g>
								<g>
									<path class="st6" d="M491.54,341.91c-1.67-1.88-3.35-3.76-5.02-5.64c-0.23-0.26-0.47-0.53-0.7-0.79
										c-0.36-0.4-1.04-0.36-1.4,0c-0.4,0.4-0.36,1,0,1.4c1.67,1.88,3.35,3.76,5.02,5.64c0.23,0.26,0.47,0.53,0.7,0.79
										c0.36,0.4,1.04,0.36,1.4,0C491.94,342.92,491.9,342.32,491.54,341.91L491.54,341.91z"/>
								</g>
								<g>
									<path class="st6" d="M481.96,345.94c0.19-2.5,0.39-5,0.58-7.51c0.03-0.36,0.06-0.72,0.08-1.08
										c0.04-0.53-0.48-0.99-0.99-0.99c-0.57,0-0.95,0.46-0.99,0.99c-0.19,2.5-0.39,5-0.58,7.51c-0.03,0.36-0.06,0.72-0.08,1.08
										c-0.04,0.53,0.49,0.99,0.99,0.99C481.54,346.94,481.92,346.48,481.96,345.94L481.96,345.94z"/>
								</g>
								<g>
									<path class="st6" d="M472.43,341.84c1.94-1.6,3.88-3.2,5.82-4.79c0.28-0.23,0.55-0.45,0.83-0.68c0.41-0.34,0.35-1.05,0-1.4
										c-0.41-0.41-0.99-0.34-1.4,0c-1.94,1.6-3.88,3.2-5.82,4.79c-0.28,0.23-0.55,0.45-0.83,0.68c-0.41,0.34-0.35,1.05,0,1.4
										C471.43,342.25,472.01,342.18,472.43,341.84L472.43,341.84z"/>
								</g>
								<g>
									<path class="st6" d="M468.78,332.14c2.5,0.29,4.99,0.58,7.49,0.87c0.35,0.04,0.71,0.08,1.06,0.12
										c0.53,0.06,0.99-0.5,0.99-0.99c0-0.59-0.46-0.93-0.99-0.99c-2.5-0.29-4.99-0.58-7.49-0.87c-0.35-0.04-0.71-0.08-1.06-0.12
										c-0.53-0.06-0.99,0.5-0.99,0.99C467.79,331.73,468.25,332.08,468.78,332.14L468.78,332.14z"/>
								</g>
								<g>
									<path class="st6" d="M473.08,322.6c1.52,2,3.04,3.99,4.56,5.99c0.22,0.29,0.44,0.58,0.66,0.86
										c0.32,0.43,0.85,0.65,1.36,0.36c0.42-0.24,0.68-0.93,0.36-1.36c-1.52-2-3.04-3.99-4.56-5.99
										c-0.22-0.29-0.44-0.58-0.66-0.86c-0.32-0.43-0.85-0.65-1.36-0.36C473.02,321.49,472.75,322.17,473.08,322.6L473.08,322.6z"
										/>
								</g>
							</g>
						</g>
					</g>
					<g>
						
							<ellipse transform="matrix(0.2305 -0.9731 0.9731 0.2305 93.6504 791.2803)" class="st7" cx="547.14" cy="336.43" rx="15.05" ry="15.05"/>
						<path class="st9" d="M557.41,336.43c0,5.68-4.6,10.28-10.28,10.28c-5.68,0-10.28-4.6-10.28-10.28
							c0-5.68,4.6-10.28,10.28-10.28C552.81,326.15,557.41,330.75,557.41,336.43z"/>
						<g>
							<circle class="st27" cx="547.14" cy="336.43" r="3.12"/>
							<g>
								<g>
									<path class="st6" d="M546.41,326.69c0,1.84,0,3.68,0,5.52c0,0.26,0,0.52,0,0.78c0,0.93,1.45,0.93,1.45,0
										c0-1.84,0-3.68,0-5.52c0-0.26,0-0.52,0-0.78C547.86,325.76,546.41,325.75,546.41,326.69L546.41,326.69z"/>
								</g>
								<g>
									<path class="st6" d="M553.64,329.16c-1.33,1.28-2.65,2.55-3.98,3.83c-0.19,0.18-0.38,0.36-0.56,0.54
										c-0.27,0.26-0.28,0.76,0,1.03c0.29,0.27,0.73,0.28,1.03,0c1.33-1.28,2.65-2.55,3.98-3.83c0.19-0.18,0.38-0.36,0.56-0.54
										c0.27-0.26,0.28-0.76,0-1.03C554.37,328.89,553.93,328.88,553.64,329.16L553.64,329.16z"/>
								</g>
								<g>
									<path class="st6" d="M556.87,336.08c-1.84-0.07-3.67-0.14-5.51-0.21c-0.26-0.01-0.53-0.02-0.79-0.03
										c-0.93-0.04-0.93,1.41,0,1.45c1.84,0.07,3.67,0.14,5.51,0.21c0.26,0.01,0.53,0.02,0.79,0.03
										C557.8,337.56,557.8,336.11,556.87,336.08L556.87,336.08z"/>
								</g>
								<g>
									<path class="st6" d="M554.13,343.19c-1.23-1.38-2.45-2.75-3.68-4.13c-0.17-0.19-0.34-0.39-0.51-0.58
										c-0.26-0.29-0.76-0.27-1.03,0c-0.29,0.29-0.26,0.73,0,1.03c1.23,1.38,2.45,2.75,3.68,4.13c0.17,0.19,0.34,0.39,0.51,0.58
										c0.26,0.29,0.76,0.27,1.03,0C554.42,343.92,554.39,343.48,554.13,343.19L554.13,343.19z"/>
								</g>
								<g>
									<path class="st6" d="M547.11,346.14c0.14-1.83,0.28-3.66,0.42-5.49c0.02-0.26,0.04-0.53,0.06-0.79
										c0.03-0.39-0.36-0.73-0.73-0.73c-0.42,0-0.69,0.33-0.73,0.73c-0.14,1.83-0.28,3.66-0.42,5.49
										c-0.02,0.26-0.04,0.53-0.06,0.79c-0.03,0.39,0.36,0.73,0.73,0.73C546.81,346.86,547.08,346.53,547.11,346.14L547.11,346.14
										z"/>
								</g>
								<g>
									<path class="st6" d="M540.13,343.13c1.42-1.17,2.84-2.34,4.26-3.51c0.2-0.17,0.4-0.33,0.61-0.5c0.3-0.25,0.26-0.77,0-1.03
										c-0.3-0.3-0.72-0.25-1.03,0c-1.42,1.17-2.84,2.34-4.26,3.51c-0.2,0.17-0.4,0.33-0.61,0.5c-0.3,0.25-0.26,0.77,0,1.03
										C539.41,343.43,539.83,343.38,540.13,343.13L540.13,343.13z"/>
								</g>
								<g>
									<path class="st6" d="M537.46,336.03c1.83,0.21,3.66,0.42,5.48,0.64c0.26,0.03,0.52,0.06,0.78,0.09
										c0.39,0.05,0.73-0.37,0.73-0.73c0-0.43-0.33-0.68-0.73-0.73c-1.83-0.21-3.66-0.42-5.48-0.64
										c-0.26-0.03-0.52-0.06-0.78-0.09c-0.39-0.05-0.73,0.37-0.73,0.73C536.74,335.73,537.07,335.98,537.46,336.03L537.46,336.03
										z"/>
								</g>
								<g>
									<path class="st6" d="M540.61,329.04c1.11,1.46,2.22,2.92,3.34,4.38c0.16,0.21,0.32,0.42,0.48,0.63
										c0.24,0.31,0.63,0.48,0.99,0.26c0.31-0.18,0.5-0.68,0.26-0.99c-1.11-1.46-2.22-2.92-3.34-4.38
										c-0.16-0.21-0.32-0.42-0.48-0.63c-0.24-0.31-0.63-0.48-0.99-0.26C540.57,328.23,540.37,328.73,540.61,329.04L540.61,329.04
										z"/>
								</g>
							</g>
						</g>
					</g>
					<g>
						<path class="st7" d="M450.42,332.68c0,11.36-9.21,20.56-20.56,20.56c-11.36,0-20.56-9.21-20.56-20.56
							c0-11.36,9.21-20.56,20.56-20.56C441.22,312.12,450.42,321.33,450.42,332.68z"/>
						<path class="st9" d="M443.9,332.68c0,7.75-6.29,14.04-14.04,14.04c-7.75,0-14.04-6.28-14.04-14.04
							c0-7.75,6.28-14.04,14.04-14.04C437.61,318.64,443.9,324.93,443.9,332.68z"/>
						<g>
							<path class="st27" d="M434.12,332.68c0,2.35-1.91,4.26-4.26,4.26s-4.26-1.91-4.26-4.26c0-2.35,1.91-4.26,4.26-4.26
								S434.12,330.33,434.12,332.68z"/>
							<g>
								<g>
									<path class="st6" d="M428.87,319.38c0,2.51,0,5.03,0,7.54c0,0.36,0,0.71,0,1.07c0,1.28,1.98,1.28,1.98,0
										c0-2.51,0-5.03,0-7.54c0-0.36,0-0.71,0-1.07C430.85,318.1,428.87,318.1,428.87,319.38L428.87,319.38z"/>
								</g>
								<g>
									<path class="st6" d="M438.74,322.76c-1.81,1.74-3.62,3.49-5.44,5.23c-0.26,0.25-0.51,0.49-0.77,0.74
										c-0.37,0.36-0.39,1.04,0,1.4c0.4,0.37,1,0.38,1.4,0c1.81-1.74,3.62-3.49,5.44-5.23c0.26-0.25,0.51-0.49,0.77-0.74
										c0.37-0.36,0.39-1.04,0-1.4C439.74,322.39,439.14,322.37,438.74,322.76L438.74,322.76z"/>
								</g>
								<g>
									<path class="st6" d="M443.15,332.2c-2.51-0.1-5.01-0.19-7.52-0.29c-0.36-0.01-0.72-0.03-1.08-0.04
										c-1.28-0.05-1.27,1.93,0,1.98c2.51,0.1,5.01,0.19,7.52,0.29c0.36,0.01,0.72,0.03,1.08,0.04
										C444.43,334.23,444.43,332.25,443.15,332.2L443.15,332.2z"/>
								</g>
								<g>
									<path class="st6" d="M439.41,341.91c-1.67-1.88-3.35-3.76-5.02-5.64c-0.23-0.26-0.47-0.53-0.7-0.79
										c-0.36-0.4-1.04-0.36-1.4,0c-0.4,0.4-0.36,1,0,1.4c1.67,1.88,3.35,3.76,5.02,5.64c0.23,0.26,0.47,0.53,0.7,0.79
										c0.36,0.4,1.04,0.36,1.4,0C439.81,342.92,439.77,342.32,439.41,341.91L439.41,341.91z"/>
								</g>
								<g>
									<path class="st6" d="M429.83,345.94c0.19-2.5,0.39-5,0.58-7.51c0.03-0.36,0.06-0.72,0.08-1.08
										c0.04-0.53-0.48-0.99-0.99-0.99c-0.57,0-0.95,0.46-0.99,0.99c-0.19,2.5-0.39,5-0.58,7.51c-0.03,0.36-0.06,0.72-0.08,1.08
										c-0.04,0.53,0.48,0.99,0.99,0.99C429.41,346.94,429.79,346.48,429.83,345.94L429.83,345.94z"/>
								</g>
								<g>
									<path class="st6" d="M420.29,341.84c1.94-1.6,3.88-3.2,5.82-4.79c0.28-0.23,0.55-0.45,0.83-0.68c0.41-0.34,0.35-1.05,0-1.4
										c-0.41-0.41-0.99-0.34-1.4,0c-1.94,1.6-3.88,3.2-5.82,4.79c-0.28,0.23-0.55,0.45-0.83,0.68c-0.41,0.34-0.35,1.05,0,1.4
										C419.3,342.25,419.88,342.18,420.29,341.84L420.29,341.84z"/>
								</g>
								<g>
									<path class="st6" d="M416.65,332.14c2.5,0.29,4.99,0.58,7.49,0.87c0.35,0.04,0.71,0.08,1.06,0.12
										c0.53,0.06,0.99-0.5,0.99-0.99c0-0.59-0.46-0.93-0.99-0.99c-2.5-0.29-4.99-0.58-7.49-0.87c-0.35-0.04-0.71-0.08-1.06-0.12
										c-0.53-0.06-0.99,0.5-0.99,0.99C415.66,331.73,416.11,332.08,416.65,332.14L416.65,332.14z"/>
								</g>
								<g>
									<path class="st6" d="M420.95,322.6c1.52,2,3.04,3.99,4.56,5.99c0.22,0.29,0.44,0.58,0.66,0.86
										c0.32,0.43,0.85,0.65,1.36,0.36c0.42-0.24,0.68-0.93,0.36-1.36c-1.52-2-3.04-3.99-4.56-5.99
										c-0.22-0.29-0.44-0.58-0.66-0.86c-0.32-0.43-0.85-0.65-1.36-0.36C420.88,321.49,420.62,322.17,420.95,322.6L420.95,322.6z"
										/>
								</g>
							</g>
						</g>
					</g>
					<path class="st27" d="M455.96,294.82h-19.69c-2.47,0-4.47-2-4.47-4.47v-27.37c0-2.47,2-4.47,4.47-4.47h19.69
						c2.47,0,4.47,2,4.47,4.47v27.37C460.42,292.83,458.42,294.82,455.96,294.82z"/>
					<path class="st28" d="M515.9,279.52c0,0,32.44-5.24,36.66,17.22L515.9,279.52z"/>
				</g>
				<g>
					<rect x="273.72" y="262.74" class="st1" width="121.95" height="73.91"/>
					<path class="st21" d="M396.47,273.31H272.84c-2.92,0-5.28-2.37-5.28-5.28l0,0c0-2.92,2.37-5.28,5.28-5.28h123.63
						c2.92,0,5.28,2.37,5.28,5.28l0,0C401.75,270.95,399.39,273.31,396.47,273.31z"/>
					<polyline class="st7" points="273.72,336.65 303.22,273.31 334.65,340.68 361.9,272.43 395.67,336.65 					"/>
					<path class="st21" d="M396.47,345.96H272.84c-2.92,0-5.28-2.37-5.28-5.28l0,0c0-2.92,2.37-5.28,5.28-5.28h123.63
						c2.92,0,5.28,2.37,5.28,5.28l0,0C401.75,343.6,399.39,345.96,396.47,345.96z"/>
					<g>
						<g>
							<path class="st6" d="M302.43,269.94c0.01,0.62,0.02,1.24,0.02,1.86c0.02,1.69,0.04,3.38,0.06,5.07
								c0.03,2.49,0.06,4.97,0.09,7.46c0.04,3.04,0.08,6.09,0.12,9.13c0.04,3.33,0.08,6.67,0.13,10.01
								c0.04,3.35,0.08,6.71,0.13,10.06c0.04,3.13,0.08,6.25,0.12,9.38c0.03,2.65,0.07,5.31,0.1,7.96c0.02,1.91,0.05,3.82,0.07,5.72
								c0.01,0.9,0.01,1.8,0.03,2.7c0,0.04,0,0.08,0,0.12c0.02,1.21,1.89,1.21,1.87,0c-0.01-0.62-0.02-1.24-0.02-1.86
								c-0.02-1.69-0.04-3.38-0.06-5.07c-0.03-2.49-0.06-4.97-0.09-7.46c-0.04-3.04-0.08-6.09-0.12-9.13
								c-0.04-3.34-0.08-6.67-0.13-10.01c-0.04-3.35-0.09-6.71-0.13-10.06c-0.04-3.13-0.08-6.25-0.12-9.38
								c-0.03-2.65-0.07-5.31-0.1-7.96c-0.02-1.91-0.05-3.82-0.07-5.72c-0.01-0.9-0.01-1.8-0.03-2.7c0-0.04,0-0.08,0-0.12
								C304.29,268.73,302.41,268.73,302.43,269.94L302.43,269.94z"/>
						</g>
						<path class="st6" d="M308.36,269.94c0,2.76-2.23,4.99-4.99,4.99c-2.76,0-4.99-2.23-4.99-4.99c0-2.76,2.23-4.99,4.99-4.99
							C306.12,264.95,308.36,267.18,308.36,269.94z"/>
						<path class="st6" d="M308.8,338.51c0,2.76-2.23,4.99-4.99,4.99c-2.76,0-4.99-2.23-4.99-4.99c0-2.76,2.23-4.99,4.99-4.99
							C306.56,333.52,308.8,335.75,308.8,338.51z"/>
					</g>
					<g>
						<g>
							<path class="st6" d="M360.76,269.94c0.01,0.62,0.02,1.24,0.02,1.86c0.02,1.69,0.04,3.38,0.06,5.07
								c0.03,2.49,0.06,4.97,0.09,7.46c0.04,3.04,0.08,6.09,0.12,9.13c0.04,3.33,0.08,6.67,0.13,10.01
								c0.04,3.35,0.09,6.71,0.13,10.06c0.04,3.13,0.08,6.25,0.12,9.38c0.03,2.65,0.07,5.31,0.1,7.96c0.02,1.91,0.05,3.82,0.07,5.72
								c0.01,0.9,0.01,1.8,0.03,2.7c0,0.04,0,0.08,0,0.12c0.02,1.21,1.89,1.21,1.87,0c-0.01-0.62-0.02-1.24-0.02-1.86
								c-0.02-1.69-0.04-3.38-0.06-5.07c-0.03-2.49-0.06-4.97-0.09-7.46c-0.04-3.04-0.08-6.09-0.12-9.13
								c-0.04-3.34-0.08-6.67-0.13-10.01c-0.04-3.35-0.08-6.71-0.13-10.06c-0.04-3.13-0.08-6.25-0.12-9.38
								c-0.03-2.65-0.07-5.31-0.1-7.96c-0.02-1.91-0.05-3.82-0.07-5.72c-0.01-0.9-0.01-1.8-0.03-2.7c0-0.04,0-0.08,0-0.12
								C362.62,268.73,360.74,268.73,360.76,269.94L360.76,269.94z"/>
						</g>
						<path class="st6" d="M366.69,269.94c0,2.76-2.23,4.99-4.99,4.99c-2.76,0-4.99-2.23-4.99-4.99c0-2.76,2.23-4.99,4.99-4.99
							C364.45,264.95,366.69,267.18,366.69,269.94z"/>
						<path class="st6" d="M367.13,338.51c0,2.76-2.23,4.99-4.99,4.99s-4.99-2.23-4.99-4.99c0-2.76,2.23-4.99,4.99-4.99
							S367.13,335.75,367.13,338.51z"/>
					</g>
					<g>
						<g>
							<path class="st6" d="M333.49,269.94c0.01,0.62,0.02,1.24,0.02,1.86c0.02,1.69,0.04,3.38,0.06,5.07
								c0.03,2.49,0.06,4.97,0.09,7.46c0.04,3.04,0.08,6.09,0.12,9.13c0.04,3.33,0.08,6.67,0.13,10.01
								c0.04,3.35,0.09,6.71,0.13,10.06c0.04,3.13,0.08,6.25,0.12,9.38c0.03,2.65,0.07,5.31,0.1,7.96c0.02,1.91,0.05,3.82,0.07,5.72
								c0.01,0.9,0.01,1.8,0.03,2.7c0,0.04,0,0.08,0,0.12c0.02,1.21,1.89,1.21,1.87,0c-0.01-0.62-0.02-1.24-0.02-1.86
								c-0.02-1.69-0.04-3.38-0.06-5.07c-0.03-2.49-0.06-4.97-0.09-7.46c-0.04-3.04-0.08-6.09-0.12-9.13
								c-0.04-3.34-0.08-6.67-0.13-10.01c-0.04-3.35-0.08-6.71-0.13-10.06c-0.04-3.13-0.08-6.25-0.12-9.38
								c-0.03-2.65-0.07-5.31-0.1-7.96c-0.02-1.91-0.05-3.82-0.07-5.72c-0.01-0.9-0.01-1.8-0.03-2.7c0-0.04,0-0.08,0-0.12
								C335.35,268.73,333.48,268.73,333.49,269.94L333.49,269.94z"/>
						</g>
						<path class="st6" d="M339.42,269.94c0,2.76-2.23,4.99-4.99,4.99s-4.99-2.23-4.99-4.99c0-2.76,2.23-4.99,4.99-4.99
							S339.42,267.18,339.42,269.94z"/>
						<path class="st6" d="M339.86,338.51c0,2.76-2.23,4.99-4.99,4.99c-2.76,0-4.99-2.23-4.99-4.99c0-2.76,2.23-4.99,4.99-4.99
							C337.63,333.52,339.86,335.75,339.86,338.51z"/>
					</g>
				</g>
			</g>
			<ellipse class="st29" cx="315.12" cy="202.85" rx="207.61" ry="166.03"/>
		</g>
		<g>
			<g>
				<path class="st30" d="M367.57,63.83c1.31,0,2.56-1.15,2.5-2.5c-0.06-1.35-1.1-2.5-2.5-2.5c-1.31,0-2.56,1.15-2.5,2.5
					C365.14,62.68,366.17,63.83,367.57,63.83L367.57,63.83z"/>
			</g>
			<g>
				<path class="st30" d="M451.14,238.88c1.31,0,2.56-1.15,2.5-2.5c-0.06-1.35-1.1-2.5-2.5-2.5c-1.31,0-2.56,1.15-2.5,2.5
					C448.7,237.74,449.74,238.88,451.14,238.88L451.14,238.88z"/>
			</g>
			<g>
				<path class="st30" d="M252.33,187.86c1.31,0,2.56-1.15,2.5-2.5c-0.06-1.35-1.1-2.5-2.5-2.5c-1.31,0-2.56,1.15-2.5,2.5
					C249.9,186.72,250.94,187.86,252.33,187.86L252.33,187.86z"/>
			</g>
			<g>
				<path class="st30" d="M189.88,268.79c1.31,0,2.56-1.15,2.5-2.5c-0.06-1.35-1.1-2.5-2.5-2.5c-1.31,0-2.56,1.15-2.5,2.5
					C187.44,267.65,188.48,268.79,189.88,268.79L189.88,268.79z"/>
			</g>
			<g>
				<path class="st30" d="M327.11,266.15c1.31,0,2.56-1.15,2.5-2.5c-0.06-1.35-1.1-2.5-2.5-2.5c-1.31,0-2.56,1.15-2.5,2.5
					C324.67,265.01,325.71,266.15,327.11,266.15L327.11,266.15z"/>
			</g>
			<g>
				<path class="st30" d="M383.41,342.68c1.31,0,2.56-1.15,2.5-2.5c-0.06-1.35-1.1-2.5-2.5-2.5c-1.31,0-2.56,1.15-2.5,2.5
					C380.97,341.54,382.01,342.68,383.41,342.68L383.41,342.68z"/>
			</g>
			<g>
				<path class="st30" d="M552.3,296.06c1.31,0,2.56-1.15,2.5-2.5c-0.06-1.35-1.1-2.5-2.5-2.5c-1.31,0-2.56,1.15-2.5,2.5
					C549.87,294.92,550.9,296.06,552.3,296.06L552.3,296.06z"/>
			</g>
			<g>
				<path class="st30" d="M165.25,345.32c1.31,0,2.56-1.15,2.5-2.5c-0.06-1.35-1.1-2.5-2.5-2.5c-1.31,0-2.56,1.15-2.5,2.5
					C162.81,344.18,163.85,345.32,165.25,345.32L165.25,345.32z"/>
			</g>
			<g>
				<path class="st30" d="M287.52,73.46c1.74,0,3.41-1.53,3.33-3.33c-0.08-1.8-1.46-3.33-3.33-3.33c-1.74,0-3.41,1.53-3.33,3.33
					C284.27,71.93,285.66,73.46,287.52,73.46L287.52,73.46z"/>
			</g>
			<g>
				<path class="st30" d="M480.17,173.74c1.74,0,3.41-1.53,3.33-3.33c-0.08-1.8-1.46-3.33-3.33-3.33c-1.74,0-3.41,1.53-3.33,3.33
					C476.92,172.21,478.3,173.74,480.17,173.74L480.17,173.74z"/>
			</g>
			<g>
				<path class="st30" d="M350.86,218.6c1.74,0,3.41-1.53,3.33-3.33c-0.08-1.8-1.46-3.33-3.33-3.33c-1.74,0-3.41,1.53-3.33,3.33
					C347.61,217.08,348.99,218.6,350.86,218.6L350.86,218.6z"/>
			</g>
			<g>
				<path class="st30" d="M260.25,269.62c1.74,0,3.41-1.53,3.33-3.33c-0.08-1.8-1.46-3.33-3.33-3.33c-1.74,0-3.41,1.53-3.33,3.33
					C257,268.1,258.39,269.62,260.25,269.62L260.25,269.62z"/>
			</g>
			<g>
				<path class="st30" d="M171.36,153.69c1.74,0,3.41-1.53,3.33-3.33c-0.08-1.8-1.46-3.33-3.33-3.33c-1.74,0-3.41,1.53-3.33,3.33
					C168.11,152.16,169.49,153.69,171.36,153.69L171.36,153.69z"/>
			</g>
			<g>
				<path class="st30" d="M207.47,150.87c1.74,0,3.41-1.53,3.33-3.33c-0.08-1.8-1.46-3.33-3.33-3.33c-1.74,0-3.41,1.53-3.33,3.33
					C204.22,149.34,205.61,150.87,207.47,150.87L207.47,150.87z"/>
			</g>
			<g>
				<path class="st30" d="M555.82,244.11c1.74,0,3.41-1.53,3.33-3.33c-0.08-1.8-1.46-3.33-3.33-3.33c-1.74,0-3.41,1.53-3.33,3.33
					C552.57,242.59,553.95,244.11,555.82,244.11L555.82,244.11z"/>
			</g>
			<g>
				<path class="st30" d="M262.89,344.39c1.74,0,3.41-1.53,3.33-3.33c-0.08-1.8-1.46-3.33-3.33-3.33c-1.74,0-3.41,1.53-3.33,3.33
					C259.64,342.87,261.02,344.39,262.89,344.39L262.89,344.39z"/>
			</g>
			<g>
				<path class="st30" d="M112.47,301.29c1.74,0,3.41-1.53,3.33-3.33c-0.08-1.8-1.46-3.33-3.33-3.33c-1.74,0-3.41,1.53-3.33,3.33
					C109.22,299.77,110.6,301.29,112.47,301.29L112.47,301.29z"/>
			</g>
			<g>
				<path class="st30" d="M364.05,134.15c1.74,0,3.41-1.53,3.33-3.33c-0.08-1.8-1.46-3.33-3.33-3.33c-1.74,0-3.41,1.53-3.33,3.33
					C360.8,132.63,362.19,134.15,364.05,134.15L364.05,134.15z"/>
			</g>
			<g>
				<path class="st30" d="M402.76,295.13c1.74,0,3.41-1.53,3.33-3.33c-0.08-1.8-1.46-3.33-3.33-3.33c-1.74,0-3.41,1.53-3.33,3.33
					C399.51,293.61,400.89,295.13,402.76,295.13L402.76,295.13z"/>
			</g>
			<g>
				<path class="st30" d="M202.19,196.66c1.31,0,2.56-1.15,2.5-2.5c-0.06-1.35-1.1-2.5-2.5-2.5c-1.31,0-2.56,1.15-2.5,2.5
					C199.76,195.51,200.79,196.66,202.19,196.66L202.19,196.66z"/>
			</g>
			<g>
				<path class="st30" d="M205.71,296.06c1.31,0,2.56-1.15,2.5-2.5c-0.06-1.35-1.1-2.5-2.5-2.5c-1.31,0-2.56,1.15-2.5,2.5
					C203.28,294.92,204.31,296.06,205.71,296.06L205.71,296.06z"/>
			</g>
			<g>
				<path class="st30" d="M439.04,106.18c1.31,0,2.56-1.15,2.5-2.5c-0.06-1.35-1.1-2.5-2.5-2.5c-1.31,0-2.56,1.15-2.5,2.5
					C436.6,105.03,437.64,106.18,439.04,106.18L439.04,106.18z"/>
			</g>
			<g>
				<path class="st30" d="M501.28,249.44c1.31,0,2.56-1.15,2.5-2.5c-0.06-1.35-1.1-2.5-2.5-2.5c-1.31,0-2.56,1.15-2.5,2.5
					C498.85,248.29,499.88,249.44,501.28,249.44L501.28,249.44z"/>
			</g>
			<g>
				<path class="st30" d="M416.83,251.2c1.31,0,2.56-1.15,2.5-2.5c-0.06-1.35-1.1-2.5-2.5-2.5c-1.31,0-2.56,1.15-2.5,2.5
					C414.4,250.05,415.43,251.2,416.83,251.2L416.83,251.2z"/>
			</g>
			<g>
				<path class="st30" d="M343.82,295.18c1.31,0,2.56-1.15,2.5-2.5c-0.06-1.35-1.1-2.5-2.5-2.5c-1.31,0-2.56,1.15-2.5,2.5
					C341.38,294.04,342.42,295.18,343.82,295.18L343.82,295.18z"/>
			</g>
			<g>
				<path class="st30" d="M295.44,201.06c1.31,0,2.56-1.15,2.5-2.5c-0.06-1.35-1.1-2.5-2.5-2.5c-1.31,0-2.56,1.15-2.5,2.5
					C293,199.91,294.04,201.06,295.44,201.06L295.44,201.06z"/>
			</g>
			<g>
				<path class="st30" d="M268.17,120.13c1.31,0,2.56-1.15,2.5-2.5c-0.06-1.35-1.1-2.5-2.5-2.5c-1.31,0-2.56,1.15-2.5,2.5
					C265.73,118.98,266.77,120.13,268.17,120.13L268.17,120.13z"/>
			</g>
			<g>
				<path class="st30" d="M477.53,294.3c1.31,0,2.56-1.15,2.5-2.5c-0.06-1.35-1.1-2.5-2.5-2.5c-1.31,0-2.56,1.15-2.5,2.5
					C475.09,293.16,476.13,294.3,477.53,294.3L477.53,294.3z"/>
			</g>
		</g>
	</g>
</g>
</svg>
