<?xml version="1.0" encoding="utf-8"?>
<!-- Generator: Adobe Illustrator 24.0.2, SVG Export Plug-In . SVG Version: 6.00 Build 0)  -->
<svg version="1.1" id="OBJECTS" xmlns="http://www.w3.org/2000/svg" xmlns:xlink="http://www.w3.org/1999/xlink" x="0px" y="0px"
	 viewBox="0 0 1977.52 628.13" style="enable-background:new 0 0 1977.52 628.13;" xml:space="preserve">
<style type="text/css">
	.st0{fill:#FFFFFF;}
	.st1{fill:#A1262A;}
	.st2{fill:#F4D7A1;}
	.st3{fill:#1A2130;}
	.st4{fill:#417368;}
	.st5{fill:#E9B35B;}
	.st6{fill:#300C18;}
	.st7{fill:#C62C2E;}
	.st8{fill:#D08F4F;}
	.st9{fill:url(#SVGID_1_);}
	.st10{fill:url(#SVGID_2_);}
	.st11{fill:url(#SVGID_3_);}
	.st12{fill:#366055;}
	.st13{fill:url(#SVGID_4_);}
	.st14{fill:url(#SVGID_5_);}
	.st15{fill:url(#SVGID_6_);}
</style>
<g>
	<g>
		<g>
			<path class="st0" d="M400.16,590.31c-2.61,0-5.11,2.29-4.99,4.99c0.12,2.7,2.19,4.99,4.99,4.99c2.61,0,5.11-2.29,4.99-4.99
				C405.03,592.6,402.96,590.31,400.16,590.31L400.16,590.31z"/>
		</g>
		<g>
			<path class="st0" d="M233.18,240.53c-2.61,0-5.11,2.29-4.99,4.99c0.12,2.7,2.19,4.99,4.99,4.99c2.61,0,5.11-2.29,4.99-4.99
				C238.05,242.81,235.97,240.53,233.18,240.53L233.18,240.53z"/>
		</g>
		<g>
			<path class="st0" d="M630.42,342.47c-2.61,0-5.11,2.29-4.99,4.99c0.12,2.7,2.19,4.99,4.99,4.99c2.61,0,5.11-2.29,4.99-4.99
				C635.29,344.76,633.22,342.47,630.42,342.47L630.42,342.47z"/>
		</g>
		<g>
			<path class="st0" d="M755.22,180.76c-2.61,0-5.11,2.29-4.99,4.99c0.12,2.7,2.19,4.99,4.99,4.99c2.61,0,5.11-2.29,4.99-4.99
				C760.09,183.05,758.02,180.76,755.22,180.76L755.22,180.76z"/>
		</g>
		<g>
			<path class="st0" d="M481.02,186.04c-2.61,0-5.11,2.29-4.99,4.99c0.12,2.7,2.19,4.99,4.99,4.99c2.61,0,5.11-2.29,4.99-4.99
				C485.89,188.32,483.81,186.04,481.02,186.04L481.02,186.04z"/>
		</g>
		<g>
			<path class="st0" d="M368.52,33.11c-2.61,0-5.11,2.29-4.99,4.99c0.12,2.7,2.19,4.99,4.99,4.99c2.61,0,5.11-2.29,4.99-4.99
				C373.39,35.4,371.32,33.11,368.52,33.11L368.52,33.11z"/>
		</g>
		<g>
			<path class="st0" d="M31.04,126.27c-2.61,0-5.11,2.29-4.99,4.99c0.12,2.7,2.19,4.99,4.99,4.99c2.61,0,5.11-2.29,4.99-4.99
				C35.91,128.56,33.84,126.27,31.04,126.27L31.04,126.27z"/>
		</g>
		<g>
			<path class="st0" d="M804.44,27.84c-2.61,0-5.11,2.29-4.99,4.99c0.12,2.7,2.19,4.99,4.99,4.99c2.61,0,5.11-2.29,4.99-4.99
				C809.31,30.13,807.24,27.84,804.44,27.84L804.44,27.84z"/>
		</g>
		<g>
			<path class="st0" d="M560.12,571.07c-3.48,0-6.81,3.06-6.65,6.65c0.16,3.6,2.92,6.65,6.65,6.65c3.48,0,6.81-3.06,6.65-6.65
				C566.61,574.12,563.84,571.07,560.12,571.07L560.12,571.07z"/>
		</g>
		<g>
			<path class="st0" d="M175.17,370.69c-3.48,0-6.81,3.06-6.65,6.65c0.16,3.6,2.92,6.65,6.65,6.65c3.48,0,6.81-3.06,6.65-6.65
				C181.66,373.74,178.9,370.69,175.17,370.69L175.17,370.69z"/>
		</g>
		<g>
			<path class="st0" d="M433.56,281.05c-3.48,0-6.81,3.06-6.65,6.65c0.16,3.6,2.92,6.65,6.65,6.65c3.48,0,6.81-3.06,6.65-6.65
				C440.05,284.1,437.29,281.05,433.56,281.05L433.56,281.05z"/>
		</g>
		<g>
			<path class="st0" d="M614.61,179.1c-3.48,0-6.81,3.06-6.65,6.65c0.16,3.6,2.92,6.65,6.65,6.65c3.48,0,6.81-3.06,6.65-6.65
				C621.1,182.15,618.33,179.1,614.61,179.1L614.61,179.1z"/>
		</g>
		<g>
			<path class="st0" d="M792.23,410.76c-3.48,0-6.81,3.06-6.65,6.65c0.16,3.6,2.92,6.65,6.65,6.65c3.48,0,6.81-3.06,6.65-6.65
				C798.72,413.81,795.96,410.76,792.23,410.76L792.23,410.76z"/>
		</g>
		<g>
			<path class="st0" d="M720.07,416.39c-3.48,0-6.81,3.06-6.65,6.65c0.16,3.6,2.92,6.65,6.65,6.65c3.48,0,6.81-3.06,6.65-6.65
				C726.56,419.44,723.8,416.39,720.07,416.39L720.07,416.39z"/>
		</g>
		<g>
			<path class="st0" d="M24.01,230.07c-3.48,0-6.81,3.06-6.65,6.65c0.16,3.6,2.92,6.65,6.65,6.65c3.48,0,6.81-3.06,6.65-6.65
				C30.5,233.12,27.74,230.07,24.01,230.07L24.01,230.07z"/>
		</g>
		<g>
			<path class="st0" d="M609.33,29.69c-3.48,0-6.81,3.06-6.65,6.65c0.16,3.6,2.92,6.65,6.65,6.65c3.48,0,6.81-3.06,6.65-6.65
				C615.82,32.74,613.06,29.69,609.33,29.69L609.33,29.69z"/>
		</g>
		<g>
			<path class="st0" d="M909.9,115.82c-3.48,0-6.81,3.06-6.65,6.65c0.16,3.6,2.92,6.65,6.65,6.65c3.48,0,6.81-3.06,6.65-6.65
				C916.39,118.87,913.63,115.82,909.9,115.82L909.9,115.82z"/>
		</g>
		<g>
			<path class="st0" d="M407.19,449.79c-3.48,0-6.81,3.06-6.65,6.65c0.16,3.6,2.92,6.65,6.65,6.65c3.48,0,6.81-3.06,6.65-6.65
				C413.68,452.84,410.92,449.79,407.19,449.79L407.19,449.79z"/>
		</g>
		<g>
			<path class="st0" d="M329.85,128.13c-3.48,0-6.81,3.06-6.65,6.65c0.16,3.6,2.92,6.65,6.65,6.65c3.48,0,6.81-3.06,6.65-6.65
				C336.34,131.17,333.58,128.13,329.85,128.13L329.85,128.13z"/>
		</g>
		<g>
			<path class="st0" d="M730.62,324.9c-2.61,0-5.11,2.29-4.99,4.99c0.12,2.7,2.19,4.99,4.99,4.99c2.61,0,5.11-2.29,4.99-4.99
				C735.48,327.18,733.41,324.9,730.62,324.9L730.62,324.9z"/>
		</g>
		<g>
			<path class="st0" d="M723.58,126.27c-2.61,0-5.11,2.29-4.99,4.99c0.12,2.7,2.19,4.99,4.99,4.99c2.61,0,5.11-2.29,4.99-4.99
				C728.45,128.56,726.38,126.27,723.58,126.27L723.58,126.27z"/>
		</g>
		<g>
			<path class="st0" d="M257.36,505.69c-2.61,0-5.11,2.29-4.99,4.99c0.12,2.7,2.19,4.99,4.99,4.99c2.61,0,5.11-2.29,4.99-4.99
				C262.23,507.98,260.16,505.69,257.36,505.69L257.36,505.69z"/>
		</g>
		<g>
			<path class="st0" d="M132.99,219.43c-2.61,0-5.11,2.29-4.99,4.99c0.12,2.7,2.19,4.99,4.99,4.99c2.61,0,5.11-2.29,4.99-4.99
				C137.86,221.72,135.78,219.43,132.99,219.43L132.99,219.43z"/>
		</g>
		<g>
			<path class="st0" d="M301.73,215.92c-2.61,0-5.11,2.29-4.99,4.99c0.12,2.7,2.19,4.99,4.99,4.99c2.61,0,5.11-2.29,4.99-4.99
				C306.6,218.2,304.53,215.92,301.73,215.92L301.73,215.92z"/>
		</g>
		<g>
			<path class="st0" d="M447.62,128.03c-2.61,0-5.11,2.29-4.99,4.99c0.12,2.7,2.19,4.99,4.99,4.99c2.61,0,5.11-2.29,4.99-4.99
				C452.49,130.32,450.42,128.03,447.62,128.03L447.62,128.03z"/>
		</g>
		<g>
			<path class="st0" d="M544.3,316.11c-2.61,0-5.11,2.29-4.99,4.99c0.12,2.7,2.19,4.99,4.99,4.99c2.61,0,5.11-2.29,4.99-4.99
				C549.16,318.39,547.09,316.11,544.3,316.11L544.3,316.11z"/>
		</g>
		<g>
			<path class="st0" d="M598.79,477.82c-2.61,0-5.11,2.29-4.99,4.99c0.12,2.7,2.19,4.99,4.99,4.99c2.61,0,5.11-2.29,4.99-4.99
				C603.65,480.1,601.58,477.82,598.79,477.82L598.79,477.82z"/>
		</g>
		<g>
			<path class="st0" d="M180.45,129.79c-2.61,0-5.11,2.29-4.99,4.99c0.12,2.7,2.19,4.99,4.99,4.99c2.61,0,5.11-2.29,4.99-4.99
				C185.31,132.07,183.24,129.79,180.45,129.79L180.45,129.79z"/>
		</g>
	</g>
	<g>
		<g>
			<g>
				<path class="st0" d="M1438.2,590.44c-2.61,0-5.11,2.29-4.99,4.99c0.12,2.7,2.19,4.99,4.99,4.99c2.61,0,5.11-2.29,4.99-4.99
					C1443.07,592.73,1441,590.44,1438.2,590.44L1438.2,590.44z"/>
			</g>
			<g>
				<path class="st0" d="M1271.22,240.66c-2.61,0-5.11,2.29-4.99,4.99c0.12,2.7,2.19,4.99,4.99,4.99c2.61,0,5.11-2.29,4.99-4.99
					C1276.08,242.94,1274.01,240.66,1271.22,240.66L1271.22,240.66z"/>
			</g>
			<g>
				<path class="st0" d="M1668.46,342.6c-2.61,0-5.11,2.29-4.99,4.99c0.12,2.7,2.19,4.99,4.99,4.99c2.61,0,5.11-2.29,4.99-4.99
					C1673.33,344.89,1671.26,342.6,1668.46,342.6L1668.46,342.6z"/>
			</g>
			<g>
				<path class="st0" d="M1793.26,180.89c-2.61,0-5.11,2.29-4.99,4.99c0.12,2.7,2.19,4.99,4.99,4.99c2.61,0,5.11-2.29,4.99-4.99
					C1798.13,183.18,1796.06,180.89,1793.26,180.89L1793.26,180.89z"/>
			</g>
			<g>
				<path class="st0" d="M1519.05,186.17c-2.61,0-5.11,2.29-4.99,4.99c0.12,2.7,2.19,4.99,4.99,4.99c2.61,0,5.11-2.29,4.99-4.99
					C1523.92,188.45,1521.85,186.17,1519.05,186.17L1519.05,186.17z"/>
			</g>
			<g>
				<path class="st0" d="M1406.56,33.24c-2.61,0-5.11,2.29-4.99,4.99c0.12,2.7,2.19,4.99,4.99,4.99c2.61,0,5.11-2.29,4.99-4.99
					C1411.43,35.53,1409.36,33.24,1406.56,33.24L1406.56,33.24z"/>
			</g>
			<g>
				<path class="st0" d="M1069.08,126.4c-2.61,0-5.11,2.29-4.99,4.99c0.12,2.7,2.19,4.99,4.99,4.99c2.61,0,5.11-2.29,4.99-4.99
					C1073.94,128.69,1071.87,126.4,1069.08,126.4L1069.08,126.4z"/>
			</g>
			<g>
				<path class="st0" d="M1842.48,27.97c-2.61,0-5.11,2.29-4.99,4.99c0.12,2.7,2.19,4.99,4.99,4.99c2.61,0,5.11-2.29,4.99-4.99
					C1847.34,30.26,1845.27,27.97,1842.48,27.97L1842.48,27.97z"/>
			</g>
			<g>
				<path class="st0" d="M1598.15,571.2c-3.48,0-6.81,3.06-6.65,6.65c0.16,3.6,2.92,6.65,6.65,6.65c3.48,0,6.81-3.06,6.65-6.65
					C1604.64,574.25,1601.88,571.2,1598.15,571.2L1598.15,571.2z"/>
			</g>
			<g>
				<path class="st0" d="M1213.21,370.82c-3.48,0-6.81,3.06-6.65,6.65c0.16,3.6,2.92,6.65,6.65,6.65c3.48,0,6.81-3.06,6.65-6.65
					C1219.7,373.87,1216.94,370.82,1213.21,370.82L1213.21,370.82z"/>
			</g>
			<g>
				<path class="st0" d="M1471.6,281.18c-3.48,0-6.81,3.06-6.65,6.65c0.16,3.6,2.92,6.65,6.65,6.65c3.48,0,6.81-3.06,6.65-6.65
					C1478.09,284.23,1475.33,281.18,1471.6,281.18L1471.6,281.18z"/>
			</g>
			<g>
				<path class="st0" d="M1652.64,179.23c-3.48,0-6.81,3.06-6.65,6.65c0.16,3.6,2.92,6.65,6.65,6.65c3.48,0,6.81-3.06,6.65-6.65
					C1659.13,182.28,1656.37,179.23,1652.64,179.23L1652.64,179.23z"/>
			</g>
			<g>
				<path class="st0" d="M1830.27,410.89c-3.48,0-6.81,3.06-6.65,6.65c0.16,3.6,2.92,6.65,6.65,6.65c3.48,0,6.81-3.06,6.65-6.65
					C1836.76,413.94,1834,410.89,1830.27,410.89L1830.27,410.89z"/>
			</g>
			<g>
				<path class="st0" d="M1758.11,416.52c-3.48,0-6.81,3.06-6.65,6.65c0.16,3.6,2.92,6.65,6.65,6.65c3.48,0,6.81-3.06,6.65-6.65
					C1764.6,419.57,1761.83,416.52,1758.11,416.52L1758.11,416.52z"/>
			</g>
			<g>
				<path class="st0" d="M1062.05,230.2c-3.48,0-6.81,3.06-6.65,6.65c0.16,3.6,2.92,6.65,6.65,6.65c3.48,0,6.81-3.06,6.65-6.65
					C1068.54,233.25,1065.77,230.2,1062.05,230.2L1062.05,230.2z"/>
			</g>
			<g>
				<path class="st0" d="M1647.37,29.82c-3.48,0-6.81,3.06-6.65,6.65c0.16,3.6,2.92,6.65,6.65,6.65c3.48,0,6.81-3.06,6.65-6.65
					C1653.86,32.87,1651.1,29.82,1647.37,29.82L1647.37,29.82z"/>
			</g>
			<g>
				<path class="st0" d="M1947.94,115.95c-3.48,0-6.81,3.06-6.65,6.65c0.16,3.6,2.92,6.65,6.65,6.65c3.48,0,6.81-3.06,6.65-6.65
					C1954.43,119,1951.67,115.95,1947.94,115.95L1947.94,115.95z"/>
			</g>
			<g>
				<path class="st0" d="M1445.23,449.92c-3.48,0-6.81,3.06-6.65,6.65c0.16,3.6,2.92,6.65,6.65,6.65c3.48,0,6.81-3.06,6.65-6.65
					C1451.72,452.97,1448.96,449.92,1445.23,449.92L1445.23,449.92z"/>
			</g>
			<g>
				<path class="st0" d="M1367.89,128.26c-3.48,0-6.81,3.06-6.65,6.65c0.16,3.6,2.92,6.65,6.65,6.65c3.48,0,6.81-3.06,6.65-6.65
					C1374.38,131.3,1371.62,128.26,1367.89,128.26L1367.89,128.26z"/>
			</g>
			<g>
				<path class="st0" d="M1768.65,325.03c-2.61,0-5.11,2.29-4.99,4.99c0.12,2.7,2.19,4.99,4.99,4.99c2.61,0,5.11-2.29,4.99-4.99
					C1773.52,327.31,1771.45,325.03,1768.65,325.03L1768.65,325.03z"/>
			</g>
			<g>
				<path class="st0" d="M1761.62,126.4c-2.61,0-5.11,2.29-4.99,4.99c0.12,2.7,2.19,4.99,4.99,4.99c2.61,0,5.11-2.29,4.99-4.99
					C1766.49,128.69,1764.42,126.4,1761.62,126.4L1761.62,126.4z"/>
			</g>
			<g>
				<path class="st0" d="M1295.4,505.82c-2.61,0-5.11,2.29-4.99,4.99c0.12,2.7,2.19,4.99,4.99,4.99c2.61,0,5.11-2.29,4.99-4.99
					C1300.26,508.11,1298.19,505.82,1295.4,505.82L1295.4,505.82z"/>
			</g>
			<g>
				<path class="st0" d="M1171.02,219.56c-2.61,0-5.11,2.29-4.99,4.99c0.12,2.7,2.19,4.99,4.99,4.99c2.61,0,5.11-2.29,4.99-4.99
					C1175.89,221.85,1173.82,219.56,1171.02,219.56L1171.02,219.56z"/>
			</g>
			<g>
				<path class="st0" d="M1339.77,216.05c-2.61,0-5.11,2.29-4.99,4.99c0.12,2.7,2.19,4.99,4.99,4.99c2.61,0,5.11-2.29,4.99-4.99
					C1344.63,218.33,1342.56,216.05,1339.77,216.05L1339.77,216.05z"/>
			</g>
			<g>
				<path class="st0" d="M1485.66,128.16c-2.61,0-5.11,2.29-4.99,4.99c0.12,2.7,2.19,4.99,4.99,4.99c2.61,0,5.11-2.29,4.99-4.99
					C1490.53,130.45,1488.45,128.16,1485.66,128.16L1485.66,128.16z"/>
			</g>
			<g>
				<path class="st0" d="M1582.33,316.24c-2.61,0-5.11,2.29-4.99,4.99c0.12,2.7,2.19,4.99,4.99,4.99c2.61,0,5.11-2.29,4.99-4.99
					C1587.2,318.52,1585.13,316.24,1582.33,316.24L1582.33,316.24z"/>
			</g>
			<g>
				<path class="st0" d="M1636.82,477.95c-2.61,0-5.11,2.29-4.99,4.99c0.12,2.7,2.19,4.99,4.99,4.99c2.61,0,5.11-2.29,4.99-4.99
					C1641.69,480.23,1639.62,477.95,1636.82,477.95L1636.82,477.95z"/>
			</g>
			<g>
				<path class="st0" d="M1218.48,129.92c-2.61,0-5.11,2.29-4.99,4.99c0.12,2.7,2.19,4.99,4.99,4.99c2.61,0,5.11-2.29,4.99-4.99
					C1223.35,132.2,1221.28,129.92,1218.48,129.92L1218.48,129.92z"/>
			</g>
		</g>
	</g>
</g>
<g>
	<g>
		<g>
			<g>
				<path class="st1" d="M1561.58,569.54c-2.99-0.29-5.93-1.03-8.76-2.2l-2.81-1.16l1.99-2.3c4.97-5.74,7.98-12.77,8.72-20.33
					c0.84-8.61-1.41-17.27-6.34-24.37l-1.75-2.53l2.96-0.84c2.61-0.74,5.3-1.12,8.01-1.15l5.46-0.05
					c5.57-0.05,10.15-3.97,10.65-9.11l5.21-53.18l70.56,10.24l-5.95,60.76l-1.97,0.02c-18.68,0.18-34.15,14.36-35.97,32.98
					c-0.39,3.99-0.12,7.99,0.79,11.9l0.57,2.45l-2.5,0.24c-2,0.19-4.02,0.26-6,0.19l-40.96-1.42
					C1562.84,569.64,1562.21,569.6,1561.58,569.54z"/>
			</g>
			<g>
				<path class="st2" d="M1608.52,571.08l-0.44-1.87c-1.03-4.38-1.32-8.86-0.89-13.33c2.04-20.86,19.37-36.74,40.3-36.95l2.45-0.02
					l-1.54,15.76c-1.86,19.04-17.83,34.28-37.97,36.22L1608.52,571.08z"/>
			</g>
			<g>
				<path class="st2" d="M1554.28,567.94l-1.46-0.61c-11.81-4.88-19.01-16.68-17.51-28.7c1.34-10.77,9.3-19.74,20.28-22.84
					l1.51-0.43l0.89,1.29c5.52,7.96,8.05,17.66,7.1,27.31c-0.83,8.47-4.21,16.34-9.77,22.77L1554.28,567.94z"/>
			</g>
		</g>
		<g>
			<path class="st2" d="M1658.18,468.14l-76.95-7.54c-3.79-0.37-6.57-3.76-6.2-7.55l2.32-23.64c0.37-3.79,3.76-6.57,7.55-6.2
				l76.95,7.54c3.79,0.37,6.57,3.76,6.2,7.55l-2.32,23.64C1665.36,465.73,1661.97,468.52,1658.18,468.14z"/>
		</g>
	</g>
	<g>
		<g>
			<path class="st3" d="M1620.06,427.7l3.07-3.43c3.23-3.61,19.79-21.43,28.22-17.01c2.86,1.5,4.11,4.38,3.25,7.51
				c-2.47,9.06-17.17,13.81-29.94,13.16L1620.06,427.7z M1648.54,410.94c-3.09-0.3-10.36,4.1-18.72,12.6
				c12.7-0.67,19.59-6.5,20.53-9.93c0.32-1.17,0.01-1.91-1.05-2.46C1649.08,411.04,1648.83,410.97,1648.54,410.94z"/>
		</g>
		<g>
			<path class="st3" d="M1623.44,428.03l-4.55-0.66c-12.66-1.84-26.15-9.35-26.82-18.72c-0.23-3.24,1.55-5.82,4.65-6.74
				c9.11-2.7,21.91,17.99,24.38,22.16L1623.44,428.03z M1598.74,406.06c-0.29-0.03-0.55-0.01-0.78,0.06c-1.14,0.34-1.59,1-1.51,2.21
				c0.25,3.55,5.88,10.61,18.21,13.73C1608.11,412.09,1601.83,406.37,1598.74,406.06z"/>
		</g>
		<g>
			<path class="st1" d="M1623.38,425.63c-0.1,1.04-0.7,1.83-1.34,1.77c-0.64-0.06-1.07-0.95-0.97-1.99c0.1-1.04,0.7-1.83,1.34-1.77
				C1623.04,423.7,1623.48,424.59,1623.38,425.63z"/>
		</g>
	</g>
</g>
<g>
	<g>
		<g>
			<path class="st3" d="M1762.85,381.04l2.11-3.7c2.22-3.9,13.75-23.24,22.22-20.88c2.88,0.8,4.57,3.16,4.4,6.16
				c-0.48,8.68-12.85,15.83-24.53,17.74L1762.85,381.04z M1785.36,360.33c-2.85,0.33-8.58,5.72-14.48,15.05
				c11.36-3.08,16.46-9.69,16.64-12.98c0.06-1.12-0.37-1.73-1.43-2.02C1785.87,360.32,1785.63,360.3,1785.36,360.33z"/>
		</g>
		<g>
			<path class="st3" d="M1765.97,380.68l-4.24,0.29c-11.81,0.8-25.48-3.37-27.91-11.72c-0.84-2.89,0.27-5.57,2.89-7
				c7.72-4.22,23.32,12.01,26.37,15.31L1765.97,380.68z M1739.35,365.61c-0.27,0.03-0.5,0.1-0.7,0.21
				c-0.97,0.53-1.25,1.21-0.93,2.29c0.92,3.17,7.38,8.45,19.15,8.87C1749,369.25,1742.21,365.28,1739.35,365.61z"/>
		</g>
		<g>
			<path class="st1" d="M1765.45,378.52c0.11,0.96-0.28,1.79-0.86,1.86c-0.59,0.07-1.15-0.65-1.26-1.61
				c-0.11-0.96,0.28-1.79,0.86-1.86C1764.77,376.84,1765.34,377.56,1765.45,378.52z"/>
		</g>
	</g>
	<g>
		<g>
			<path class="st4" d="M1838.1,497.08L1716.85,511c-3.3,0.38-6.28-2-6.66-5.29l-10.31-89.86l133.19-15.29l10.31,89.86
				C1843.76,493.72,1841.39,496.7,1838.1,497.08z"/>
		</g>
		<g>
			<path class="st5" d="M1836.05,415.21l-135.4,15.54c-4.05,0.46-7.72-2.45-8.19-6.5l-3.19-27.83c-0.46-4.05,2.45-7.72,6.5-8.19
				l135.4-15.54c4.05-0.46,7.72,2.45,8.19,6.5l3.19,27.83C1843.02,411.08,1840.1,414.75,1836.05,415.21z"/>
		</g>
		<g>
			<path class="st6" d="M1795.99,501.76l-39.62,4.55L1742.22,383l39.62-4.55L1795.99,501.76z"/>
		</g>
	</g>
</g>
<g>
	<g>
		<g>
			<path class="st3" d="M400.17,415.5l2.72-3.71c2.87-3.91,17.63-23.25,26.42-19.68c2.99,1.21,4.51,3.96,3.97,7.16
				c-1.58,9.26-15.74,15.41-28.52,16.02L400.17,415.5z M426.88,396.04c-3.1,0-9.91,5.09-17.4,14.37
				c12.58-1.9,18.86-8.37,19.46-11.89c0.2-1.2-0.18-1.9-1.29-2.35C427.43,396.09,427.17,396.04,426.88,396.04z"/>
		</g>
		<g>
			<path class="st3" d="M403.56,415.5l-4.59-0.22c-12.78-0.6-26.94-6.76-28.52-16.02c-0.55-3.2,0.97-5.94,3.97-7.16
				c8.81-3.57,23.56,15.77,26.42,19.68L403.56,415.5z M376.85,396.04c-0.29,0-0.55,0.04-0.77,0.14c-1.11,0.45-1.49,1.15-1.29,2.35
				c0.6,3.51,6.89,9.98,19.46,11.89C386.76,401.13,379.95,396.04,376.85,396.04z"/>
		</g>
		<g>
			<path class="st1" d="M403.27,413.11c0,1.04-0.52,1.89-1.16,1.89s-1.16-0.85-1.16-1.89s0.52-1.89,1.16-1.89
				S403.27,412.07,403.27,413.11z"/>
		</g>
	</g>
	<g>
		<g>
			<path class="st6" d="M415.69,582.74h-25.97v-22.23h25.97V582.74z"/>
		</g>
	</g>
</g>
<g>
	<g>
		<g>
			<path class="st3" d="M1930.86,421.75l3.49-2.99c3.68-3.16,22.46-18.62,30.21-13.14c2.64,1.86,3.49,4.88,2.23,7.87
				c-3.65,8.66-18.84,11.42-31.42,9.1L1930.86,421.75z M1961.3,408.9c-3.02-0.71-10.81,2.7-20.22,10.02
				c12.68,1.01,20.27-3.85,21.66-7.14c0.47-1.12,0.26-1.89-0.72-2.58C1961.83,409.07,1961.59,408.97,1961.3,408.9z"/>
		</g>
		<g>
			<path class="st3" d="M1934.16,422.53l-4.42-1.26c-12.3-3.5-24.69-12.72-24.12-22.09c0.2-3.24,2.3-5.57,5.49-6.06
				c9.39-1.48,19.34,20.72,21.24,25.19L1934.16,422.53z M1912.58,397.5c-0.28-0.07-0.55-0.08-0.78-0.04
				c-1.18,0.18-1.71,0.78-1.79,1.99c-0.22,3.56,4.43,11.29,16.24,16.01C1921.08,404.71,1915.61,398.2,1912.58,397.5z"/>
		</g>
		<g>
			<path class="st1" d="M1934.42,420.14c-0.24,1.01-0.93,1.72-1.56,1.57c-0.62-0.15-0.93-1.09-0.7-2.1s0.93-1.72,1.56-1.57
				C1934.34,418.18,1934.66,419.12,1934.42,420.14z"/>
		</g>
	</g>
	<g>
		<g>
			<path class="st7" d="M1922.18,615.81c0.15,0.03,0.3,0.06,0.45,0.09c8.68,1.61,17.06-4.06,19.07-12.66l3.67-15.67
				c-13.56,5.05-26.06,7.43-35.88,8.51C1907.61,605,1913.2,613.98,1922.18,615.81z"/>
			<path class="st1" d="M1921.22,617.84c-4.59-1.07-8.54-3.84-11.16-7.84c-2.76-4.21-3.75-9.45-2.71-14.38l0.33-1.56l1.58-0.17
				c12.08-1.33,23.98-4.15,35.35-8.39l3.84-1.43l-4.6,19.66c-2.3,9.84-11.79,16.13-21.61,14.32l-0.49-0.1c0,0,0,0,0,0l0,0
				C1921.57,617.92,1921.39,617.89,1921.22,617.84z M1911.4,598.07c-0.35,3.34,0.46,6.67,2.33,9.52c2.08,3.16,5.23,5.31,8.9,6.06
				l0.41,0.08c7.5,1.39,14.76-3.44,16.53-11l2.75-11.74C1932.29,594.42,1921.92,596.8,1911.4,598.07z"/>
		</g>
		<g>
			<path class="st7" d="M1953.18,431.27c-6-4.56-13.98-7.95-24.6-9.17c-31.03-3.56-50.84,14.54-58.75,32.47
				C1878.22,455.01,1915.82,455.42,1953.18,431.27z"/>
			<path class="st1" d="M1866.54,456.6l1.28-2.91c8.27-18.76,28.64-37.49,61.01-33.77c10.2,1.17,18.84,4.4,25.68,9.61l2.49,1.89
				l-2.63,1.7c-38.25,24.72-77.23,24.04-84.66,23.65L1866.54,456.6z M1935.21,425.47c-2.2-0.51-4.49-0.91-6.88-1.18
				c-28.28-3.25-46.65,11.93-55.06,28.2c11.61,0.13,43.71-1.54,75.94-21.3C1945.15,428.61,1940.47,426.69,1935.21,425.47z"/>
		</g>
		<g>
			<path class="st0" d="M1916.74,565.95c-2.84,11.83-5.38,22.33-7.15,29.62c-0.04,0.17-0.06,0.34-0.1,0.51
				c9.82-1.08,22.32-3.47,35.88-8.51l7.84-33.48C1940.1,560.34,1927.5,563.92,1916.74,565.95z"/>
			<path class="st1" d="M1906.72,598.6l0.64-3.09c0.03-0.15,0.05-0.31,0.09-0.46c1.77-7.28,4.31-17.77,7.15-29.61l0.33-1.38
				l1.4-0.26c12.52-2.36,24.61-6.29,35.93-11.68l4.13-1.97l-9.15,39.08l-1.1,0.41c-11.71,4.36-23.96,7.27-36.4,8.64L1906.72,598.6z
				 M1918.55,567.84c-2.39,9.96-4.56,18.91-6.2,25.69c10.63-1.4,21.09-3.95,31.16-7.61l6.55-27.96
				C1940.01,562.36,1929.44,565.68,1918.55,567.84z"/>
		</g>
		<g>
			<path class="st0" d="M1968.92,486.96c0.37-1.58,0.67-3.18,0.93-4.78c-12.88,9.72-26.05,16.26-38.3,20.65
				c-2.19,9.69-4.77,20.79-7.42,32.04c11.52-3.11,24.34-8.04,37.27-15.82L1968.92,486.96z"/>
			<path class="st1" d="M1921.15,537.96l0.84-3.58c2.9-12.3,5.39-23.07,7.41-32.02l0.27-1.18l1.14-0.41
				c13.62-4.88,26.31-11.72,37.72-20.34l4.37-3.3l-0.88,5.4c-0.31,1.88-0.61,3.44-0.96,4.92l-7.73,33.01l-0.8,0.48
				c-11.69,7.03-24.42,12.43-37.83,16.05L1921.15,537.96z M1933.42,504.49c-1.77,7.82-3.88,16.97-6.3,27.26
				c11.41-3.39,22.28-8.12,32.35-14.09l7.12-30.41C1956.37,494.36,1945.24,500.15,1933.42,504.49z"/>
		</g>
		<g>
			<path class="st0" d="M1966.53,449.09c-2.64-6.49-6.81-12.85-13.34-17.82c-37.37,24.15-74.97,23.74-83.35,23.3
				c-1.01,2.3-1.83,4.6-2.45,6.85c-3.25,11.79,6.49,23.06,18.63,21.63c0.1-0.01,0.2-0.02,0.29-0.03c6.6-0.79,11.93-5.79,13.15-12.32
				l0.03-0.13c2.94-15.73,30.76-19.25,36.32-1.8C1946.01,463.88,1956.44,457.48,1966.53,449.09z"/>
			<path class="st1" d="M1879.54,484.86c-3.96-0.93-7.58-3.08-10.3-6.26c-4.2-4.9-5.69-11.54-3.97-17.76
				c0.66-2.38,1.52-4.79,2.56-7.15l0.61-1.39l1.51,0.08c7.19,0.38,44.93,1.04,82.05-22.95l1.29-0.84l1.23,0.93
				c6.18,4.7,10.9,11,14.05,18.74l0.61,1.49l-1.24,1.03c-9.48,7.88-19.97,14.59-31.18,19.95l-2.27,1.09l-0.77-2.4
				c-2.55-8-10.17-10.44-16.44-10.05c-6.56,0.41-14.26,4.21-15.63,11.59l-0.03,0.15c-1.41,7.51-7.46,13.18-15.05,14.09l-0.3,0.04
				C1883.98,485.5,1881.71,485.36,1879.54,484.86z M1871.26,456.83c-0.7,1.72-1.29,3.46-1.76,5.17c-1.35,4.89-0.23,9.89,3.07,13.73
				c3.31,3.86,8.12,5.73,13.19,5.13l0.29-0.03c5.68-0.68,10.2-4.92,11.26-10.55l0.03-0.14c1.55-8.29,9.64-14.53,19.68-15.15
				c9.01-0.56,16.59,3.6,19.97,10.75c9.6-4.78,18.63-10.59,26.89-17.3c-2.61-5.83-6.24-10.69-10.82-14.47
				C1917.37,456.47,1881.39,457.15,1871.26,456.83z"/>
		</g>
		<g>
			<path class="st7" d="M1961.4,519.06c-12.93,7.77-25.76,12.71-37.27,15.82c-2.49,10.58-5.04,21.28-7.39,31.07
				c10.76-2.03,23.36-5.61,36.47-11.86L1961.4,519.06z"/>
			<path class="st1" d="M1913.81,568.74l0.79-3.3c2.35-9.79,4.9-20.48,7.39-31.06l0.3-1.28l1.27-0.34
				c13.02-3.52,25.37-8.76,36.71-15.58l4.46-2.68l-9.62,41.12l-0.95,0.45c-11.66,5.56-24.11,9.61-37,12.04L1913.81,568.74z
				 M1925.97,536.65c-2.12,8.98-4.27,18.01-6.29,26.47c10.98-2.33,21.6-5.88,31.63-10.57l6.8-29.05
				C1948.03,529.09,1937.25,533.5,1925.97,536.65z"/>
		</g>
		<g>
			<path class="st7" d="M1969.85,482.18c1.18-7.28,1.22-14.71-0.12-21.98c-0.66-3.58-1.68-7.37-3.2-11.11
				c-10.09,8.39-20.52,14.79-30.72,19.66c1.12,3.51,1.36,7.85,0.29,13.13c-1.1,5.43-2.68,12.68-4.55,20.96
				C1943.8,498.44,1956.97,491.9,1969.85,482.18z"/>
			<path class="st1" d="M1928.52,506.25l0.88-3.9c1.99-8.83,3.52-15.86,4.54-20.91c0.93-4.59,0.85-8.63-0.23-12.02l-0.58-1.82
				l1.73-0.83c10.89-5.2,21.07-11.72,30.27-19.37l2.31-1.92l1.13,2.78c1.46,3.59,2.58,7.47,3.33,11.54
				c1.34,7.3,1.39,14.95,0.12,22.73l-0.14,0.87l-0.7,0.53c-11.76,8.88-24.85,15.94-38.88,20.97L1928.52,506.25z M1938.4,469.94
				c0.82,3.68,0.77,7.83-0.15,12.38c-0.87,4.3-2.1,10.02-3.67,17.04c11.91-4.65,23.07-10.82,33.23-18.39
				c1.04-6.98,0.96-13.82-0.24-20.36c-0.5-2.73-1.18-5.37-2.03-7.87C1957.17,459.4,1948.06,465.17,1938.4,469.94z"/>
		</g>
	</g>
</g>
<g>
	<g>
		<g>
			<g>
				<path class="st6" d="M77.94,562.38c-38.81,2.95-72.79-26.23-75.74-65.04c-2.95-38.81,26.23-72.79,65.04-75.74
					c38.81-2.95,72.79,26.23,75.74,65.04C145.93,525.46,116.75,559.43,77.94,562.38z"/>
			</g>
			<g>
				<path class="st8" d="M65.44,407.46c-5.37,0.41-10.07-3.63-10.48-9c-0.41-5.37,3.63-10.07,9-10.48c5.37-0.41,10.07,3.63,10.48,9
					C74.85,402.35,70.81,407.05,65.44,407.46z"/>
			</g>
			<g>
				<path class="st8" d="M83.41,425.64l-33.43,2.54c-2.87,0.22-5.38-1.94-5.6-4.81l-0.9-11.8c-0.22-2.87,1.94-5.38,4.81-5.6
					l33.43-2.54c2.87-0.22,5.38,1.94,5.6,4.81l0.9,11.8C88.43,422.92,86.28,425.43,83.41,425.64z"/>
			</g>
		</g>
		<g>
			<g>
				<path class="st3" d="M62.87,390.52l2.43-3.9c2.56-4.12,15.8-24.52,24.86-21.63c3.08,0.98,4.8,3.6,4.5,6.84
					c-0.87,9.35-14.53,16.56-27.22,18.13L62.87,390.52z M88.03,369.09c-3.1,0.24-9.5,5.82-16.26,15.64
					c12.4-2.85,18.18-9.78,18.51-13.33c0.11-1.21-0.32-1.88-1.46-2.24C88.59,369.1,88.33,369.07,88.03,369.09z"/>
			</g>
			<g>
				<path class="st3" d="M66.26,390.26l-4.6,0.13c-12.78,0.37-27.37-4.7-29.65-13.81c-0.79-3.15,0.52-6,3.41-7.44
					c8.51-4.23,24.68,13.94,27.84,17.62L66.26,390.26z M38.14,372.88c-0.29,0.02-0.55,0.09-0.76,0.19c-1.07,0.53-1.4,1.26-1.1,2.44
					c0.86,3.46,7.62,9.43,20.31,10.38C48.41,377.21,41.24,372.65,38.14,372.88z"/>
			</g>
			<g>
				<path class="st1" d="M65.78,387.9c0.08,1.04-0.37,1.92-1.01,1.97s-1.22-0.75-1.3-1.79c-0.08-1.04,0.37-1.92,1.01-1.97
					C65.12,386.06,65.7,386.87,65.78,387.9z"/>
			</g>
		</g>
	</g>
	<linearGradient id="SVGID_1_" gradientUnits="userSpaceOnUse" x1="64.8376" y1="388.0796" x2="64.8376" y2="-0.6305">
		<stop  offset="0" style="stop-color:#1A2130"/>
		<stop  offset="0.4323" style="stop-color:#1A2130;stop-opacity:0"/>
	</linearGradient>
	<rect x="61.36" y="-0.63" class="st9" width="6.95" height="388.71"/>
</g>
<g>
	<g>
		<g>
			<g>
				<path class="st3" d="M271.93,357.28l3.16-3.34c3.33-3.53,20.37-20.89,28.66-16.26c2.82,1.57,3.99,4.48,3.05,7.59
					c-2.71,8.99-17.53,13.35-30.28,12.36L271.93,357.28z M300.85,341.28c-3.08-0.38-10.47,3.82-19.05,12.1
					c12.72-0.33,19.76-5.98,20.79-9.39c0.35-1.16,0.06-1.91-0.99-2.49C301.39,341.4,301.14,341.32,300.85,341.28z"/>
			</g>
			<g>
				<path class="st3" d="M275.3,357.7l-4.53-0.78c-12.6-2.18-25.89-10.04-26.31-19.42c-0.15-3.24,1.7-5.78,4.82-6.61
					c9.19-2.45,21.43,18.56,23.79,22.8L275.3,357.7z M251.2,335.09c-0.29-0.04-0.55-0.02-0.79,0.04c-1.15,0.31-1.62,0.96-1.57,2.17
					c0.16,3.56,5.6,10.76,17.84,14.2C260.4,341.37,254.28,335.48,251.2,335.09z"/>
			</g>
			<g>
				<path class="st1" d="M275.3,355.3c-0.13,1.03-0.75,1.81-1.38,1.73c-0.63-0.08-1.04-0.98-0.91-2.02
					c0.13-1.03,0.75-1.81,1.38-1.73C275.02,353.36,275.43,354.27,275.3,355.3z"/>
			</g>
		</g>
		<g>
			<g>
				<path class="st7" d="M188.84,446.45l-0.03-1.97c-0.66-36.92,22.91-65.22,68.16-81.85c33.78-12.41,68.21-14.01,68.56-14.03
					l2.46-0.11l-1.3,18.22l-1.89,0.14c-9.25,0.68-14.9,2.9-17.77,6.98c-3.71,5.27-3.46,14.47,0.8,29.84
					c7.75,27.92-3.01,50.95-3.47,51.91l-0.66,1.38L188.84,446.45z"/>
			</g>
			<g>
				<path class="st2" d="M303.86,502.69l-123.32-15.38c-4.02-0.5-6.88-4.18-6.38-8.2l4.15-33.28c0.5-4.02,4.18-6.88,8.2-6.38
					l123.32,15.38c4.02,0.5,6.88,4.18,6.38,8.2l-4.15,33.28C311.55,500.33,307.87,503.19,303.86,502.69z"/>
			</g>
			<g>
				<path class="st2" d="M332.51,372.28c-10.4-1.3-17.8-10.81-16.5-21.21c1.3-10.4,10.81-17.8,21.21-16.5
					c10.4,1.3,17.8,10.81,16.5,21.21C352.42,366.17,342.9,373.58,332.51,372.28z"/>
			</g>
		</g>
	</g>
	<linearGradient id="SVGID_2_" gradientUnits="userSpaceOnUse" x1="274.0766" y1="356.3024" x2="274.0766" y2="-0.6305">
		<stop  offset="0" style="stop-color:#1A2130"/>
		<stop  offset="0.4323" style="stop-color:#1A2130;stop-opacity:0"/>
	</linearGradient>
	<rect x="270.6" y="-0.63" class="st10" width="6.95" height="356.93"/>
</g>
<linearGradient id="SVGID_3_" gradientUnits="userSpaceOnUse" x1="402.2421" y1="415.4738" x2="402.2421" y2="-0.6305">
	<stop  offset="0" style="stop-color:#1A2130"/>
	<stop  offset="0.4323" style="stop-color:#1A2130;stop-opacity:0"/>
</linearGradient>
<rect x="398.77" y="-0.63" class="st11" width="6.95" height="416.1"/>
<g>
	<path class="st4" d="M426.88,481.33c-0.11,0-0.21-0.01-0.32-0.03c-28.75-4.69-40.15-30.97-42.14-36.2
		c-0.22-0.59-0.16-1.25,0.18-1.78l16-25.4c0.36-0.58,1-0.93,1.68-0.93c0,0,0.01,0,0.01,0c0.68,0,1.31,0.35,1.68,0.92l34.72,53.96
		c0.4,0.62,0.42,1.4,0.07,2.04c-0.35,0.64-1.02,1.04-1.76,1.04h-6.15c-0.88,0-1.69,0.48-2.12,1.24c-0.39,0.69-0.41,1.53-0.06,2.25
		c0.33,0.67,0.25,1.47-0.19,2.07C428.11,481.04,427.51,481.33,426.88,481.33z"/>
	<path class="st4" d="M402.29,419L437,472.96h-6.15c-1.6,0-3.08,0.87-3.86,2.26c-0.71,1.27-0.74,2.81-0.11,4.11
		c-27.58-4.5-38.58-29.66-40.6-34.93L402.29,419 M402.29,415c-0.01,0-0.01,0-0.02,0c-1.37,0.01-2.64,0.71-3.37,1.87l-16,25.4
		c-0.67,1.06-0.8,2.38-0.35,3.56c2.06,5.4,13.86,32.59,43.69,37.46c0.22,0.04,0.43,0.05,0.64,0.05c1.25,0,2.45-0.59,3.21-1.61
		c0.89-1.2,1.04-2.8,0.38-4.14c-0.06-0.13-0.06-0.28,0-0.4c0.07-0.13,0.22-0.22,0.37-0.22H437c1.46,0,2.81-0.8,3.51-2.08
		c0.7-1.28,0.64-2.85-0.15-4.08l-34.72-53.96C404.91,415.69,403.65,415,402.29,415L402.29,415z"/>
</g>
<g>
	<path class="st12" d="M359.38,538.96c-0.68,0-1.32-0.35-1.69-0.93c-0.41-0.64-0.42-1.45-0.03-2.1l7.96-13.33
		c0.46-0.77,0.47-1.66,0.03-2.44c-0.44-0.78-1.21-1.23-2.11-1.23l-7.93-0.05c-0.72,0-1.38-0.4-1.73-1.03
		c-0.35-0.63-0.33-1.4,0.04-2.02l22.71-37.19c0.46-0.75,0.47-1.69,0.05-2.45c-0.43-0.76-1.24-1.24-2.12-1.24l-6.25-0.05
		c-0.73-0.01-1.39-0.4-1.74-1.04c-0.35-0.64-0.32-1.41,0.06-2.02l15.11-23.99c0.37-0.58,1.01-0.93,1.69-0.93c0.05,0,0.09,0,0.14,0
		c0.73,0.05,1.38,0.5,1.69,1.17c4.25,9.34,17.1,31.37,44.72,34.05c0.63,0.06,1.19,0.41,1.51,0.95l6.31,10.36
		c0.37,0.61,0.39,1.38,0.04,2.01c-8.29,15.06-22.39,26.69-41.9,34.55c-15.71,6.33-30.66,8.36-36.36,8.94
		C359.52,538.96,359.45,538.96,359.38,538.96z"/>
	<path class="st12" d="M383.44,448.92c4.34,9.55,17.64,32.42,46.34,35.22l6.31,10.36c-18.93,34.38-64.55,41.23-76.71,42.47
		l7.96-13.33c0.83-1.39,0.85-3.05,0.05-4.46c-0.8-1.4-2.24-2.24-3.85-2.24l-7.92-0.05l22.71-37.19c0.83-1.36,0.86-3.08,0.08-4.47
		c-0.78-1.39-2.26-2.26-3.86-2.26l-6.23-0.05L383.44,448.92 M383.44,444.92c-1.37,0-2.65,0.7-3.38,1.87l-15.11,23.99
		c-0.77,1.23-0.82,2.78-0.13,4.05c0.7,1.27,2.03,2.07,3.48,2.08l6.23,0.05c0.19,0,0.33,0.09,0.41,0.22c0.07,0.13,0.07,0.3-0.01,0.43
		l-22.71,37.18c-0.75,1.23-0.78,2.77-0.08,4.03c0.7,1.26,2.03,2.04,3.47,2.05l7.92,0.05c0.2,0,0.31,0.06,0.4,0.21
		c0.09,0.15,0.09,0.28,0,0.43l-7.96,13.33c-0.78,1.3-0.75,2.92,0.06,4.2c0.74,1.16,2.02,1.85,3.37,1.85c0.13,0,0.27-0.01,0.4-0.02
		c5.78-0.59,20.96-2.64,36.91-9.07c19.95-8.04,34.38-19.97,42.9-35.44c0.69-1.26,0.66-2.79-0.09-4.01l-6.31-10.36
		c-0.65-1.07-1.78-1.78-3.03-1.9c-26.58-2.58-38.99-23.86-43.09-32.89c-0.61-1.34-1.9-2.24-3.37-2.34
		C383.62,444.93,383.53,444.92,383.44,444.92L383.44,444.92z"/>
</g>
<g>
	<path class="st4" d="M402.65,562.12l-57.08-0.05c-0.72,0-1.38-0.39-1.74-1.01c-0.35-0.63-0.35-1.39,0.02-2.01l11.04-18.47
		c0.34-0.58,0.95-0.94,1.62-0.97c0.61-0.03,15.07-0.77,32.32-6.49c21.96-7.28,38.6-19.51,48.13-35.38c0.36-0.6,1.01-0.97,1.71-0.97
		c0,0,0,0,0.01,0c0.7,0,1.34,0.36,1.71,0.96l11.08,18.18c0.38,0.62,0.39,1.39,0.04,2.02s-1.02,1.02-1.74,1.02h-7.89
		c-0.9,0-1.67,0.45-2.11,1.23c-0.44,0.78-0.43,1.67,0.03,2.45l21.74,36.48c0.37,0.62,0.38,1.39,0.02,2.01
		c-0.36,0.63-1.02,1.01-1.74,1.01H402.65z"/>
	<path class="st4" d="M438.68,498.76l11.07,18.18h-7.89c-1.61,0-3.05,0.84-3.85,2.24c-0.8,1.4-0.78,3.07,0.05,4.46l21.74,36.48
		h-57.15l-57.08-0.05l11.04-18.47c1.08-0.05,15.5-0.84,32.86-6.59C411.97,527.55,428.91,515.04,438.68,498.76 M438.68,494.76
		c0,0-0.01,0-0.01,0c-1.4,0-2.7,0.74-3.42,1.94c-9.28,15.45-25.54,27.39-47.04,34.51c-16.98,5.63-31.19,6.36-31.79,6.39
		c-1.34,0.06-2.56,0.79-3.24,1.94l-11.04,18.47c-0.74,1.24-0.76,2.77-0.05,4.02s2.04,2.03,3.48,2.03l57.08,0.05h57.16
		c1.44,0,2.77-0.77,3.48-2.02s0.69-2.79-0.04-4.02l-21.74-36.48c-0.09-0.15-0.09-0.28-0.01-0.43c0.09-0.15,0.2-0.22,0.37-0.22h7.89
		c1.45,0,2.78-0.78,3.49-2.04c0.71-1.26,0.68-2.81-0.07-4.04l-11.07-18.18C441.37,495.48,440.08,494.76,438.68,494.76L438.68,494.76
		z"/>
</g>
<linearGradient id="SVGID_4_" gradientUnits="userSpaceOnUse" x1="1763.1318" y1="379.9948" x2="1763.1318" y2="-0.6305">
	<stop  offset="0" style="stop-color:#1A2130"/>
	<stop  offset="0.4323" style="stop-color:#1A2130;stop-opacity:0"/>
</linearGradient>
<rect x="1759.66" y="-0.63" class="st13" width="6.95" height="380.63"/>
<linearGradient id="SVGID_5_" gradientUnits="userSpaceOnUse" x1="1623.0354" y1="426.1551" x2="1623.0354" y2="-0.6305">
	<stop  offset="0" style="stop-color:#1A2130"/>
	<stop  offset="0.4323" style="stop-color:#1A2130;stop-opacity:0"/>
</linearGradient>
<rect x="1619.56" y="-0.63" class="st14" width="6.95" height="426.79"/>
<linearGradient id="SVGID_6_" gradientUnits="userSpaceOnUse" x1="1933.4133" y1="423.1441" x2="1933.4133" y2="-0.6305">
	<stop  offset="0" style="stop-color:#1A2130"/>
	<stop  offset="0.4323" style="stop-color:#1A2130;stop-opacity:0"/>
</linearGradient>
<rect x="1929.94" y="-0.63" class="st15" width="6.95" height="423.77"/>
<g>
	<path class="st0" d="M33.52,501.67c1.45-0.23,2.51-1.42,2.64-2.82l7.8-1.22l-4.73,6.48l1.24,0.9l5.63-7.72l4.06-0.63l-4.73,6.48
		l1.24,0.9l5.63-7.72l4.06-0.63l-4.73,6.48l1.24,0.9l5.63-7.72l1.72-0.27c0.56,2.81,2.06,5.23,4.11,6.97l-0.97,1.32l-9.44,1.47
		l0.24,1.52l7.92-1.24l-2.43,3.32l-9.44,1.47l0.24,1.52l7.92-1.24l-2.43,3.32l-9.44,1.47l0.24,1.52l7.92-1.24l-4.65,6.38
		c-1.3-0.53-2.85-0.13-3.71,1.06c-1.02,1.4-0.72,3.37,0.69,4.39c1.4,1.02,3.37,0.72,4.39-0.69c0.87-1.19,0.78-2.78-0.12-3.86
		l4.65-6.38l1.24,7.92l1.52-0.24l-1.47-9.44l2.43-3.32l1.24,7.92l1.52-0.24l-1.47-9.44l2.43-3.32l1.24,7.92l1.52-0.24l-1.47-9.44
		l0.95-1.3c2.27,1.5,5.04,2.26,7.92,2l0.24,1.55l-5.63,7.72l1.24,0.9l4.73-6.48l0.63,4.06l-5.63,7.72l1.24,0.9l4.73-6.48l0.63,4.07
		l-5.63,7.72l1.24,0.9l4.73-6.48l1.22,7.8c-1.29,0.55-2.1,1.92-1.88,3.37c0.27,1.71,1.87,2.89,3.59,2.62
		c1.71-0.27,2.89-1.87,2.62-3.59c-0.23-1.45-1.42-2.51-2.82-2.64l-1.22-7.8l6.48,4.73l0.9-1.24l-7.72-5.63l-0.63-4.06l6.48,4.73
		l0.9-1.24l-7.72-5.63l-0.63-4.07l6.48,4.73l0.9-1.24l-7.72-5.63l-0.24-1.54c2.82-0.61,5.23-2.16,6.95-4.26l1.32,0.97l1.47,9.44
		l1.52-0.24l-1.24-7.92l3.32,2.43l1.47,9.44l1.52-0.24l-1.24-7.92l3.32,2.43l1.47,9.44l1.52-0.24l-1.24-7.92l6.38,4.65
		c-0.53,1.3-0.13,2.85,1.06,3.71c1.4,1.02,3.37,0.72,4.39-0.69c1.02-1.4,0.72-3.37-0.69-4.39c-1.19-0.87-2.78-0.78-3.86,0.12
		l-6.38-4.65l7.92-1.24l-0.24-1.52l-9.44,1.47l-3.32-2.43l7.92-1.24l-0.24-1.52l-9.44,1.47l-3.32-2.43l7.92-1.24l-0.24-1.52
		l-9.44,1.47l-1.33-0.97c1.45-2.29,2.16-5.07,1.84-7.94l1.72-0.26l7.7,5.65l0.91-1.24l-6.46-4.75l4.07-0.62l7.7,5.65l0.91-1.24
		l-6.46-4.75l4.07-0.62l7.7,5.65l0.91-1.24l-6.46-4.75l7.8-1.19c0.55,1.3,1.91,2.11,3.37,1.89c1.72-0.26,2.89-1.87,2.63-3.58
		c-0.26-1.72-1.87-2.89-3.58-2.63c-1.45,0.22-2.52,1.41-2.65,2.81l-7.8,1.19l4.75-6.46l-1.24-0.91l-5.65,7.7l-4.07,0.62l4.75-6.46
		l-1.24-0.91l-5.65,7.7l-4.07,0.62l4.75-6.46l-1.24-0.91l-5.65,7.7l-1.75,0.27c-0.65-2.74-2.18-5.09-4.25-6.76l1.11-1.51l9.44-1.45
		l-0.23-1.52l-7.92,1.21l2.44-3.32l9.44-1.45l-0.23-1.52l-7.92,1.21l2.44-3.32l9.44-1.45l-0.23-1.52l-7.92,1.21l4.67-6.36
		c1.3,0.53,2.85,0.14,3.72-1.05c1.03-1.4,0.73-3.36-0.67-4.39c-1.4-1.03-3.36-0.73-4.39,0.67c-0.87,1.18-0.78,2.77,0.11,3.86
		l-4.67,6.36l-1.21-7.92l-1.52,0.23l1.45,9.44l-2.44,3.32l-1.21-7.92l-1.52,0.23l1.45,9.44l-2.44,3.32l-1.21-7.92l-1.52,0.23
		l1.45,9.44l-1.13,1.53c-2.23-1.39-4.92-2.09-7.7-1.83l-0.29-1.91l5.65-7.7l-1.24-0.91l-4.75,6.46l-0.62-4.07l5.65-7.7l-1.24-0.91
		l-4.75,6.46l-0.62-4.07l5.65-7.7l-1.24-0.91l-4.75,6.46l-1.19-7.8c1.3-0.55,2.11-1.91,1.89-3.37c-0.26-1.72-1.87-2.89-3.58-2.63
		c-1.72,0.26-2.89,1.87-2.63,3.58c0.22,1.45,1.41,2.52,2.81,2.65l1.19,7.8l-6.46-4.75l-0.91,1.24l7.7,5.65l0.62,4.07l-6.46-4.75
		l-0.91,1.24l7.7,5.65l0.62,4.07l-6.46-4.75l-0.91,1.24l7.7,5.65l0.29,1.92c-2.74,0.6-5.08,2.09-6.79,4.11l-1.51-1.11l-1.45-9.44
		l-1.52,0.23l1.21,7.92l-3.32-2.44l-1.45-9.44l-1.52,0.23l1.21,7.92l-3.32-2.44l-1.45-9.44l-1.52,0.23l1.21,7.92l-6.36-4.67
		c0.53-1.3,0.14-2.85-1.05-3.72c-1.4-1.03-3.36-0.73-4.39,0.67c-1.03,1.4-0.73,3.36,0.67,4.39c1.18,0.87,2.77,0.78,3.86-0.11
		l6.36,4.67l-7.92,1.21l0.23,1.52l9.44-1.45l3.32,2.44L45.77,481l0.23,1.52l9.44-1.45l3.32,2.44l-7.92,1.21l0.23,1.52l9.44-1.45
		l1.51,1.11c-1.44,2.21-2.19,4.89-1.98,7.68l-1.75,0.27l-7.72-5.63l-0.9,1.24l6.48,4.73l-4.07,0.63l-7.72-5.63l-0.9,1.24l6.48,4.73
		l-4.06,0.63l-7.72-5.63l-0.9,1.24l6.48,4.73l-7.8,1.22c-0.55-1.29-1.92-2.1-3.37-1.88c-1.71,0.27-2.89,1.87-2.62,3.59
		C30.2,500.76,31.81,501.94,33.52,501.67z M61.33,494.92l6.07-0.95c0.23,0.86,0.66,1.61,1.24,2.22L65,501.18
		C63.17,499.6,61.84,497.44,61.33,494.92z M66.22,502.1l3.62-4.96c0.76,0.43,1.62,0.67,2.53,0.67l0.95,6.09
		C70.74,504.12,68.27,503.44,66.22,502.1z M74.84,503.67l-0.95-6.08c0.86-0.26,1.62-0.74,2.22-1.36l4.97,3.63
		C79.52,501.73,77.36,503.11,74.84,503.67z M81.97,498.61L77,494.97c0.39-0.78,0.6-1.66,0.55-2.57l6.07-0.93
		C83.89,494.05,83.26,496.54,81.97,498.61z M83.35,489.96l-6.11,0.93c-0.28-0.79-0.75-1.48-1.35-2.03l3.64-4.95
		C81.38,485.43,82.75,487.52,83.35,489.96z M78.28,483.03L74.63,488c-0.7-0.34-1.49-0.52-2.3-0.51l-0.93-6.09
		C73.89,481.18,76.28,481.8,78.28,483.03z M69.88,481.64l0.93,6.09c-0.78,0.25-1.47,0.67-2.04,1.22l-4.96-3.65
		C65.35,483.52,67.44,482.2,69.88,481.64z M62.9,486.54l4.96,3.64c-0.37,0.68-0.6,1.45-0.63,2.26l-6.1,0.95
		C60.95,490.91,61.62,488.53,62.9,486.54z"/>
</g>
</svg>
