<?xml version="1.0" encoding="utf-8"?>
<!-- Generator: Adobe Illustrator 24.0.2, SVG Export Plug-In . SVG Version: 6.00 Build 0)  -->
<svg version="1.1" id="OBJECTS" xmlns="http://www.w3.org/2000/svg" xmlns:xlink="http://www.w3.org/1999/xlink" x="0px" y="0px"
	 viewBox="0 0 1977.52 163.17" style="enable-background:new 0 0 1977.52 163.17;" xml:space="preserve">
<style type="text/css">
	.st0{fill:#FFFFFF;}
	.st1{fill:#A1262A;}
	.st2{fill:#2E473F;}
	.st3{fill:#C8AA5C;}
	.st4{opacity:0.08;fill:#C8AA5C;}
	.st5{opacity:0.3;fill:#C8AA5C;}
	.st6{fill:#9E3924;}
	.st7{opacity:0.08;fill:#9E3924;}
	.st8{opacity:0.3;fill:#9E3924;}
	.st9{fill:#82A89C;}
	.st10{opacity:0.08;fill:#82A89C;}
	.st11{opacity:0.3;fill:#82A89C;}
</style>
<g>
	<g>
		<g>
			<g>
				<path class="st0" d="M1665.52-166.34l5.55-56.71l-66.21-9.61l-4.98,50.89c-0.61,6.26-6.12,11.03-12.81,11.1l-5.46,0.05
					c-2.58,0.03-5.07,0.4-7.43,1.07c5.05,7.28,7.65,16.33,6.72,25.84c-0.81,8.29-4.18,15.7-9.25,21.55c3.04,1.26,6.37,2.04,9.9,2.16
					l40.96,1.42c1.93,0.07,3.84,0,5.72-0.18c-0.94-4.03-1.26-8.27-0.84-12.62C1629.33-151.26,1645.99-166.15,1665.52-166.34z"/>
				<path class="st1" d="M1579.58-117.93c-2.99-0.29-5.93-1.03-8.76-2.2l-2.81-1.16l1.99-2.3c4.97-5.74,7.98-12.77,8.72-20.33
					c0.84-8.61-1.41-17.27-6.34-24.37l-1.75-2.53l2.96-0.84c2.61-0.74,5.3-1.12,8.01-1.15l5.46-0.05
					c5.57-0.05,10.15-3.97,10.65-9.11l5.21-53.18l70.56,10.24l-5.95,60.76l-1.97,0.02c-18.68,0.18-34.15,14.36-35.97,32.98
					c-0.39,3.99-0.12,7.99,0.79,11.9l0.57,2.45l-2.5,0.24c-2,0.19-4.02,0.26-6,0.19l-40.96-1.42
					C1580.84-117.83,1580.21-117.87,1579.58-117.93z M1575.3-123.21c2.07,0.6,4.19,0.94,6.33,1.01l40.96,1.42
					c0.99,0.03,1.99,0.03,2.99-0.01c-0.6-3.57-0.73-7.19-0.38-10.81c1.98-20.2,18.29-35.73,38.33-36.88l5.16-52.71l-61.86-8.98
					l-4.76,48.6c-0.72,7.38-7.16,13-14.98,13.08l-5.46,0.05c-1.31,0.01-2.63,0.12-3.92,0.33c4.31,7.4,6.21,16.02,5.37,24.59
					C1582.36-136.1,1579.69-129.14,1575.3-123.21z"/>
			</g>
			<g>
				<path class="st0" d="M1664.22-153.01l1.31-13.33c-19.54,0.19-36.19,15.08-38.14,34.97c-0.43,4.35-0.11,8.59,0.84,12.62
					C1647.16-120.59,1662.42-134.7,1664.22-153.01z"/>
				<path class="st1" d="M1626.52-116.39l-0.44-1.87c-1.03-4.38-1.32-8.86-0.89-13.33c2.04-20.86,19.37-36.74,40.3-36.95l2.45-0.02
					l-1.54,15.76c-1.87,19.04-17.83,34.28-37.97,36.22L1626.52-116.39z M1663.09-164.04c-17.57,1.34-31.78,15.08-33.52,32.88
					c-0.33,3.34-0.19,6.69,0.39,9.98c17.12-2.5,30.47-15.7,32.07-32.04L1663.09-164.04z"/>
			</g>
			<g>
				<path class="st0" d="M1574.18-169.56c-9.92,2.8-17.43,10.88-18.7,21c-1.43,11.49,5.56,22,16.17,26.39
					c5.06-5.85,8.44-13.26,9.25-21.55C1581.83-153.23,1579.23-162.27,1574.18-169.56z"/>
				<path class="st1" d="M1572.28-119.53l-1.46-0.61c-11.81-4.88-19.01-16.68-17.51-28.7c1.34-10.77,9.3-19.74,20.28-22.84
					l1.51-0.43l0.89,1.29c5.52,7.96,8.05,17.66,7.1,27.31c-0.83,8.47-4.21,16.34-9.77,22.77L1572.28-119.53z M1573.26-166.96
					c-8.48,2.98-14.54,10.16-15.6,18.68c-1.21,9.71,4.12,18.94,13.36,23.43c4.35-5.5,7-12.06,7.69-19.08
					C1579.51-152.01,1577.57-160.12,1573.26-166.96z"/>
			</g>
		</g>
		<g>
			<path class="st0" d="M1676.82-221.47l-77.79-7.62c-2.36-0.23-4.08-2.33-3.85-4.69l2.4-24.48c0.23-2.36,2.33-4.08,4.69-3.85
				l77.79,7.62c2.36,0.23,4.08,2.33,3.85,4.69l-2.4,24.48C1681.27-222.97,1679.18-221.24,1676.82-221.47z"/>
			<path class="st1" d="M1676.18-219.33l-76.95-7.54c-3.79-0.37-6.57-3.76-6.2-7.55l2.32-23.64c0.37-3.79,3.76-6.57,7.55-6.2
				l76.95,7.54c3.79,0.37,6.57,3.76,6.2,7.55l-2.32,23.64C1683.36-221.74,1679.98-218.96,1676.18-219.33z M1602.47-259.88
				c-1.38-0.14-2.61,0.88-2.75,2.26l-2.32,23.64c-0.14,1.38,0.88,2.61,2.26,2.75l76.95,7.54c1.38,0.14,2.61-0.88,2.75-2.26
				l2.32-23.64c0.14-1.38-0.88-2.61-2.26-2.75L1602.47-259.88z"/>
		</g>
	</g>
	<g>
		<g>
			<path class="st1" d="M1638.06-259.77l3.07-3.43c3.23-3.61,19.79-21.43,28.22-17.01c2.86,1.5,4.11,4.38,3.25,7.51
				c-2.48,9.06-17.17,13.81-29.94,13.16L1638.06-259.77z M1666.54-276.53c-3.09-0.3-10.36,4.1-18.72,12.6
				c12.7-0.67,19.59-6.5,20.53-9.93c0.32-1.17,0.01-1.91-1.05-2.46C1667.08-276.43,1666.83-276.5,1666.54-276.53z"/>
		</g>
		<g>
			<path class="st1" d="M1641.44-259.44l-4.55-0.66c-12.66-1.84-26.15-9.35-26.82-18.72c-0.23-3.24,1.55-5.82,4.65-6.74
				c9.11-2.7,21.91,17.99,24.38,22.16L1641.44-259.44z M1616.74-281.41c-0.29-0.03-0.55-0.01-0.78,0.06c-1.14,0.34-1.59,1-1.51,2.21
				c0.25,3.55,5.88,10.61,18.21,13.73C1626.11-275.38,1619.83-281.11,1616.74-281.41z"/>
		</g>
		<g>
			<path class="st1" d="M1641.38-261.84c-0.1,1.04-0.7,1.83-1.34,1.77c-0.64-0.06-1.07-0.95-0.97-1.99c0.1-1.04,0.7-1.83,1.34-1.77
				C1641.04-263.77,1641.48-262.88,1641.38-261.84z"/>
		</g>
	</g>
</g>
<g>
	<g>
		<g>
			<path class="st1" d="M1770.85-296.43l2.11-3.7c2.22-3.9,13.75-23.24,22.22-20.88c2.88,0.8,4.57,3.16,4.4,6.16
				c-0.48,8.68-12.85,15.83-24.53,17.74L1770.85-296.43z M1793.36-317.14c-2.85,0.33-8.58,5.72-14.48,15.05
				c11.36-3.08,16.46-9.69,16.64-12.98c0.06-1.12-0.37-1.73-1.43-2.02C1793.87-317.16,1793.63-317.17,1793.36-317.14z"/>
		</g>
		<g>
			<path class="st1" d="M1773.97-296.79l-4.25,0.29c-11.81,0.8-25.48-3.37-27.91-11.72c-0.84-2.89,0.27-5.57,2.89-7
				c7.72-4.22,23.32,12.01,26.37,15.31L1773.97-296.79z M1747.35-311.86c-0.27,0.03-0.5,0.1-0.7,0.21
				c-0.97,0.53-1.25,1.21-0.93,2.29c0.92,3.17,7.38,8.45,19.15,8.87C1757-308.23,1750.21-312.19,1747.35-311.86z"/>
		</g>
		<g>
			<path class="st1" d="M1773.45-298.95c0.11,0.96-0.28,1.79-0.86,1.86c-0.59,0.07-1.15-0.65-1.26-1.61
				c-0.11-0.96,0.28-1.79,0.86-1.86C1772.77-300.63,1773.34-299.91,1773.45-298.95z"/>
		</g>
	</g>
	<g>
		<g>
			<path class="st0" d="M1845.93-182.42l-121.37,13.93c-2.15,0.25-4.09-1.3-4.34-3.45l-10.09-87.9l129.15-14.82l10.09,87.9
				C1849.62-184.61,1848.08-182.66,1845.93-182.42z"/>
			<path class="st1" d="M1846.1-180.39l-121.24,13.91c-3.3,0.38-6.28-2-6.66-5.29l-10.31-89.86l133.19-15.29l10.31,89.86
				C1851.76-183.76,1849.39-180.77,1846.1-180.39z M1712.38-258.05l9.85,85.82c0.12,1.07,1.09,1.84,2.16,1.71l121.24-13.91
				c1.07-0.12,1.84-1.09,1.71-2.16l-9.85-85.82L1712.38-258.05z"/>
		</g>
		<g>
			<path class="st0" d="M1843.91-264.29l-135.58,15.56c-2.89,0.33-5.51-1.74-5.84-4.64l-3.21-28.01c-0.33-2.89,1.74-5.51,4.64-5.84
				l135.58-15.56c2.89-0.33,5.51,1.74,5.84,4.64l3.21,28.01C1848.87-267.23,1846.8-264.62,1843.91-264.29z"/>
			<path class="st1" d="M1844.05-262.26l-135.4,15.54c-4.05,0.46-7.72-2.45-8.19-6.5l-3.19-27.83c-0.46-4.05,2.45-7.72,6.5-8.19
				l135.4-15.54c4.05-0.46,7.72,2.45,8.19,6.5l3.19,27.83C1851.02-266.4,1848.1-262.72,1844.05-262.26z M1704.23-285.2
				c-1.82,0.21-3.13,1.86-2.92,3.68l3.19,27.83c0.21,1.82,1.86,3.13,3.68,2.92l135.4-15.54c1.82-0.21,3.13-1.86,2.92-3.68
				l-3.19-27.83c-0.21-1.82-1.86-3.13-3.68-2.92L1704.23-285.2z"/>
		</g>
		<g>
			
				<rect x="1759.2" y="-295.12" transform="matrix(0.9935 -0.114 0.114 0.9935 38.3922 201.084)" class="st0" width="35.82" height="120.05"/>
			<path class="st1" d="M1803.99-175.71l-39.62,4.55l-14.15-123.31l39.62-4.55L1803.99-175.71z M1767.95-175.67l31.54-3.62
				l-13.22-115.23l-31.54,3.62L1767.95-175.67z"/>
		</g>
	</g>
</g>
<g>
	<g>
		<g>
			<path class="st1" d="M398.17-291.98l2.72-3.71c2.87-3.91,17.63-23.25,26.42-19.68c2.99,1.21,4.51,3.96,3.97,7.16
				c-1.58,9.26-15.74,15.41-28.52,16.02L398.17-291.98z M424.88-311.43c-3.1,0-9.91,5.09-17.4,14.37
				c12.58-1.9,18.86-8.37,19.46-11.89c0.2-1.2-0.18-1.9-1.29-2.35C425.43-311.38,425.17-311.43,424.88-311.43z"/>
		</g>
		<g>
			<path class="st1" d="M401.56-291.98l-4.59-0.22c-12.78-0.6-26.94-6.76-28.52-16.02c-0.55-3.2,0.97-5.94,3.97-7.16
				c8.81-3.57,23.56,15.77,26.42,19.68L401.56-291.98z M374.85-311.43c-0.29,0-0.55,0.05-0.77,0.14c-1.11,0.45-1.49,1.15-1.29,2.35
				c0.6,3.51,6.89,9.98,19.46,11.89C384.76-306.34,377.95-311.43,374.85-311.43z"/>
		</g>
		<g>
			<path class="st1" d="M401.27-294.36c0,1.04-0.52,1.89-1.16,1.89c-0.64,0-1.16-0.85-1.16-1.89s0.52-1.89,1.16-1.89
				C400.75-296.25,401.27-295.4,401.27-294.36z"/>
		</g>
	</g>
	<g>
		<g>
			<rect x="389.92" y="-152.65" class="st0" width="21.58" height="29.72"/>
			<path class="st1" d="M413.69-120.73h-25.97v-34.12h25.97V-120.73z M392.11-125.13h17.19v-25.33h-17.19V-125.13z"/>
		</g>
		<g>
			<path class="st0" d="M439.87-188.34h7.89c1.74,0,2.81-1.91,1.9-3.39l-22.71-37.18c-0.91-1.49,0.16-3.39,1.9-3.39H435
				c1.77,0,2.83-1.95,1.87-3.44l-34.75-53.91c-0.88-1.37-2.89-1.36-3.76,0.02l-33.9,53.91c-0.93,1.49,0.13,3.42,1.89,3.42h6.2
				c1.74,0,2.81,1.91,1.9,3.39l-22.71,37.18c-0.91,1.49,0.16,3.39,1.9,3.39h7.89c1.73,0,2.8,1.89,1.91,3.37l-21.77,36.43
				c-0.89,1.49,0.18,3.37,1.91,3.37h57.05h0.11h57.05c1.73,0,2.8-1.89,1.91-3.37l-21.77-36.43
				C437.06-186.45,438.14-188.34,439.87-188.34z"/>
			<path class="st1" d="M457.81-142.96h-114.2c-1.61,0-3.05-0.84-3.85-2.24c-0.8-1.4-0.78-3.07,0.05-4.46l21.77-36.43l-7.92-0.05
				c-1.6,0-3.08-0.87-3.86-2.26c-0.78-1.39-0.75-3.11,0.08-4.47l22.71-37.18l-6.23-0.05c-1.61,0-3.1-0.88-3.87-2.29
				c-0.78-1.41-0.73-3.13,0.13-4.5l33.9-53.91c0.81-1.29,2.2-2.06,3.72-2.07c0.01,0,0.02,0,0.02,0c1.51,0,2.9,0.76,3.72,2.03
				l34.75,53.91c0.88,1.36,0.94,3.09,0.17,4.52c-0.78,1.42-2.27,2.31-3.89,2.31h-6.15l22.68,37.24c0.83,1.36,0.87,3.08,0.08,4.47
				c-0.78,1.4-2.26,2.26-3.86,2.26h-7.89c-0.01,0-0.02,0-0.02,0l21.76,36.48c0.83,1.38,0.85,3.05,0.05,4.45
				C460.86-143.8,459.42-142.96,457.81-142.96z M400.29-288.47l-33.96,53.91l6.23,0.05c1.6,0,3.08,0.87,3.86,2.26
				c0.78,1.39,0.75,3.11-0.08,4.47l-22.71,37.18l7.92,0.05c1.61,0,3.05,0.84,3.85,2.24c0.8,1.4,0.78,3.07-0.05,4.46l-21.77,36.43
				l57.08,0.05h57.15l-21.74-36.48c-0.83-1.39-0.85-3.05-0.05-4.46c0.8-1.4,2.24-2.24,3.85-2.24h7.89l-22.68-37.24
				c-0.83-1.36-0.86-3.08-0.08-4.47c0.78-1.39,2.26-2.26,3.86-2.26H435L400.29-288.47z"/>
		</g>
		<g>
			<path class="st0" d="M354.46-168.06c0,0,58.98-2.63,81.62-43.97"/>
			<path class="st1" d="M354.56-165.87l-0.2-4.39c0.58-0.03,58.02-3.08,79.8-42.83l3.85,2.11c-9.53,17.4-27.01,30.72-50.54,38.52
				C369.81-166.61,355.17-165.9,354.56-165.87z"/>
		</g>
		<g>
			<path class="st0" d="M381.84-263.38c0,0,11.06,34.76,46.6,37.92"/>
			<path class="st1" d="M428.25-223.28c-36.58-3.25-48.39-39.08-48.5-39.44l4.19-1.33l-2.09,0.67l2.09-0.67
				c0.11,0.33,11.08,33.41,44.71,36.4L428.25-223.28z"/>
		</g>
	</g>
</g>
<g>
	<g>
		<g>
			<path class="st1" d="M1928.86-285.72l3.49-2.99c3.68-3.16,22.46-18.62,30.21-13.14c2.64,1.86,3.49,4.88,2.23,7.87
				c-3.65,8.66-18.84,11.42-31.42,9.1L1928.86-285.72z M1959.3-298.57c-3.02-0.71-10.81,2.7-20.22,10.02
				c12.68,1.01,20.27-3.85,21.66-7.14c0.47-1.12,0.26-1.89-0.72-2.58C1959.83-298.4,1959.59-298.51,1959.3-298.57z"/>
		</g>
		<g>
			<path class="st1" d="M1932.16-284.95l-4.42-1.26c-12.3-3.5-24.69-12.72-24.12-22.09c0.2-3.24,2.3-5.57,5.49-6.06
				c9.39-1.48,19.34,20.72,21.24,25.19L1932.16-284.95z M1910.58-309.98c-0.28-0.07-0.55-0.08-0.78-0.04
				c-1.18,0.18-1.71,0.78-1.79,1.99c-0.22,3.56,4.43,11.29,16.24,16.01C1919.08-302.76,1913.61-309.27,1910.58-309.98z"/>
		</g>
		<g>
			<path class="st1" d="M1932.42-287.33c-0.24,1.01-0.93,1.72-1.56,1.57c-0.62-0.15-0.93-1.09-0.7-2.1s0.93-1.72,1.56-1.57
				C1932.34-289.29,1932.66-288.35,1932.42-287.33z"/>
		</g>
	</g>
	<g>
		<g>
			<path class="st0" d="M1920.18-91.66c0.15,0.03,0.3,0.06,0.45,0.09c8.68,1.61,17.06-4.06,19.07-12.66l3.67-15.67
				c-13.56,5.05-26.06,7.43-35.88,8.51C1905.61-102.47,1911.2-93.49,1920.18-91.66z"/>
			<path class="st1" d="M1919.22-89.63c-4.59-1.07-8.54-3.84-11.16-7.84c-2.76-4.21-3.75-9.45-2.71-14.38l0.33-1.56l1.58-0.17
				c12.08-1.33,23.98-4.15,35.35-8.39l3.84-1.43l-4.6,19.66c-2.3,9.84-11.79,16.13-21.61,14.32l-0.49-0.1c0,0,0,0,0,0l0,0
				C1919.57-89.55,1919.39-89.59,1919.22-89.63z M1909.4-109.4c-0.35,3.34,0.46,6.67,2.33,9.52c2.08,3.16,5.23,5.31,8.9,6.06
				l0.41,0.08c7.5,1.39,14.76-3.44,16.53-11l2.75-11.74C1930.29-113.05,1919.92-110.68,1909.4-109.4z"/>
		</g>
		<g>
			<path class="st0" d="M1951.18-276.2c-6-4.56-13.98-7.95-24.6-9.17c-31.03-3.56-50.84,14.54-58.75,32.47
				C1876.22-252.46,1913.82-252.05,1951.18-276.2z"/>
			<path class="st1" d="M1864.54-250.87l1.28-2.91c8.27-18.76,28.64-37.49,61.01-33.77c10.2,1.17,18.84,4.4,25.68,9.61l2.49,1.89
				l-2.63,1.7c-38.25,24.72-77.23,24.04-84.66,23.65L1864.54-250.87z M1933.21-282.01c-2.2-0.51-4.49-0.91-6.88-1.18
				c-28.28-3.25-46.65,11.93-55.06,28.2c11.61,0.13,43.71-1.54,75.94-21.3C1943.15-278.87,1938.47-280.78,1933.21-282.01z"/>
		</g>
		<g>
			<path class="st0" d="M1914.74-141.52c-2.84,11.83-5.38,22.33-7.15,29.62c-0.04,0.17-0.06,0.34-0.1,0.51
				c9.82-1.08,22.32-3.47,35.88-8.51l7.84-33.48C1938.1-147.13,1925.5-143.55,1914.74-141.52z"/>
			<path class="st1" d="M1904.72-108.87l0.64-3.09c0.03-0.15,0.05-0.31,0.09-0.46c1.77-7.28,4.31-17.77,7.15-29.61l0.33-1.38
				l1.4-0.26c12.52-2.36,24.61-6.29,35.93-11.68l4.13-1.97l-9.15,39.08l-1.1,0.41c-11.71,4.36-23.96,7.27-36.4,8.64L1904.72-108.87z
				 M1916.55-139.63c-2.39,9.96-4.56,18.91-6.2,25.69c10.63-1.4,21.09-3.95,31.16-7.61l6.55-27.96
				C1938.01-145.11,1927.44-141.79,1916.55-139.63z"/>
		</g>
		<g>
			<path class="st0" d="M1966.92-220.51c0.37-1.58,0.67-3.18,0.93-4.78c-12.88,9.72-26.05,16.26-38.3,20.65
				c-2.19,9.69-4.77,20.79-7.42,32.04c11.52-3.11,24.34-8.04,37.27-15.82L1966.92-220.51z"/>
			<path class="st1" d="M1919.15-169.51l0.84-3.58c2.9-12.3,5.39-23.07,7.41-32.02l0.27-1.18l1.14-0.41
				c13.62-4.88,26.31-11.72,37.72-20.34l4.37-3.3l-0.88,5.4c-0.31,1.88-0.61,3.44-0.96,4.92l-7.73,33.01l-0.8,0.48
				c-11.69,7.03-24.42,12.43-37.83,16.05L1919.15-169.51z M1931.42-202.98c-1.77,7.82-3.88,16.97-6.3,27.26
				c11.41-3.39,22.28-8.12,32.35-14.09l7.12-30.41C1954.37-213.11,1943.24-207.33,1931.42-202.98z"/>
		</g>
		<g>
			<path class="st0" d="M1964.53-258.38c-2.64-6.49-6.81-12.85-13.34-17.82c-37.37,24.15-74.97,23.74-83.35,23.3
				c-1.01,2.3-1.83,4.6-2.45,6.85c-3.25,11.79,6.49,23.06,18.63,21.63c0.1-0.01,0.2-0.02,0.29-0.03c6.6-0.79,11.93-5.79,13.15-12.32
				l0.03-0.13c2.94-15.73,30.76-19.25,36.32-1.8C1944.01-243.6,1954.44-249.99,1964.53-258.38z"/>
			<path class="st1" d="M1877.54-222.62c-3.96-0.93-7.58-3.08-10.3-6.26c-4.2-4.9-5.69-11.54-3.97-17.76
				c0.66-2.38,1.52-4.79,2.56-7.15l0.61-1.39l1.51,0.08c7.19,0.38,44.93,1.04,82.05-22.95l1.29-0.84l1.23,0.93
				c6.18,4.7,10.9,11,14.05,18.74l0.61,1.49l-1.24,1.03c-9.48,7.88-19.97,14.59-31.18,19.95l-2.27,1.09l-0.77-2.4
				c-2.55-8-10.17-10.44-16.44-10.05c-6.56,0.41-14.26,4.21-15.63,11.59l-0.03,0.15c-1.41,7.51-7.46,13.18-15.05,14.09l-0.3,0.04
				C1881.98-221.97,1879.71-222.11,1877.54-222.62z M1869.26-250.64c-0.7,1.72-1.29,3.46-1.76,5.17c-1.35,4.89-0.23,9.89,3.07,13.73
				c3.31,3.86,8.12,5.73,13.19,5.13l0.29-0.03c5.68-0.68,10.2-4.92,11.26-10.55l0.03-0.14c1.55-8.29,9.64-14.53,19.68-15.15
				c9.01-0.56,16.59,3.6,19.97,10.75c9.6-4.78,18.63-10.59,26.89-17.3c-2.61-5.83-6.24-10.69-10.82-14.47
				C1915.37-251,1879.39-250.32,1869.26-250.64z"/>
		</g>
		<g>
			<path class="st0" d="M1959.4-188.41c-12.93,7.77-25.76,12.71-37.27,15.82c-2.49,10.58-5.04,21.28-7.39,31.07
				c10.76-2.03,23.36-5.61,36.47-11.86L1959.4-188.41z"/>
			<path class="st1" d="M1911.81-138.73l0.79-3.3c2.35-9.79,4.9-20.48,7.39-31.06l0.3-1.28l1.27-0.34
				c13.02-3.52,25.37-8.76,36.71-15.58l4.46-2.68l-9.62,41.12l-0.95,0.45c-11.66,5.56-24.11,9.61-37,12.04L1911.81-138.73z
				 M1923.97-170.82c-2.12,8.98-4.27,18.01-6.29,26.47c10.98-2.33,21.6-5.88,31.63-10.57l6.8-29.05
				C1946.03-178.38,1935.25-173.97,1923.97-170.82z"/>
		</g>
		<g>
			<path class="st0" d="M1967.85-225.29c1.18-7.28,1.22-14.71-0.12-21.98c-0.66-3.58-1.68-7.37-3.2-11.11
				c-10.09,8.39-20.52,14.78-30.72,19.66c1.12,3.51,1.36,7.85,0.29,13.13c-1.1,5.43-2.68,12.68-4.55,20.96
				C1941.8-209.03,1954.97-215.57,1967.85-225.29z"/>
			<path class="st1" d="M1926.52-201.22l0.88-3.9c1.99-8.83,3.52-15.86,4.54-20.91c0.93-4.59,0.85-8.63-0.23-12.02l-0.58-1.82
				l1.73-0.83c10.89-5.2,21.07-11.72,30.27-19.37l2.31-1.92l1.13,2.78c1.46,3.59,2.58,7.47,3.33,11.54
				c1.34,7.3,1.39,14.95,0.12,22.73l-0.14,0.87l-0.7,0.53c-11.76,8.88-24.85,15.94-38.88,20.97L1926.52-201.22z M1936.4-237.54
				c0.82,3.68,0.77,7.83-0.15,12.38c-0.87,4.3-2.1,10.02-3.67,17.04c11.91-4.65,23.07-10.82,33.23-18.39
				c1.04-6.98,0.96-13.82-0.24-20.36c-0.5-2.73-1.18-5.37-2.03-7.87C1955.17-248.08,1946.06-242.3,1936.4-237.54z"/>
		</g>
	</g>
</g>
<g>
	<g>
		<g>
			<g>
				
					<ellipse transform="matrix(0.2962 -0.9551 0.9551 0.2962 255.4894 -84.2195)" class="st0" cx="70.6" cy="-215.48" rx="68.4" ry="68.4"/>
				<path class="st1" d="M75.94-145.09c-38.81,2.95-72.79-26.23-75.74-65.04c-2.95-38.81,26.23-72.79,65.04-75.74
					c38.81-2.95,72.79,26.23,75.74,65.04C143.93-182.01,114.75-148.04,75.94-145.09z M65.58-281.49c-36.4,2.76-63.76,34.63-61,71.02
					c2.76,36.4,34.63,63.76,71.02,61c36.4-2.76,63.76-34.63,61-71.02C133.84-256.89,101.98-284.25,65.58-281.49z"/>
			</g>
			<g>
				<path class="st0" d="M70.25-310.32c0.32,4.17-2.81,7.81-6.98,8.12c-4.17,0.32-7.81-2.81-8.12-6.98
					c-0.32-4.17,2.81-7.81,6.98-8.12C66.3-317.61,69.93-314.49,70.25-310.32z"/>
				<path class="st1" d="M63.44-300.01c-5.37,0.41-10.07-3.63-10.48-9c-0.41-5.37,3.63-10.07,9-10.48c5.37-0.41,10.07,3.63,10.48,9
					C72.85-305.12,68.81-300.42,63.44-300.01z M62.3-315.11c-2.96,0.22-5.18,2.81-4.95,5.77c0.22,2.95,2.81,5.18,5.77,4.95
					c2.95-0.22,5.17-2.81,4.95-5.76C67.84-313.11,65.25-315.33,62.3-315.11z"/>
			</g>
			<g>
				<path class="st0" d="M81.51-284.04l-33.97,2.58c-1.51,0.11-2.83-1.02-2.95-2.53l-0.94-12.34c-0.12-1.51,1.02-2.83,2.53-2.95
					l33.97-2.58c1.51-0.12,2.83,1.02,2.95,2.53l0.94,12.34C84.16-285.48,83.03-284.15,81.51-284.04z"/>
				<path class="st1" d="M81.41-281.83l-33.43,2.54c-2.87,0.22-5.38-1.94-5.6-4.81l-0.9-11.8c-0.22-2.87,1.94-5.38,4.81-5.6
					l33.43-2.54c2.87-0.22,5.38,1.94,5.6,4.81l0.9,11.8C86.43-284.56,84.28-282.05,81.41-281.83z M46.62-297.11
					c-0.45,0.03-0.79,0.43-0.76,0.88l0.9,11.8c0.03,0.45,0.43,0.79,0.88,0.76l33.43-2.54c0.45-0.03,0.79-0.43,0.76-0.88l-0.9-11.8
					c-0.03-0.45-0.43-0.79-0.88-0.76L46.62-297.11z"/>
			</g>
		</g>
		<g>
			<g>
				<path class="st1" d="M60.87-316.96l2.43-3.9c2.56-4.12,15.8-24.52,24.86-21.63c3.08,0.98,4.8,3.6,4.5,6.84
					c-0.87,9.35-14.53,16.56-27.22,18.13L60.87-316.96z M86.03-338.38c-3.1,0.24-9.5,5.82-16.26,15.64
					c12.4-2.85,18.18-9.78,18.51-13.33c0.11-1.21-0.32-1.88-1.46-2.24C86.59-338.37,86.33-338.4,86.03-338.38z"/>
			</g>
			<g>
				<path class="st1" d="M64.26-317.21l-4.6,0.13c-12.78,0.37-27.37-4.7-29.65-13.81c-0.79-3.15,0.52-6,3.41-7.44
					c8.51-4.23,24.68,13.94,27.84,17.62L64.26-317.21z M36.14-334.59c-0.29,0.02-0.55,0.09-0.76,0.19c-1.07,0.53-1.4,1.26-1.1,2.44
					c0.86,3.46,7.62,9.43,20.31,10.38C46.41-330.26,39.24-334.82,36.14-334.59z"/>
			</g>
			<g>
				<path class="st1" d="M63.78-319.57c0.08,1.04-0.37,1.92-1.01,1.97c-0.64,0.05-1.22-0.75-1.3-1.79
					c-0.08-1.04,0.37-1.92,1.01-1.97C63.12-321.41,63.7-320.61,63.78-319.57z"/>
			</g>
		</g>
	</g>
	<rect x="59.36" y="-458.1" class="st1" width="6.95" height="138.71"/>
</g>
<g>
	<g>
		<g>
			<g>
				<path class="st1" d="M269.93-350.19l3.16-3.34c3.33-3.53,20.37-20.89,28.66-16.26c2.82,1.57,3.99,4.48,3.05,7.59
					c-2.71,8.99-17.53,13.35-30.28,12.36L269.93-350.19z M298.85-366.19c-3.08-0.38-10.47,3.82-19.05,12.1
					c12.72-0.33,19.76-5.98,20.79-9.39c0.35-1.16,0.06-1.91-0.99-2.49C299.39-366.08,299.14-366.15,298.85-366.19z"/>
			</g>
			<g>
				<path class="st1" d="M273.3-349.77l-4.53-0.78c-12.6-2.18-25.89-10.04-26.31-19.42c-0.15-3.24,1.7-5.78,4.82-6.61
					c9.19-2.45,21.43,18.56,23.79,22.8L273.3-349.77z M249.2-372.38c-0.29-0.04-0.55-0.02-0.79,0.04c-1.15,0.31-1.62,0.96-1.57,2.17
					c0.16,3.56,5.6,10.76,17.84,14.2C258.4-366.1,252.28-372,249.2-372.38z"/>
			</g>
			<g>
				<path class="st1" d="M273.3-352.17c-0.13,1.03-0.75,1.81-1.38,1.73c-0.63-0.08-1.04-0.98-0.91-2.02
					c0.13-1.03,0.75-1.81,1.38-1.73C273.02-354.11,273.43-353.21,273.3-352.17z"/>
			</g>
		</g>
		<g>
			<g>
				<path class="st0" d="M300.36-252.83c0,0,10.96-22.93,3.34-50.38c-7.62-27.45-3.36-37.96,18.93-39.6l0.99-13.86
					c0,0-136.18,5.84-134.62,93.64L300.36-252.83z"/>
				<path class="st1" d="M186.84-261.02l-0.03-1.97c-0.66-36.92,22.91-65.22,68.16-81.85c33.78-12.41,68.21-14.01,68.56-14.03
					l2.46-0.11l-1.3,18.22l-1.89,0.14c-9.25,0.68-14.9,2.9-17.77,6.98c-3.71,5.27-3.46,14.47,0.8,29.84
					c7.75,27.92-3.01,50.95-3.47,51.91l-0.66,1.38L186.84-261.02z M321.25-354.32c-8.39,0.61-36.87,3.34-64.85,13.64
					c-43.07,15.85-65,41.29-65.21,75.65l107.78,9.88c2.12-5.28,8.87-24.92,2.61-47.46c-4.71-16.98-4.76-27.01-0.16-33.54
					c3.47-4.93,9.58-7.7,19.15-8.67L321.25-354.32z"/>
			</g>
			<g>
				<path class="st0" d="M302.58-206.91L178.35-222.4c-2.57-0.32-4.39-2.66-4.07-5.23l4.26-34.19c0.32-2.57,2.66-4.39,5.23-4.07
					l124.24,15.49c2.57,0.32,4.39,2.66,4.07,5.23l-4.26,34.19C307.49-208.41,305.15-206.59,302.58-206.91z"/>
				<path class="st1" d="M301.86-204.78l-123.32-15.38c-4.02-0.5-6.88-4.18-6.38-8.2l4.15-33.28c0.5-4.02,4.18-6.88,8.2-6.38
					l123.32,15.38c4.02,0.5,6.88,4.18,6.38,8.2l-4.15,33.28C309.55-207.15,305.87-204.28,301.86-204.78z M183.96-263.66
					c-1.61-0.2-3.09,0.95-3.29,2.56l-4.15,33.28c-0.2,1.61,0.95,3.09,2.56,3.29l123.32,15.38c1.61,0.2,3.09-0.95,3.29-2.56
					l4.15-33.28c0.2-1.61-0.95-3.09-2.56-3.29L183.96-263.66z"/>
			</g>
			<g>
				
					<ellipse transform="matrix(0.8097 -0.5868 0.5868 0.8097 271.1146 127.9616)" class="st0" cx="332.86" cy="-354.05" rx="16.8" ry="16.8"/>
				<path class="st1" d="M330.51-335.19c-10.4-1.3-17.8-10.81-16.5-21.21c1.3-10.4,10.81-17.8,21.21-16.5
					c10.4,1.3,17.8,10.81,16.5,21.21C350.42-341.3,340.9-333.89,330.51-335.19z M334.67-368.54c-7.99-1-15.31,4.7-16.3,12.69
					c-1,7.99,4.69,15.31,12.69,16.3c7.99,1,15.31-4.69,16.3-12.69C348.35-360.23,342.66-367.55,334.67-368.54z"/>
			</g>
		</g>
	</g>
	<rect x="268.6" y="-458.1" class="st1" width="6.95" height="106.93"/>
</g>
<rect x="396.77" y="-458.1" class="st1" width="6.95" height="166.1"/>
<rect x="1767.66" y="-458.1" class="st1" width="6.95" height="160.62"/>
<rect x="1637.56" y="-458.1" class="st1" width="6.95" height="196.78"/>
<rect x="1927.94" y="-458.1" class="st1" width="6.95" height="173.77"/>
<g>
	<path class="st1" d="M31.52-205.8c1.45-0.23,2.51-1.42,2.64-2.82l7.8-1.22l-4.73,6.48l1.24,0.9l5.63-7.72l4.07-0.63l-4.73,6.48
		l1.24,0.9l5.63-7.72l4.06-0.63l-4.73,6.48l1.24,0.9l5.63-7.72l1.72-0.27c0.56,2.81,2.06,5.23,4.11,6.97l-0.97,1.32l-9.44,1.47
		l0.24,1.52l7.92-1.24l-2.43,3.32l-9.44,1.47l0.24,1.52l7.92-1.24l-2.43,3.32l-9.44,1.47l0.24,1.52l7.92-1.24l-4.65,6.38
		c-1.3-0.53-2.85-0.13-3.71,1.06c-1.02,1.4-0.72,3.37,0.69,4.39c1.4,1.02,3.37,0.72,4.39-0.69c0.87-1.19,0.78-2.78-0.12-3.86
		l4.65-6.38l1.24,7.92l1.52-0.24l-1.47-9.44l2.43-3.32l1.24,7.92l1.52-0.24l-1.47-9.44l2.43-3.32l1.24,7.92l1.52-0.24l-1.47-9.44
		l0.95-1.3c2.27,1.5,5.04,2.26,7.92,2l0.24,1.55l-5.63,7.72l1.24,0.9l4.73-6.48l0.63,4.06l-5.63,7.72l1.24,0.9l4.73-6.48l0.63,4.07
		l-5.63,7.72l1.24,0.9l4.73-6.48l1.22,7.8c-1.29,0.55-2.1,1.92-1.88,3.37c0.27,1.71,1.87,2.89,3.59,2.62
		c1.71-0.27,2.89-1.87,2.62-3.59c-0.23-1.45-1.42-2.51-2.82-2.64l-1.22-7.8l6.48,4.73l0.9-1.24l-7.72-5.63l-0.63-4.06l6.48,4.73
		l0.9-1.24l-7.72-5.63l-0.63-4.07l6.48,4.73l0.9-1.24l-7.72-5.63l-0.24-1.54c2.82-0.61,5.23-2.16,6.95-4.26l1.32,0.97l1.47,9.44
		l1.52-0.24l-1.24-7.92l3.32,2.43l1.47,9.44l1.52-0.24l-1.24-7.92l3.32,2.43l1.47,9.44l1.52-0.24l-1.24-7.92l6.38,4.65
		c-0.53,1.3-0.13,2.85,1.06,3.71c1.4,1.02,3.37,0.72,4.39-0.69c1.02-1.4,0.72-3.37-0.69-4.39c-1.19-0.87-2.78-0.78-3.86,0.12
		l-6.38-4.65l7.92-1.24l-0.24-1.52l-9.44,1.47l-3.32-2.43l7.92-1.24l-0.24-1.52l-9.44,1.47l-3.32-2.43l7.92-1.24l-0.24-1.52
		l-9.44,1.47l-1.33-0.97c1.45-2.29,2.16-5.07,1.84-7.94l1.72-0.26l7.7,5.65l0.91-1.24l-6.46-4.75l4.07-0.62l7.7,5.65l0.91-1.24
		l-6.46-4.75l4.07-0.62l7.7,5.65l0.91-1.24l-6.46-4.75l7.8-1.19c0.55,1.3,1.91,2.11,3.37,1.89c1.72-0.26,2.89-1.87,2.63-3.58
		c-0.26-1.72-1.87-2.89-3.58-2.63c-1.45,0.22-2.52,1.41-2.65,2.81l-7.8,1.19l4.75-6.46l-1.24-0.91l-5.65,7.7l-4.07,0.62l4.75-6.46
		l-1.24-0.91l-5.65,7.7l-4.07,0.62l4.75-6.46l-1.24-0.91l-5.65,7.7l-1.75,0.27c-0.65-2.74-2.18-5.09-4.25-6.76l1.11-1.51l9.44-1.45
		l-0.23-1.52l-7.92,1.21l2.44-3.32l9.44-1.45l-0.23-1.52l-7.92,1.21l2.44-3.32l9.44-1.45l-0.23-1.52l-7.92,1.21l4.67-6.36
		c1.3,0.53,2.85,0.14,3.72-1.05c1.03-1.4,0.73-3.36-0.67-4.39c-1.4-1.03-3.36-0.73-4.39,0.67c-0.87,1.18-0.78,2.78,0.11,3.86
		l-4.67,6.36l-1.21-7.92l-1.52,0.23l1.45,9.44l-2.44,3.32l-1.21-7.92l-1.52,0.23l1.45,9.44l-2.44,3.32l-1.21-7.92l-1.52,0.23
		l1.45,9.44l-1.13,1.53c-2.23-1.39-4.92-2.09-7.7-1.83l-0.29-1.91l5.65-7.7l-1.24-0.91l-4.75,6.46l-0.62-4.07l5.65-7.7l-1.24-0.91
		l-4.75,6.46l-0.62-4.07l5.65-7.7l-1.24-0.91l-4.75,6.46l-1.19-7.8c1.3-0.55,2.11-1.91,1.89-3.37c-0.26-1.72-1.87-2.89-3.58-2.63
		c-1.72,0.26-2.89,1.87-2.63,3.58c0.22,1.45,1.41,2.52,2.81,2.65l1.19,7.8l-6.46-4.75l-0.91,1.24l7.7,5.65l0.62,4.07l-6.46-4.75
		l-0.91,1.24l7.7,5.65l0.62,4.07l-6.46-4.75l-0.91,1.24l7.7,5.65l0.29,1.92c-2.74,0.6-5.08,2.09-6.79,4.11l-1.51-1.11l-1.45-9.44
		l-1.52,0.23l1.21,7.92l-3.32-2.44l-1.45-9.44l-1.52,0.23l1.21,7.92l-3.32-2.44l-1.45-9.44l-1.52,0.23l1.21,7.92l-6.36-4.67
		c0.53-1.3,0.14-2.85-1.05-3.72c-1.4-1.03-3.36-0.73-4.39,0.67s-0.73,3.36,0.67,4.39c1.18,0.87,2.77,0.78,3.86-0.11l6.36,4.67
		l-7.92,1.21l0.23,1.52l9.44-1.45l3.32,2.44l-7.92,1.21l0.23,1.52l9.44-1.45l3.32,2.44l-7.92,1.21l0.23,1.52l9.44-1.45l1.51,1.11
		c-1.44,2.21-2.19,4.89-1.98,7.68l-1.75,0.27l-7.72-5.63l-0.9,1.24l6.48,4.73l-4.06,0.63l-7.72-5.63l-0.9,1.24l6.48,4.73l-4.06,0.63
		l-7.72-5.63l-0.9,1.24l6.48,4.73l-7.8,1.22c-0.55-1.29-1.92-2.1-3.37-1.88c-1.71,0.27-2.89,1.87-2.62,3.59
		C28.2-206.71,29.81-205.54,31.52-205.8z M59.33-212.55l6.07-0.95c0.23,0.86,0.66,1.61,1.24,2.22L63-206.29
		C61.17-207.87,59.84-210.03,59.33-212.55z M64.22-205.37l3.62-4.96c0.76,0.43,1.62,0.67,2.53,0.67l0.95,6.09
		C68.74-203.35,66.27-204.03,64.22-205.37z M72.84-203.8l-0.95-6.08c0.86-0.26,1.62-0.74,2.22-1.36l4.97,3.63
		C77.52-205.74,75.36-204.36,72.84-203.8z M79.97-208.87L75-212.5c0.39-0.78,0.6-1.66,0.55-2.57l6.07-0.93
		C81.89-213.42,81.26-210.93,79.97-208.87z M81.35-217.51l-6.11,0.93c-0.28-0.79-0.75-1.48-1.35-2.03l3.64-4.95
		C79.38-222.05,80.75-219.96,81.35-217.51z M76.28-224.44l-3.65,4.97c-0.7-0.34-1.49-0.52-2.3-0.51l-0.93-6.09
		C71.89-226.29,74.28-225.67,76.28-224.44z M67.88-225.83l0.93,6.09c-0.78,0.25-1.47,0.67-2.04,1.22l-4.96-3.65
		C63.35-223.95,65.44-225.28,67.88-225.83z M60.9-220.93l4.96,3.64c-0.37,0.68-0.6,1.45-0.63,2.26l-6.1,0.95
		C58.95-216.56,59.62-218.95,60.9-220.93z"/>
</g>
<g>
	<g>
		<path class="st2" d="M-4.28,37.59c21.82-11.5,46.8-23.84,72.24-20.18c20.05,2.89,40.82,17,43.25,38.43
			c0.23,2.02,2.55,3.34,4.18,1.73c20.88-20.57,49.07-33.34,78.42-34.79c14.94-0.74,30.68,1.21,43.6,9.26
			c12.58,7.83,21.16,21.77,19.84,36.82c-0.18,2.01,2.89,3.39,4.18,1.73c18.45-23.64,48.23-37.53,78.3-35.41
			c29.78,2.1,57.29,19.93,72.14,45.66c0.88,1.53,3.38,1.66,4.23,0c12.55-24.49,38.59-41.34,66.3-41.57
			c27.73-0.24,54.06,15.96,67.11,40.25c0.71,1.33,2.82,1.66,3.85,0.5C573.9,56.76,603,41.56,633.92,38.33
			c25.81-2.7,61.81,2.66,72.11,30.63c0.58,1.56,2.81,2.62,4.1,1.08c19.91-23.81,49.42-38.74,80.4-40.82
			c25.43-1.7,66.69,6.27,70.01,37.79c0.26,2.5,4.3,3.61,4.81,0.65c2.7-15.5,15.67-25.74,28.81-32.79
			c12.43-6.67,25.94-11.22,39.8-13.77c27.75-5.09,56.99-1.89,83.1,8.73c15.06,6.12,28.95,14.89,40.96,25.84
			c2.33,2.12,5.8-1.33,3.46-3.46c-44.71-40.79-114.61-50.34-168.42-22.3c-14.68,7.65-29.44,19.22-32.44,36.45
			c1.6,0.22,3.21,0.43,4.81,0.65c-2.51-23.77-26.16-37.37-47.7-41.22c-25.9-4.63-53.13,0.26-76.29,12.58
			c-13.29,7.07-25.13,16.65-34.79,28.2c1.36,0.36,2.73,0.72,4.09,1.08c-10.69-29.03-45.94-36.66-73.5-34.53
			c-33.4,2.57-65.19,18.32-87.36,43.43c1.28,0.17,2.57,0.33,3.85,0.5c-13.83-25.75-41.97-42.96-71.34-42.68
			c-29.36,0.28-57.2,17.98-70.53,44c1.41,0,2.82,0,4.23,0c-15.48-26.82-43.85-45.23-74.77-47.96c-31.71-2.8-63.87,11.73-83.37,36.72
			c1.39,0.58,2.79,1.15,4.18,1.73c1.3-14.77-6.19-28.81-17.66-37.82c-12.76-10.02-29.54-13.37-45.44-13.31
			c-32.45,0.13-64.08,13.67-87.13,36.37c1.39,0.58,2.79,1.15,4.18,1.73c-2.56-22.49-22.27-38.18-43.51-42.58
			C44.8,7.51,17.18,20.74-6.75,33.36C-9.54,34.83-7.07,39.06-4.28,37.59L-4.28,37.59z"/>
	</g>
</g>
<g>
	<path class="st3" d="M119.57,99.4c1.98-4.78,3.09-10.17,2.4-15.23c-0.99-7.25-5.42-12.75-8.63-18.81l-0.98-0.17
		c-5.2,4.56-11.32,8.12-14.85,14.47c-2.47,4.43-3.36,9.79-3.23,14.92c0.13,5.13,1.22,10.1,2.44,14.97c0.91,3.63,1.9,7.24,2.96,10.82
		c0.82,2.75,3.81,3.35,5.56,1.12c2.28-2.92,4.49-5.9,6.65-8.95C114.78,108.43,117.59,104.18,119.57,99.4z"/>
	<path class="st4" d="M119.57,99.4c1.98-4.78,3.09-10.17,2.4-15.23c-0.99-7.25-5.42-12.75-8.63-18.81l-0.98-0.17
		c-5.2,4.56-11.32,8.12-14.85,14.47c-2.47,4.43-3.36,9.79-3.23,14.92c0.13,5.13,1.22,10.1,2.44,14.97c0.91,3.63,1.9,7.24,2.96,10.82
		c0.82,2.75,3.81,3.35,5.56,1.12c2.28-2.92,4.49-5.9,6.65-8.95C114.78,108.43,117.59,104.18,119.57,99.4z"/>
	<path class="st3" d="M101.69,119.7c-0.22-0.05-0.77-0.23-1-1c-1.05-3.54-2.04-7.14-2.93-10.71c-1.33-5.32-2.24-9.79-2.36-14.39
		c-0.09-3.64,0.33-8.93,2.89-13.52c2.37-4.26,6.1-7.19,10.05-10.31c1.04-0.82,2.11-1.66,3.15-2.54c0.67,1.15,1.36,2.32,2.03,3.47
		c2.56,4.3,4.98,8.38,5.65,13.24c0.72,5.24-0.8,10.38-2.21,13.77c-1.77,4.28-4.24,8.14-7.4,12.6c-2.12,2.99-4.33,5.97-6.58,8.85
		C102.49,119.78,101.91,119.75,101.69,119.7z"/>
	<path class="st5" d="M101.17,111.83c-0.73-2.56-1.42-5.14-2.06-7.7c-1.27-5.06-2.14-9.29-2.24-13.52
		c-0.08-3.12,0.27-7.63,2.37-11.41c2-3.6,5.46-6.32,9.13-9.22l0.72-0.57l0.47,0.79c2.38,3.98,4.63,7.76,5.19,11.86
		c0.59,4.31-0.72,8.67-1.92,11.57c-1.63,3.93-3.97,7.57-6.97,11.81C104.34,107.59,102.76,109.73,101.17,111.83z"/>
</g>
<path class="st2" d="M110.48,50.62c-2.56,6.59-4.76,13.33-6.57,20.19c5.11,1.01,10.24,1.91,15.39,2.71
	c0.31-7.32,0.46-14.63,0.42-21.91C116.71,50.98,113.6,50.74,110.48,50.62z"/>
<g>
	<path class="st0" d="M105.1,75.16c-4.19,1.15-6.33,8.59-5.98,12.84c0.02,0.28,0.36,0.29,0.42,0.01c0.55-2.38,1.29-4.87,2.34-7.05
		c0.96-1.98,2.55-3.5,3.37-5.54C105.29,75.3,105.23,75.13,105.1,75.16z"/>
</g>
<g>
	<path class="st0" d="M99.19,90.4c-0.44,1.23-0.58,2.47,0.14,3.52c0.1,0.15,0.32,0.11,0.36-0.1c0.05-0.28,0.04-0.56,0.09-0.85
		c0.04-0.22,0.12-0.42,0.15-0.64c0.07-0.54,0.02-1.09,0.1-1.63C100.11,90.14,99.41,89.81,99.19,90.4z"/>
</g>
<g>
	<path class="st6" d="M275.07,106.82c0.85-4.42,0.77-9.12-0.96-13.26c-2.47-5.92-7.88-9.87-12.16-14.64l-0.99,0
		c-4.26,4.8-9.57,9.01-11.71,15.33c-1.49,4.41-1.19,9.38,0.11,13.88c1.3,4.5,3.55,8.61,5.93,12.53c1.78,2.93,3.64,5.79,5.6,8.56
		c1.5,2.13,4.54,1.84,5.65-0.5c1.44-3.05,2.83-6.11,4.18-9.19C272.5,115.41,274.22,111.23,275.07,106.82z"/>
	<path class="st7" d="M275.07,106.82c0.85-4.42,0.77-9.12-0.96-13.26c-2.47-5.92-7.88-9.87-12.16-14.64l-0.99,0
		c-4.26,4.8-9.57,9.01-11.71,15.33c-1.49,4.41-1.19,9.38,0.11,13.88c1.3,4.5,3.55,8.61,5.93,12.53c1.78,2.93,3.64,5.79,5.6,8.56
		c1.5,2.13,4.54,1.84,5.65-0.5c1.44-3.05,2.83-6.11,4.18-9.19C272.5,115.41,274.22,111.23,275.07,106.82z"/>
	<path class="st6" d="M262.65,128.14c-0.23,0.02-0.8,0-1.22-0.6c-1.92-2.75-3.78-5.61-5.52-8.48c-2.58-4.29-4.52-8.01-5.69-12.04
		c-0.91-3.18-1.67-7.98-0.13-12.54c1.44-4.23,4.5-7.5,7.78-10.9c0.86-0.91,1.75-1.83,2.61-2.74c0.87,0.92,1.77,1.82,2.65,2.68
		c3.34,3.3,6.53,6.36,8.18,10.35c1.79,4.31,1.43,8.92,0.82,12.07c-0.76,3.97-2.26,7.76-4.24,12.28c-1.32,3.03-2.72,6.1-4.15,9.12
		C263.44,128,262.88,128.12,262.65,128.14z"/>
	<path class="st8" d="M260.15,121.55c-1.34-2.02-2.64-4.08-3.87-6.15c-2.43-4.09-4.26-7.62-5.3-11.32
		c-0.78-2.73-1.41-6.8-0.14-10.55c1.22-3.57,4.06-6.6,7.1-9.75l0.6-0.62l0.61,0.61c3.1,3.08,6.06,5.94,7.46,9.35
		c1.47,3.58,1.13,7.54,0.6,10.26c-0.73,3.68-2.15,7.28-4.07,11.6C262.18,117.14,261.17,119.35,260.15,121.55z"/>
</g>
<path class="st2" d="M256.54,66.4c-1.42,6.17-2.36,12.49-2.8,18.85c5.21,0.01,10.42-0.08,15.62-0.26
	c-1.11-6.31-2.3-12.63-3.55-18.94C262.74,65.89,259.63,66.08,256.54,66.4z"/>
<g>
	<path class="st0" d="M255.76,88.87c-3.89,1.75-4.45,8.77-3.16,12.43c0.08,0.24,0.41,0.18,0.41-0.08c0.02-2.21,0.21-4.54,0.78-6.66
		c0.53-1.93,1.77-3.56,2.16-5.49C255.97,88.96,255.87,88.82,255.76,88.87z"/>
</g>
<g>
	<path class="st0" d="M253.2,103.4c-0.15,1.17-0.01,2.29,0.93,3.05c0.13,0.11,0.33,0.03,0.33-0.16c-0.01-0.26-0.09-0.5-0.1-0.76
		c-0.01-0.2,0.02-0.4,0-0.59c-0.05-0.49-0.22-0.95-0.27-1.44C254.03,102.98,253.27,102.83,253.2,103.4z"/>
</g>
<g>
	<path class="st9" d="M428.76,122.32c0.9-4.81,0.83-9.99-0.94-14.51c-2.53-6.47-8.04-10.64-12.49-15.61l-0.99,0.03
		c-4.09,5.27-9.3,9.81-11.38,16.44c-1.45,4.63-1.17,9.8,0.07,14.54c1.24,4.74,3.37,9.11,5.61,13.35c1.67,3.17,3.42,6.28,5.22,9.35
		c1.39,2.35,4.44,2.25,5.67-0.2c1.59-3.19,3.11-6.42,4.56-9.69C426.03,131.64,427.86,127.13,428.76,122.32z"/>
	<path class="st10" d="M428.76,122.32c0.9-4.81,0.83-9.99-0.94-14.51c-2.53-6.47-8.04-10.64-12.49-15.61l-0.99,0.03
		c-4.09,5.27-9.3,9.81-11.38,16.44c-1.45,4.63-1.17,9.8,0.07,14.54c1.24,4.74,3.37,9.11,5.61,13.35c1.67,3.17,3.42,6.28,5.22,9.35
		c1.39,2.35,4.44,2.25,5.67-0.2c1.59-3.19,3.11-6.42,4.56-9.69C426.03,131.64,427.86,127.13,428.76,122.32z"/>
	<path class="st9" d="M415.68,144.87c-0.23,0.01-0.8-0.04-1.19-0.7c-1.79-3.04-3.53-6.15-5.17-9.26c-2.45-4.63-4.3-8.59-5.41-12.83
		c-0.88-3.36-1.6-8.36-0.1-13.16c1.39-4.45,4.4-7.93,7.59-11.62c0.84-0.97,1.7-1.97,2.53-2.99c0.9,0.96,1.83,1.89,2.73,2.8
		c3.43,3.46,6.68,6.73,8.37,11.07c1.83,4.68,1.45,9.73,0.82,13.14c-0.81,4.31-2.39,8.39-4.51,13.18c-1.42,3.21-2.94,6.44-4.52,9.6
		C416.48,144.77,415.91,144.86,415.68,144.87z"/>
	<path class="st11" d="M413.47,137.72c-1.26-2.21-2.49-4.44-3.67-6.67c-2.33-4.41-4.09-8.15-5.11-12.05
		c-0.75-2.88-1.39-7.14-0.15-11.09c1.18-3.76,3.97-6.99,6.92-10.42c0.19-0.22,0.39-0.45,0.58-0.68c0.21,0.21,0.42,0.42,0.63,0.63
		c3.18,3.21,6.19,6.24,7.63,9.91c1.51,3.85,1.17,8.15,0.62,11.07c-0.74,3.96-2.24,7.82-4.26,12.38
		C415.65,133.11,414.58,135.43,413.47,137.72z"/>
</g>
<path class="st2" d="M409.35,79.1c-1.08,6.62-1.77,13.32-2.05,20.05c5.21-0.1,10.41-0.31,15.61-0.61
	c-1.27-6.82-2.71-13.6-4.32-20.33C415.52,78.22,412.43,78.59,409.35,79.1z"/>
<g>
	<path class="st0" d="M409.4,102.94c-3.84,1.92-4.33,9.28-3.07,13.15c0.08,0.26,0.41,0.2,0.41-0.08c0.03-2.33,0.2-4.79,0.76-7.03
		c0.51-2.03,1.74-3.77,2.09-5.83C409.62,103.04,409.51,102.89,409.4,102.94z"/>
</g>
<g>
	<path class="st0" d="M406.92,118.3c-0.16,1.23-0.04,2.41,0.9,3.23c0.13,0.11,0.33,0.04,0.33-0.17c-0.01-0.27-0.08-0.53-0.09-0.81
		c-0.01-0.21,0.02-0.42,0.01-0.63c-0.04-0.51-0.21-1.01-0.26-1.53C407.76,117.87,407,117.71,406.92,118.3z"/>
</g>
<g>
	<path class="st3" d="M572.92,112.76c0.33-4.64-0.38-9.52-2.71-13.52c-3.34-5.73-9.36-8.82-14.45-12.75l-0.97,0.18
		c-3.31,5.51-7.86,10.46-9.08,16.83c-0.86,4.45,0.03,9.16,1.8,13.35c1.76,4.2,4.35,7.97,7.01,11.63c1.99,2.74,4.03,5.43,6.12,8.09
		c1.61,2.04,4.64,1.62,5.61-0.79c1.27-3.15,2.46-6.35,3.55-9.59C571.27,121.86,572.59,117.4,572.92,112.76z"/>
	<path class="st4" d="M572.92,112.76c0.33-4.64-0.38-9.52-2.71-13.52c-3.34-5.73-9.36-8.82-14.45-12.75l-0.97,0.18
		c-3.31,5.51-7.86,10.46-9.08,16.83c-0.86,4.45,0.03,9.16,1.8,13.35c1.76,4.2,4.35,7.97,7.01,11.63c1.99,2.74,4.03,5.43,6.12,8.09
		c1.61,2.04,4.64,1.62,5.61-0.79c1.27-3.15,2.46-6.35,3.55-9.59C571.27,121.86,572.59,117.4,572.92,112.76z"/>
	<path class="st3" d="M562.34,135.41c-0.23,0.03-0.8,0.05-1.25-0.52c-2.08-2.63-4.12-5.32-6.07-8.01c-2.92-4-5.19-7.41-6.77-11.18
		c-1.25-2.98-2.56-7.47-1.67-12.09c0.82-4.28,3.35-7.92,6-11.81c0.7-1.02,1.41-2.07,2.09-3.14c1.02,0.72,2.06,1.47,3.08,2.19
		c3.87,2.7,7.5,5.29,9.74,9.12c2.41,4.13,2.65,8.93,2.42,12.21c-0.3,4.15-1.41,8.17-3,12.9c-1.07,3.17-2.25,6.36-3.51,9.47
		C563.13,135.23,562.57,135.38,562.34,135.41z"/>
	<path class="st5" d="M559.43,129c-1.48-1.91-2.94-3.83-4.35-5.76c-2.79-3.8-4.95-7.02-6.42-10.48c-1.08-2.55-2.22-6.38-1.49-10.18
		c0.69-3.62,3.04-7,5.5-10.61l0.49-0.71l0.71,0.49c3.58,2.5,6.96,4.89,8.85,8.11c1.99,3.39,2.18,7.45,1.98,10.25
		c-0.26,3.8-1.31,7.59-2.82,12.08C561.12,124.47,560.3,126.75,559.43,129z"/>
</g>
<path class="st2" d="M547.98,75.33c-0.08,6.27,0.18,12.55,0.79,18.79c5.14-0.86,10.26-1.82,15.36-2.86
	c-2.18-6.19-4.57-12.28-7.17-18.27C553.93,73.5,550.94,74.36,547.98,75.33z"/>
<g>
	<path class="st0" d="M551.35,97.32c-3.54,2.33-3.1,9.16-1.4,12.56c0.11,0.23,0.43,0.13,0.4-0.13c-0.25-2.15-0.38-4.44-0.1-6.59
		c0.24-1.95,1.25-3.72,1.32-5.68C551.57,97.37,551.45,97.25,551.35,97.32z"/>
</g>
<g>
	<path class="st0" d="M550.79,111.83c-0.02,1.16,0.25,2.23,1.27,2.87c0.14,0.09,0.34-0.01,0.31-0.2c-0.04-0.25-0.14-0.48-0.19-0.73
		c-0.03-0.19-0.02-0.39-0.07-0.58c-0.1-0.47-0.33-0.91-0.43-1.38C551.57,111.32,550.8,111.27,550.79,111.83z"/>
</g>
<g>
	<path class="st6" d="M719.19,102.25c1.42-3.82,1.91-8.06,0.64-11.96c-1.81-5.58-6.83-9.64-10.7-14.23l-0.99-0.09
		c-4.63,3.81-10.3,6.91-13.08,12.08c-1.94,3.61-2.22,7.87-1.51,11.88c0.71,4.01,2.36,7.84,4.12,11.56c1.32,2.78,2.71,5.54,4.17,8.26
		c1.12,2.09,4.17,2.36,5.65,0.51c1.93-2.41,3.79-4.87,5.58-7.37C715.47,109.53,717.77,106.07,719.19,102.25z"/>
	<path class="st7" d="M719.19,102.25c1.42-3.82,1.91-8.06,0.64-11.96c-1.81-5.58-6.83-9.64-10.7-14.23l-0.99-0.09
		c-4.63,3.81-10.3,6.91-13.08,12.08c-1.94,3.61-2.22,7.87-1.51,11.88c0.71,4.01,2.36,7.84,4.12,11.56c1.32,2.78,2.71,5.54,4.17,8.26
		c1.12,2.09,4.17,2.36,5.65,0.51c1.93-2.41,3.79-4.87,5.58-7.37C715.47,109.53,717.77,106.07,719.19,102.25z"/>
	<path class="st6" d="M703.76,119.11c-0.23-0.02-0.79-0.13-1.11-0.72c-1.45-2.69-2.84-5.44-4.13-8.17
		c-1.93-4.07-3.34-7.52-3.98-11.12c-0.5-2.84-0.68-7.02,1.33-10.76c1.87-3.46,5.23-5.95,8.79-8.59c0.94-0.69,1.9-1.4,2.84-2.14
		c0.79,0.89,1.61,1.76,2.41,2.61c3.03,3.23,5.9,6.29,7.11,10.03c1.31,4.04,0.39,8.11-0.62,10.82c-1.27,3.42-3.28,6.56-5.91,10.22
		c-1.76,2.46-3.62,4.91-5.53,7.3C704.56,119.12,703.98,119.13,703.76,119.11z"/>
	<path class="st8" d="M702.34,113.01c-1.01-1.95-1.99-3.92-2.92-5.88c-1.83-3.88-3.18-7.14-3.76-10.44
		c-0.43-2.44-0.6-5.99,1.06-9.07c1.58-2.93,4.7-5.24,8.01-7.69c0.22-0.16,0.43-0.32,0.65-0.48c0.19,0.2,0.37,0.4,0.56,0.59
		c2.81,3,5.47,5.83,6.5,9c1.08,3.33,0.28,6.79-0.59,9.11c-1.17,3.15-3.07,6.12-5.57,9.6C705,109.51,703.69,111.27,702.34,113.01z"/>
</g>
<path class="st2" d="M704.62,64.66c-1.79,5.28-3.2,10.67-4.22,16.13c5.18,0.53,10.37,0.98,15.56,1.35
	c-0.52-5.72-1.21-11.43-2.08-17.11C710.84,64.67,707.73,64.61,704.62,64.66z"/>
<g>
	<path class="st0" d="M702.07,84.14c-4.02,1.11-5.31,7.06-4.48,10.37c0.06,0.22,0.39,0.21,0.42-0.02c0.28-1.9,0.72-3.89,1.52-5.65
		c0.72-1.6,2.14-2.87,2.71-4.51C702.28,84.24,702.19,84.1,702.07,84.14z"/>
</g>
<g>
	<path class="st0" d="M697.95,96.38c-0.3,0.99-0.3,1.96,0.54,2.75c0.12,0.11,0.33,0.07,0.34-0.1c0.02-0.23-0.02-0.44,0-0.67
		c0.02-0.17,0.07-0.34,0.07-0.51c0.01-0.43-0.1-0.85-0.09-1.28C698.82,96.13,698.09,95.9,697.95,96.38z"/>
</g>
<g>
	<path class="st9" d="M884.75,98.33c0.57-4.37,0.08-9-2.07-12.83c-3.09-5.49-8.97-8.53-13.9-12.28l-0.98,0.16
		c-3.51,5.11-8.25,9.63-9.76,15.51c-1.06,4.11-0.4,8.48,1.14,12.43c1.54,3.95,3.91,7.53,6.36,11.05c1.83,2.62,3.7,5.22,5.63,7.8
		c1.48,1.98,4.53,1.74,5.65-0.48c1.47-2.89,2.84-5.83,4.11-8.83C882.63,106.85,884.19,102.69,884.75,98.33z"/>
	<path class="st10" d="M884.75,98.33c0.57-4.37,0.08-9-2.07-12.83c-3.09-5.49-8.97-8.53-13.9-12.28l-0.98,0.16
		c-3.51,5.11-8.25,9.63-9.76,15.51c-1.06,4.11-0.4,8.48,1.14,12.43c1.54,3.95,3.91,7.53,6.36,11.05c1.83,2.62,3.7,5.22,5.63,7.8
		c1.48,1.98,4.53,1.74,5.65-0.48c1.47-2.89,2.84-5.83,4.11-8.83C882.63,106.85,884.19,102.69,884.75,98.33z"/>
	<path class="st9" d="M872.94,119.15c-0.23,0.02-0.8,0.01-1.22-0.55c-1.91-2.55-3.79-5.14-5.59-7.72
		c-2.68-3.84-4.77-7.08-6.15-10.62c-1.1-2.8-2.18-7-1.08-11.26c1.01-3.95,3.69-7.29,6.49-10.87c0.74-0.94,1.49-1.91,2.21-2.9
		c0.99,0.7,2,1.41,2.99,2.11c3.75,2.6,7.27,5.12,9.35,8.78c2.23,3.95,2.23,8.49,1.84,11.57c-0.51,3.9-1.83,7.64-3.68,12.01
		c-1.25,2.93-2.61,5.86-4.06,8.71C873.73,119.02,873.16,119.13,872.94,119.15z"/>
	<path class="st11" d="M870.41,113.04c-1.37-1.84-2.71-3.69-4.01-5.54c-2.58-3.64-4.56-6.71-5.85-9.96c-0.95-2.4-1.9-5.98-1-9.49
		c0.86-3.35,3.34-6.44,5.93-9.77l0.51-0.66l0.69,0.47c3.48,2.4,6.74,4.71,8.49,7.79c1.84,3.23,1.84,7.06,1.5,9.68
		c-0.45,3.56-1.69,7.08-3.44,11.22C872.35,108.88,871.41,110.98,870.41,113.04z"/>
</g>
<path class="st2" d="M861.4,62.69c-0.28,5.86-0.25,11.71,0.11,17.53c5.16-0.71,10.31-1.5,15.44-2.39
	c-1.93-5.86-4.11-11.63-6.52-17.28C867.39,61.02,864.38,61.81,861.4,62.69z"/>
<g>
	<path class="st0" d="M863.94,83.25c-3.63,2.1-3.5,8.44-1.97,11.65c0.1,0.21,0.42,0.13,0.41-0.11c-0.14-2.01-0.17-4.14,0.21-6.13
		c0.33-1.8,1.41-3.44,1.57-5.26C864.17,83.3,864.05,83.19,863.94,83.25z"/>
</g>
<g>
	<path class="st0" d="M862.72,96.75c-0.08,1.08,0.13,2.08,1.12,2.7c0.14,0.09,0.34,0,0.31-0.17c-0.03-0.24-0.12-0.45-0.15-0.69
		c-0.02-0.18-0.01-0.36-0.04-0.54c-0.08-0.44-0.28-0.85-0.36-1.29C863.53,96.3,862.76,96.23,862.72,96.75z"/>
</g>
<g>
	<path class="st6" d="M67.54,51.22c1.88-3.75,2.88-8.03,2.1-12.16c-1.12-5.92-5.61-10.64-8.9-15.77l-0.97-0.2
		C54.7,26.47,48.7,29,45.3,33.97c-2.37,3.47-3.17,7.79-2.96,11.98c0.22,4.19,1.38,8.28,2.68,12.3c0.97,3,2.01,5.97,3.13,8.92
		c0.86,2.26,3.85,2.89,5.55,1.16c2.21-2.25,4.36-4.55,6.45-6.91C62.95,58.26,65.66,54.97,67.54,51.22z"/>
	<path class="st7" d="M67.54,51.22c1.88-3.75,2.88-8.03,2.1-12.16c-1.12-5.92-5.61-10.64-8.9-15.77l-0.97-0.2
		C54.7,26.47,48.7,29,45.3,33.97c-2.37,3.47-3.17,7.79-2.96,11.98c0.22,4.19,1.38,8.28,2.68,12.3c0.97,3,2.01,5.97,3.13,8.92
		c0.86,2.26,3.85,2.89,5.55,1.16c2.21-2.25,4.36-4.55,6.45-6.91C62.95,58.26,65.66,54.97,67.54,51.22z"/>
	<path class="st6" d="M50.14,66.72c-0.22-0.05-0.77-0.22-1.01-0.86c-1.11-2.92-2.15-5.89-3.1-8.83c-1.42-4.38-2.4-8.07-2.59-11.82
		c-0.15-2.97,0.18-7.26,2.64-10.85c2.28-3.33,5.93-5.5,9.79-7.79c1.02-0.6,2.06-1.22,3.08-1.87c0.68,1,1.38,1.98,2.07,2.95
		c2.62,3.65,5.09,7.1,5.84,11.06c0.81,4.28-0.61,8.34-1.94,11c-1.68,3.36-4.06,6.34-7.12,9.79c-2.05,2.31-4.2,4.61-6.38,6.84
		C50.94,66.82,50.37,66.77,50.14,66.72z"/>
	<path class="st8" d="M49.48,60.32c-0.77-2.11-1.5-4.24-2.18-6.35c-1.35-4.17-2.28-7.66-2.46-11.11c-0.13-2.54,0.14-6.2,2.16-9.16
		c1.93-2.82,5.31-4.83,8.9-6.95c0.23-0.14,0.47-0.28,0.71-0.42c0.16,0.22,0.32,0.45,0.48,0.67c2.43,3.39,4.72,6.58,5.36,9.94
		c0.67,3.52-0.55,6.98-1.7,9.26c-1.55,3.09-3.8,5.91-6.71,9.19C52.56,57.04,51.03,58.7,49.48,60.32z"/>
</g>
<path class="st2" d="M57.66,11.12c-2.43,5.19-4.49,10.55-6.16,16.02c5.08,1.13,10.19,2.18,15.3,3.15
	c0.18-5.91,0.19-11.83,0.03-17.74C63.84,11.84,60.75,11.43,57.66,11.12z"/>
<g>
	<path class="st0" d="M52.75,30.76c-4.13,0.68-6.14,6.62-5.72,10.1c0.03,0.23,0.36,0.26,0.42,0.03c0.51-1.91,1.19-3.89,2.2-5.61
		c0.92-1.56,2.47-2.7,3.24-4.31C52.94,30.88,52.87,30.74,52.75,30.76z"/>
</g>
<g>
	<path class="st0" d="M47.15,42.82c-0.42,0.98-0.54,1.98,0.2,2.87c0.1,0.12,0.32,0.11,0.35-0.06c0.05-0.23,0.03-0.46,0.08-0.68
		c0.04-0.17,0.11-0.34,0.14-0.51c0.06-0.43,0-0.88,0.07-1.32C48.05,42.65,47.35,42.34,47.15,42.82z"/>
</g>
<g>
	<path class="st9" d="M206.18,62.5c1.47-4.54,2.02-9.56,0.81-14.15c-1.74-6.56-6.7-11.27-10.52-16.62l-0.99-0.09
		c-4.69,4.59-10.41,8.36-13.27,14.52c-2,4.3-2.34,9.34-1.68,14.07c0.66,4.73,2.25,9.22,3.96,13.59c1.28,3.27,2.63,6.49,4.06,9.68
		c1.09,2.45,4.14,2.71,5.65,0.5c1.96-2.89,3.86-5.83,5.69-8.82C202.35,71.18,204.71,67.05,206.18,62.5z"/>
	<path class="st10" d="M206.18,62.5c1.47-4.54,2.02-9.56,0.81-14.15c-1.74-6.56-6.7-11.27-10.52-16.62l-0.99-0.09
		c-4.69,4.59-10.41,8.36-13.27,14.52c-2,4.3-2.34,9.34-1.68,14.07c0.66,4.73,2.25,9.22,3.96,13.59c1.28,3.27,2.63,6.49,4.06,9.68
		c1.09,2.45,4.14,2.71,5.65,0.5c1.96-2.89,3.86-5.83,5.69-8.82C202.35,71.18,204.71,67.05,206.18,62.5z"/>
	<path class="st9" d="M190.49,82.72c-0.23-0.02-0.79-0.14-1.1-0.82c-1.41-3.15-2.76-6.38-4.02-9.58c-1.87-4.78-3.24-8.83-3.83-13.07
		c-0.46-3.35-0.59-8.28,1.48-12.74c1.92-4.13,5.32-7.13,8.93-10.32c0.95-0.84,1.92-1.69,2.87-2.58c0.78,1.04,1.59,2.05,2.37,3.04
		c2.99,3.76,5.82,7.32,6.98,11.72c1.26,4.75,0.27,9.58-0.77,12.8c-1.32,4.07-3.38,7.82-6.06,12.19c-1.8,2.94-3.69,5.87-5.64,8.73
		C191.29,82.72,190.72,82.74,190.49,82.72z"/>
	<path class="st11" d="M189.16,75.53c-0.99-2.29-1.94-4.6-2.84-6.9c-1.78-4.55-3.08-8.38-3.62-12.28c-0.4-2.88-0.52-7.07,1.19-10.74
		c1.62-3.49,4.78-6.28,8.12-9.23c0.22-0.19,0.44-0.39,0.66-0.58c0.18,0.23,0.37,0.46,0.55,0.69c2.77,3.49,5.4,6.79,6.38,10.51
		c1.03,3.91,0.18,8.02-0.71,10.78c-1.22,3.74-3.16,7.29-5.72,11.45C191.87,71.35,190.53,73.46,189.16,75.53z"/>
</g>
<path class="st2" d="M192.12,18.35c-1.87,6.27-3.36,12.67-4.45,19.14c5.18,0.53,10.37,0.97,15.57,1.31
	c-0.44-6.75-1.06-13.48-1.84-20.19C198.34,18.25,195.23,18.23,192.12,18.35z"/>
<g>
	<path class="st0" d="M189.29,41.41c-4.04,1.39-5.41,8.45-4.63,12.34c0.05,0.26,0.38,0.24,0.42-0.03c0.31-2.25,0.78-4.61,1.6-6.71
		c0.75-1.91,2.18-3.44,2.78-5.38C189.5,41.53,189.41,41.37,189.29,41.41z"/>
</g>
<g>
	<path class="st0" d="M184.99,55.97c-0.31,1.17-0.32,2.33,0.51,3.24c0.11,0.13,0.33,0.08,0.35-0.12c0.02-0.27-0.02-0.52,0.01-0.79
		c0.02-0.2,0.07-0.4,0.08-0.6c0.02-0.5-0.09-1-0.07-1.51C185.87,55.65,185.14,55.4,184.99,55.97z"/>
</g>
<g>
	<path class="st3" d="M353.87,69.86c1.27-4.46,1.59-9.34,0.17-13.72c-2.03-6.28-7.21-10.63-11.26-15.65l-0.99-0.04
		c-4.48,4.64-10.02,8.52-12.6,14.59c-1.8,4.24-1.91,9.13-1.04,13.68c0.87,4.55,2.66,8.83,4.57,12.99c1.43,3.11,2.93,6.17,4.49,9.2
		c1.2,2.32,4.26,2.46,5.66,0.25c1.83-2.88,3.59-5.8,5.29-8.77C350.44,78.41,352.6,74.31,353.87,69.86z"/>
	<path class="st4" d="M353.87,69.86c1.27-4.46,1.59-9.34,0.17-13.72c-2.03-6.28-7.21-10.63-11.26-15.65l-0.99-0.04
		c-4.48,4.64-10.02,8.52-12.6,14.59c-1.8,4.24-1.91,9.13-1.04,13.68c0.87,4.55,2.66,8.83,4.57,12.99c1.43,3.11,2.93,6.17,4.49,9.2
		c1.2,2.32,4.26,2.46,5.66,0.25c1.83-2.88,3.59-5.8,5.29-8.77C350.44,78.41,352.6,74.31,353.87,69.86z"/>
	<path class="st3" d="M339.11,90.06c-0.23-0.01-0.8-0.1-1.13-0.75c-1.55-2.99-3.05-6.06-4.45-9.11c-2.09-4.55-3.63-8.41-4.41-12.48
		c-0.62-3.22-0.96-7.99,0.91-12.39c1.73-4.07,4.99-7.12,8.45-10.35c0.91-0.85,1.84-1.72,2.75-2.61c0.83,0.97,1.68,1.92,2.51,2.85
		c3.16,3.52,6.14,6.84,7.5,11.05c1.47,4.54,0.71,9.26-0.19,12.42c-1.14,3.99-3.02,7.7-5.5,12.05c-1.66,2.91-3.42,5.83-5.24,8.68
		C339.91,90.03,339.34,90.07,339.11,90.06z"/>
	<path class="st5" d="M337.45,83.17c-1.09-2.17-2.15-4.37-3.15-6.56c-1.99-4.33-3.46-7.98-4.17-11.73
		c-0.53-2.77-0.84-6.82,0.7-10.44c1.46-3.45,4.49-6.27,7.7-9.27c0.21-0.2,0.42-0.39,0.63-0.59c0.19,0.22,0.39,0.43,0.58,0.65
		c2.93,3.26,5.7,6.35,6.85,9.91c1.21,3.74,0.55,7.75-0.22,10.46c-1.04,3.67-2.83,7.18-5.19,11.32
		C339.98,79,338.73,81.1,337.45,83.17z"/>
</g>
<path class="st2" d="M337.82,27.71c-1.58,6.14-2.78,12.39-3.58,18.7c5.2,0.3,10.4,0.51,15.61,0.63c-0.75-6.51-1.67-13-2.75-19.46
	C344.04,27.36,340.92,27.47,337.82,27.71z"/>
<g>
	<path class="st0" d="M336.04,50.15c-3.98,1.51-5.02,8.39-4.06,12.13c0.06,0.25,0.4,0.22,0.42-0.04c0.2-2.19,0.57-4.49,1.3-6.55
		c0.66-1.87,2.02-3.41,2.53-5.32C336.26,50.25,336.16,50.1,336.04,50.15z"/>
</g>
<g>
	<path class="st0" d="M332.4,64.4c-0.26,1.15-0.22,2.26,0.65,3.11c0.12,0.12,0.33,0.06,0.34-0.13c0.01-0.26-0.04-0.5-0.03-0.77
		c0.01-0.2,0.06-0.39,0.05-0.59c0-0.49-0.14-0.97-0.14-1.46C333.27,64.06,332.53,63.85,332.4,64.4z"/>
</g>
<g>
	<path class="st6" d="M498.66,76.89c1.13-4.44,1.3-9.28-0.25-13.57c-2.22-6.15-7.53-10.29-11.74-15.13l-0.99-0.01
		c-4.34,4.72-9.75,8.72-12.14,14.8c-1.67,4.25-1.63,9.08-0.62,13.55c1.01,4.47,2.93,8.64,4.97,12.7c1.52,3.03,3.11,6.01,4.77,8.96
		c1.27,2.26,4.33,2.3,5.67,0.08c1.74-2.9,3.41-5.84,5.02-8.82C495.49,85.45,497.53,81.33,498.66,76.89z"/>
	<path class="st7" d="M498.66,76.89c1.13-4.44,1.3-9.28-0.25-13.57c-2.22-6.15-7.53-10.29-11.74-15.13l-0.99-0.01
		c-4.34,4.72-9.75,8.72-12.14,14.8c-1.67,4.25-1.63,9.08-0.62,13.55c1.01,4.47,2.93,8.64,4.97,12.7c1.52,3.03,3.11,6.01,4.77,8.96
		c1.27,2.26,4.33,2.3,5.67,0.08c1.74-2.9,3.41-5.84,5.02-8.82C495.49,85.45,497.53,81.33,498.66,76.89z"/>
	<path class="st6" d="M484.53,97.3c-0.23,0-0.8-0.08-1.16-0.71c-1.64-2.91-3.23-5.89-4.73-8.87c-2.22-4.43-3.89-8.2-4.79-12.21
		c-0.71-3.17-1.2-7.87,0.53-12.27c1.6-4.08,4.77-7.19,8.13-10.48c0.88-0.87,1.79-1.75,2.67-2.67c0.85,0.94,1.74,1.85,2.59,2.74
		c3.27,3.38,6.35,6.58,7.84,10.7c1.61,4.45,0.99,9.13,0.19,12.28c-1.01,3.98-2.78,7.7-5.13,12.07c-1.57,2.93-3.24,5.87-4.97,8.73
		C485.33,97.24,484.76,97.3,484.53,97.3z"/>
	<path class="st8" d="M482.66,90.54c-1.16-2.11-2.28-4.25-3.35-6.39c-2.12-4.22-3.7-7.78-4.53-11.47
		c-0.61-2.72-1.05-6.72,0.38-10.34c1.36-3.45,4.3-6.34,7.41-9.39c0.2-0.2,0.41-0.4,0.61-0.6c0.2,0.21,0.4,0.41,0.6,0.62
		c3.03,3.14,5.89,6.1,7.15,9.59c1.32,3.66,0.78,7.65,0.1,10.35c-0.93,3.66-2.61,7.18-4.84,11.34
		C485.06,86.34,483.87,88.45,482.66,90.54z"/>
</g>
<path class="st2" d="M481.33,35.71c-1.39,6.12-2.4,12.33-3,18.59c5.21,0.14,10.41,0.2,15.62,0.15c-0.95-6.41-2.06-12.8-3.35-19.15
	C487.53,35.18,484.42,35.39,481.33,35.71z"/>
<g>
	<path class="st0" d="M480.24,57.94c-3.93,1.61-4.76,8.45-3.69,12.11c0.07,0.24,0.4,0.2,0.42-0.05c0.14-2.17,0.43-4.45,1.09-6.52
		c0.6-1.87,1.91-3.44,2.36-5.34C480.46,58.04,480.36,57.89,480.24,57.94z"/>
</g>
<g>
	<path class="st0" d="M477.04,72.14c-0.22,1.14-0.15,2.24,0.75,3.05c0.12,0.11,0.33,0.05,0.34-0.14c0-0.26-0.06-0.5-0.05-0.76
		c0-0.19,0.04-0.39,0.04-0.58c-0.02-0.48-0.17-0.95-0.19-1.44C477.9,71.77,477.15,71.59,477.04,72.14z"/>
</g>
<g>
	<path class="st9" d="M648.51,77.16c0.77-4.63,0.55-9.58-1.34-13.84c-2.71-6.1-8.33-9.92-12.91-14.53l-0.99,0.06
		c-3.94,5.16-9.02,9.68-10.92,16.08c-1.32,4.47-0.9,9.41,0.47,13.9c1.36,4.49,3.62,8.6,5.98,12.58c1.76,2.97,3.59,5.9,5.48,8.78
		c1.45,2.21,4.5,2.01,5.66-0.37c1.5-3.1,2.93-6.24,4.29-9.41C646.04,86.16,647.74,81.79,648.51,77.16z"/>
	<path class="st10" d="M648.51,77.16c0.77-4.63,0.55-9.58-1.34-13.84c-2.71-6.1-8.33-9.92-12.91-14.53l-0.99,0.06
		c-3.94,5.16-9.02,9.68-10.92,16.08c-1.32,4.47-0.9,9.41,0.47,13.9c1.36,4.49,3.62,8.6,5.98,12.58c1.76,2.97,3.59,5.9,5.48,8.78
		c1.45,2.21,4.5,2.01,5.66-0.37c1.5-3.1,2.93-6.24,4.29-9.41C646.04,86.16,647.74,81.79,648.51,77.16z"/>
	<path class="st9" d="M636.06,99.14c-0.23,0.02-0.8-0.02-1.21-0.63c-1.87-2.84-3.7-5.77-5.42-8.69c-2.57-4.35-4.54-8.07-5.76-12.09
		c-0.97-3.18-1.83-7.94-0.46-12.58c1.27-4.29,4.18-7.72,7.26-11.35c0.81-0.95,1.64-1.93,2.45-2.94c0.93,0.89,1.88,1.75,2.81,2.59
		c3.53,3.2,6.86,6.22,8.67,10.31c1.96,4.42,1.72,9.25,1.18,12.53c-0.69,4.15-2.15,8.09-4.14,12.74c-1.33,3.12-2.76,6.25-4.25,9.32
		C636.86,99.01,636.29,99.12,636.06,99.14z"/>
	<path class="st11" d="M633.66,92.37c-1.32-2.07-2.61-4.17-3.85-6.26c-2.45-4.14-4.31-7.66-5.44-11.36
		c-0.83-2.73-1.58-6.78-0.45-10.6c1.07-3.63,3.77-6.81,6.63-10.18c0.19-0.22,0.38-0.44,0.56-0.67c0.22,0.2,0.43,0.39,0.65,0.59
		c3.27,2.97,6.36,5.77,7.9,9.23c1.61,3.64,1.4,7.75,0.93,10.57c-0.63,3.81-2.02,7.54-3.92,11.97
		C635.71,87.9,634.7,90.15,633.66,92.37z"/>
</g>
<path class="st2" d="M627.93,36.46c-0.9,6.36-1.4,12.79-1.5,19.24c5.2-0.26,10.4-0.62,15.59-1.08c-1.46-6.48-3.09-12.92-4.88-19.3
	C634.07,35.42,630.99,35.88,627.93,36.46z"/>
<g>
	<path class="st0" d="M628.63,59.26c-3.79,1.95-4.07,9.01-2.7,12.67c0.09,0.24,0.42,0.17,0.41-0.09c-0.04-2.22,0.07-4.58,0.57-6.74
		c0.45-1.96,1.63-3.66,1.93-5.64C628.85,59.34,628.74,59.2,628.63,59.26z"/>
</g>
<g>
	<path class="st0" d="M626.58,74.02c-0.13,1.19,0.03,2.31,0.99,3.06c0.13,0.1,0.34,0.02,0.32-0.17c-0.02-0.26-0.1-0.5-0.11-0.77
		c-0.01-0.2,0.01-0.4-0.01-0.6c-0.06-0.49-0.24-0.96-0.3-1.45C627.4,73.58,626.64,73.45,626.58,74.02z"/>
</g>
<g>
	<path class="st3" d="M800.26,70.61c1.61-4.53,2.31-9.57,1.23-14.21c-1.54-6.66-6.36-11.54-10.02-17.02l-0.98-0.12
		c-4.83,4.49-10.66,8.11-13.7,14.23c-2.13,4.27-2.62,9.33-2.1,14.11c0.51,4.78,1.97,9.34,3.55,13.79c1.18,3.32,2.44,6.61,3.77,9.86
		c1.02,2.49,4.06,2.85,5.63,0.66c2.05-2.85,4.04-5.76,5.96-8.71C796.17,79.24,798.65,75.14,800.26,70.61z"/>
	<path class="st4" d="M800.26,70.61c1.61-4.53,2.31-9.57,1.23-14.21c-1.54-6.66-6.36-11.54-10.02-17.02l-0.98-0.12
		c-4.83,4.49-10.66,8.11-13.7,14.23c-2.13,4.27-2.62,9.33-2.1,14.11c0.51,4.78,1.97,9.34,3.55,13.79c1.18,3.32,2.44,6.61,3.77,9.86
		c1.02,2.49,4.06,2.85,5.63,0.66c2.05-2.85,4.04-5.76,5.96-8.71C796.17,79.24,798.65,75.14,800.26,70.61z"/>
	<path class="st3" d="M783.97,90.51c-0.23-0.03-0.79-0.16-1.07-0.86c-1.32-3.21-2.57-6.5-3.73-9.76c-1.73-4.86-2.97-8.98-3.43-13.26
		c-0.36-3.39-0.34-8.35,1.86-12.78c2.04-4.1,5.53-7.03,9.23-10.13c0.97-0.82,1.97-1.65,2.95-2.52c0.75,1.07,1.52,2.11,2.28,3.13
		c2.88,3.87,5.6,7.53,6.63,12c1.11,4.82-0.01,9.65-1.15,12.86c-1.44,4.06-3.61,7.77-6.42,12.1c-1.89,2.9-3.87,5.8-5.9,8.62
		C784.77,90.53,784.19,90.53,783.97,90.51z"/>
	<path class="st5" d="M782.85,83.24c-0.92-2.33-1.8-4.68-2.63-7.03c-1.65-4.63-2.83-8.52-3.25-12.46c-0.31-2.9-0.3-7.13,1.51-10.78
		c1.73-3.47,4.97-6.18,8.4-9.06c0.22-0.19,0.45-0.38,0.68-0.57c0.18,0.24,0.35,0.47,0.53,0.71c2.67,3.59,5.19,6.99,6.06,10.76
		c0.92,3.97-0.06,8.08-1.04,10.83c-1.33,3.73-3.38,7.24-6.06,11.36C785.69,79.1,784.28,81.19,782.85,83.24z"/>
</g>
<path class="st2" d="M787.52,25.77c-2.05,6.26-3.74,12.65-5.02,19.14c5.16,0.68,10.34,1.27,15.52,1.76
	c-0.24-6.81-0.65-13.6-1.23-20.37C793.75,25.85,790.64,25.74,787.52,25.77z"/>
<g>
	<path class="st0" d="M784.01,48.9c-4.08,1.28-5.66,8.34-4.99,12.29c0.04,0.26,0.38,0.25,0.42-0.01c0.37-2.25,0.92-4.61,1.8-6.7
		c0.8-1.9,2.28-3.4,2.94-5.34C784.21,49.03,784.13,48.87,784.01,48.9z"/>
</g>
<g>
	<path class="st0" d="M779.27,63.43c-0.35,1.17-0.39,2.33,0.41,3.27c0.11,0.13,0.33,0.09,0.35-0.11c0.03-0.27,0-0.53,0.03-0.8
		c0.02-0.2,0.09-0.4,0.1-0.61c0.03-0.51-0.06-1.01-0.03-1.52C780.16,63.13,779.44,62.86,779.27,63.43z"/>
</g>
<g>
	<path class="st6" d="M973.78,47.5c0.52-3.53,0.13-7.41-1.98-10.76c-3.01-4.8-8.9-7.55-13.9-10.47l-0.97,0.21
		c-3.35,4.75-8.16,8.6-9.76,13.75c-1.12,3.59-0.5,7.59,1.17,11.29c1.67,3.69,4.33,7.05,7.23,10.04c2.19,2.24,4.47,4.31,6.96,6.08
		c1.89,1.37,4.69,0.14,5.32-1.95c0.78-2.72,1.75-5.34,2.71-7.89C971.88,54.37,973.26,51.04,973.78,47.5z"/>
	<path class="st7" d="M973.78,47.5c0.52-3.53,0.13-7.41-1.98-10.76c-3.01-4.8-8.9-7.55-13.9-10.47l-0.97,0.21
		c-3.35,4.75-8.16,8.6-9.76,13.75c-1.12,3.59-0.5,7.59,1.17,11.29c1.67,3.69,4.33,7.05,7.23,10.04c2.19,2.24,4.47,4.31,6.96,6.08
		c1.89,1.37,4.69,0.14,5.32-1.95c0.78-2.72,1.75-5.34,2.71-7.89C971.88,54.37,973.26,51.04,973.78,47.5z"/>
	<path class="st6" d="M964.02,66.27c-0.22,0.08-0.78,0.22-1.3-0.17c-2.38-1.78-4.66-3.85-6.75-6.04c-3.13-3.28-5.36-6.3-6.85-9.57
		c-1.18-2.61-2.24-6.44-1.09-10.18c1.08-3.48,3.8-6.34,6.58-9.56c0.73-0.84,1.47-1.73,2.18-2.64c0.99,0.56,2.01,1.13,3,1.69
		c3.76,2.13,7.27,4.36,9.27,7.54c2.17,3.44,2.12,7.27,1.75,9.8c-0.45,3.23-1.7,6.34-3.13,10.17c-0.97,2.58-1.92,5.26-2.75,8.04
		C964.76,65.95,964.24,66.2,964.02,66.27z"/>
	<path class="st8" d="M960.49,61.41c-1.62-1.43-3.13-2.96-4.59-4.55c-2.85-3.14-4.93-5.95-6.26-8.92c-0.97-2.17-1.9-5.42-0.94-8.47
		c0.9-2.93,3.43-5.61,6.01-8.59l0.51-0.59l0.69,0.37c3.47,1.91,6.71,3.91,8.42,6.58c1.79,2.82,1.74,6.1,1.41,8.37
		c-0.43,3.06-1.63,6.09-3.08,9.88C961.92,57.4,961.16,59.38,960.49,61.41z"/>
</g>
<path class="st2" d="M950.02,18.91c0.28,5.29,0.51,9.77,0.73,13.81c5.14-0.83,10.27-1.73,15.39-2.72c-0.99-2.64-2.08-5.27-3.36-7.85
	c-0.62-1.29-1.29-2.56-2.02-3.81c-0.38-0.65-0.76-1.31-1.14-1.98c-0.47-0.79-0.99-1.49-1.66-2.09
	C955.15,15.69,952.64,17.37,950.02,18.91z"/>
<g>
	<path class="st0" d="M953.14,35.2c-3.65,1.9-3.63,7.39-2.1,10.29c0.1,0.19,0.42,0.11,0.41-0.11c-0.15-1.8-0.14-3.71,0.26-5.44
		c0.36-1.6,1.45-3.02,1.64-4.61C953.37,35.24,953.25,35.15,953.14,35.2z"/>
</g>
<g>
	<path class="st0" d="M951.8,47.14c-0.08,0.97,0.16,1.91,1.16,2.43c0.14,0.07,0.33-0.01,0.31-0.17c-0.03-0.22-0.13-0.41-0.16-0.62
		c-0.02-0.16-0.01-0.33-0.05-0.49c-0.09-0.4-0.3-0.77-0.38-1.16C952.6,46.71,951.83,46.67,951.8,47.14z"/>
</g>
<g>
	<g>
		<path class="st2" d="M1063.35,59.05c20.92-20.63,49.23-33.41,78.66-34.8c14.93-0.71,30.58,1.3,43.48,9.34
			c12.52,7.81,21.07,21.77,19.73,36.75c-0.18,2.01,2.89,3.39,4.18,1.73c18.45-23.67,48.23-37.5,78.3-35.41
			c29.76,2.07,57.31,19.94,72.14,45.66c0.88,1.53,3.38,1.66,4.23,0c12.54-24.49,38.6-41.34,66.3-41.57
			c27.71-0.24,54.08,15.96,67.11,40.25c0.71,1.33,2.82,1.66,3.85,0.5c20.46-23.21,49.49-38.39,80.31-41.67
			c25.84-2.75,62.06,2.54,72.35,30.61c0.57,1.57,2.81,2.62,4.09,1.08c19.93-23.86,49.52-38.79,80.55-40.83
			c25.36-1.67,66.59,6.34,69.86,37.8c0.26,2.5,4.3,3.61,4.81,0.65c2.67-15.48,15.66-25.73,28.76-32.77
			c12.46-6.7,26.01-11.27,39.92-13.8c27.6-5.03,56.66-1.91,82.66,8.59c15.2,6.14,29.23,14.94,41.33,25.99
			c2.32,2.12,5.8-1.33,3.46-3.46c-44.54-40.66-114.18-50.29-167.9-22.57c-14.84,7.66-29.95,19.28-32.95,36.72
			c1.6,0.22,3.21,0.43,4.81,0.65c-2.5-24.06-26.69-37.65-48.45-41.35c-25.63-4.35-52.4,0.46-75.32,12.59
			c-13.38,7.08-25.31,16.7-35.01,28.32c1.37,0.36,2.73,0.72,4.1,1.08c-7.91-21.57-30.61-31.74-52.1-34.24
			c-25.42-2.96-52.02,3.28-74.32,15.54c-12.98,7.13-24.64,16.49-34.43,27.6c1.28,0.17,2.57,0.33,3.85,0.5
			c-13.81-25.75-41.99-42.96-71.34-42.68c-29.35,0.28-57.21,17.98-70.53,44c1.41,0,2.82,0,4.23,0
			c-15.48-26.85-43.93-45.28-74.87-47.97c-31.66-2.76-63.8,11.76-83.26,36.73c1.39,0.58,2.79,1.15,4.18,1.73
			c1.33-14.83-6.29-28.96-17.83-37.95c-12.77-9.95-29.53-13.26-45.4-13.17c-32.39,0.17-64,13.69-87,36.37
			C1057.63,57.8,1061.1,61.27,1063.35,59.05L1063.35,59.05z"/>
	</g>
</g>
<g>
	<path class="st3" d="M1067.53,100.87c1.98-4.78,3.09-10.17,2.4-15.23c-0.99-7.25-5.42-12.75-8.63-18.81l-0.98-0.17
		c-5.2,4.56-11.32,8.12-14.85,14.47c-2.47,4.43-3.36,9.79-3.23,14.92c0.13,5.13,1.22,10.1,2.44,14.97c0.91,3.63,1.9,7.24,2.96,10.82
		c0.82,2.75,3.81,3.35,5.56,1.12c2.28-2.92,4.49-5.9,6.65-8.95C1062.74,109.91,1065.55,105.65,1067.53,100.87z"/>
	<path class="st4" d="M1067.53,100.87c1.98-4.78,3.09-10.17,2.4-15.23c-0.99-7.25-5.42-12.75-8.63-18.81l-0.98-0.17
		c-5.2,4.56-11.32,8.12-14.85,14.47c-2.47,4.43-3.36,9.79-3.23,14.92c0.13,5.13,1.22,10.1,2.44,14.97c0.91,3.63,1.9,7.24,2.96,10.82
		c0.82,2.75,3.81,3.35,5.56,1.12c2.28-2.92,4.49-5.9,6.65-8.95C1062.74,109.91,1065.55,105.65,1067.53,100.87z"/>
	<path class="st3" d="M1049.64,121.17c-0.22-0.05-0.77-0.23-1-1c-1.05-3.54-2.04-7.14-2.93-10.71c-1.33-5.32-2.24-9.79-2.36-14.39
		c-0.09-3.64,0.33-8.93,2.89-13.52c2.37-4.26,6.1-7.19,10.05-10.31c1.04-0.82,2.11-1.66,3.15-2.54c0.67,1.15,1.36,2.32,2.03,3.47
		c2.56,4.3,4.98,8.38,5.65,13.24c0.72,5.24-0.8,10.38-2.21,13.77c-1.77,4.28-4.24,8.14-7.4,12.6c-2.12,2.99-4.33,5.97-6.58,8.85
		C1050.44,121.26,1049.87,121.22,1049.64,121.17z"/>
	<path class="st5" d="M1049.12,113.31c-0.73-2.56-1.42-5.14-2.06-7.7c-1.27-5.06-2.14-9.29-2.24-13.52
		c-0.08-3.12,0.27-7.63,2.37-11.41c2-3.6,5.46-6.32,9.13-9.22l0.72-0.57l0.47,0.79c2.38,3.98,4.63,7.76,5.19,11.86
		c0.59,4.31-0.72,8.67-1.92,11.57c-1.63,3.93-3.97,7.57-6.97,11.81C1052.29,109.06,1050.72,111.2,1049.12,113.31z"/>
</g>
<path class="st2" d="M1058.44,52.1c-2.56,6.59-4.76,13.33-6.57,20.19c5.11,1.01,10.24,1.91,15.39,2.71
	c0.31-7.32,0.46-14.63,0.42-21.91C1064.67,52.46,1061.56,52.21,1058.44,52.1z"/>
<g>
	<path class="st0" d="M1053.05,76.63c-4.19,1.15-6.33,8.59-5.98,12.84c0.02,0.28,0.36,0.29,0.42,0.01c0.55-2.38,1.29-4.87,2.34-7.05
		c0.96-1.98,2.55-3.5,3.37-5.54C1053.25,76.78,1053.18,76.6,1053.05,76.63z"/>
</g>
<g>
	<path class="st0" d="M1047.15,91.88c-0.44,1.23-0.58,2.47,0.14,3.52c0.1,0.15,0.32,0.11,0.36-0.1c0.05-0.28,0.04-0.56,0.09-0.85
		c0.04-0.22,0.12-0.42,0.15-0.64c0.07-0.54,0.02-1.09,0.1-1.63C1048.06,91.61,1047.36,91.28,1047.15,91.88z"/>
</g>
<g>
	<path class="st6" d="M1223.02,108.29c0.85-4.42,0.77-9.12-0.96-13.26c-2.47-5.92-7.88-9.87-12.16-14.64l-0.99,0
		c-4.26,4.8-9.57,9.01-11.71,15.33c-1.49,4.41-1.19,9.38,0.11,13.88c1.3,4.5,3.55,8.61,5.93,12.53c1.78,2.93,3.64,5.79,5.6,8.56
		c1.5,2.13,4.54,1.84,5.65-0.5c1.44-3.05,2.83-6.11,4.18-9.19C1220.46,116.89,1222.17,112.7,1223.02,108.29z"/>
	<path class="st7" d="M1223.02,108.29c0.85-4.42,0.77-9.12-0.96-13.26c-2.47-5.92-7.88-9.87-12.16-14.64l-0.99,0
		c-4.26,4.8-9.57,9.01-11.71,15.33c-1.49,4.41-1.19,9.38,0.11,13.88c1.3,4.5,3.55,8.61,5.93,12.53c1.78,2.93,3.64,5.79,5.6,8.56
		c1.5,2.13,4.54,1.84,5.65-0.5c1.44-3.05,2.83-6.11,4.18-9.19C1220.46,116.89,1222.17,112.7,1223.02,108.29z"/>
	<path class="st6" d="M1210.6,129.61c-0.23,0.02-0.8,0-1.22-0.6c-1.92-2.75-3.78-5.61-5.52-8.48c-2.58-4.29-4.52-8.01-5.69-12.04
		c-0.91-3.18-1.67-7.98-0.13-12.54c1.44-4.23,4.5-7.5,7.78-10.9c0.86-0.91,1.75-1.83,2.61-2.74c0.87,0.92,1.77,1.82,2.65,2.68
		c3.34,3.3,6.53,6.36,8.18,10.35c1.79,4.31,1.43,8.92,0.82,12.07c-0.76,3.97-2.26,7.76-4.24,12.28c-1.32,3.03-2.72,6.1-4.15,9.12
		C1211.39,129.47,1210.83,129.59,1210.6,129.61z"/>
	<path class="st8" d="M1208.1,123.02c-1.34-2.02-2.64-4.08-3.87-6.15c-2.43-4.09-4.26-7.62-5.3-11.32
		c-0.78-2.73-1.41-6.8-0.14-10.55c1.22-3.57,4.06-6.6,7.1-9.75l0.6-0.62l0.61,0.61c3.1,3.08,6.06,5.94,7.46,9.35
		c1.47,3.58,1.13,7.54,0.6,10.26c-0.72,3.68-2.15,7.28-4.07,11.6C1210.13,118.62,1209.13,120.82,1208.1,123.02z"/>
</g>
<path class="st2" d="M1204.49,67.87c-1.42,6.17-2.36,12.49-2.8,18.85c5.21,0.01,10.42-0.08,15.62-0.26
	c-1.11-6.31-2.3-12.63-3.55-18.94C1210.69,67.37,1207.59,67.55,1204.49,67.87z"/>
<g>
	<path class="st0" d="M1203.71,90.35c-3.89,1.75-4.45,8.77-3.16,12.43c0.08,0.24,0.41,0.18,0.41-0.08c0.02-2.21,0.21-4.54,0.78-6.66
		c0.53-1.93,1.77-3.56,2.16-5.49C1203.93,90.44,1203.83,90.29,1203.71,90.35z"/>
</g>
<g>
	<path class="st0" d="M1201.15,104.87c-0.15,1.17-0.01,2.29,0.93,3.05c0.13,0.11,0.33,0.03,0.33-0.16c-0.01-0.26-0.09-0.5-0.1-0.76
		c-0.01-0.2,0.02-0.4,0-0.59c-0.05-0.49-0.22-0.95-0.27-1.44C1201.99,104.45,1201.23,104.3,1201.15,104.87z"/>
</g>
<g>
	<path class="st9" d="M1376.71,123.79c0.9-4.81,0.83-9.99-0.94-14.51c-2.53-6.47-8.04-10.64-12.49-15.61l-0.99,0.03
		c-4.09,5.27-9.3,9.81-11.38,16.44c-1.45,4.63-1.17,9.8,0.07,14.54c1.24,4.74,3.37,9.11,5.61,13.35c1.67,3.17,3.42,6.28,5.22,9.35
		c1.39,2.35,4.44,2.25,5.67-0.2c1.59-3.19,3.11-6.42,4.56-9.69C1373.98,133.11,1375.81,128.6,1376.71,123.79z"/>
	<path class="st10" d="M1376.71,123.79c0.9-4.81,0.83-9.99-0.94-14.51c-2.53-6.47-8.04-10.64-12.49-15.61l-0.99,0.03
		c-4.09,5.27-9.3,9.81-11.38,16.44c-1.45,4.63-1.17,9.8,0.07,14.54c1.24,4.74,3.37,9.11,5.61,13.35c1.67,3.17,3.42,6.28,5.22,9.35
		c1.39,2.35,4.44,2.25,5.67-0.2c1.59-3.19,3.11-6.42,4.56-9.69C1373.98,133.11,1375.81,128.6,1376.71,123.79z"/>
	<path class="st9" d="M1363.64,146.34c-0.23,0.01-0.8-0.04-1.19-0.7c-1.79-3.04-3.53-6.15-5.17-9.26c-2.45-4.63-4.3-8.59-5.41-12.83
		c-0.88-3.36-1.6-8.36-0.1-13.16c1.39-4.45,4.4-7.93,7.59-11.62c0.84-0.97,1.7-1.97,2.53-2.99c0.9,0.96,1.83,1.89,2.73,2.8
		c3.43,3.46,6.68,6.73,8.37,11.07c1.83,4.68,1.45,9.73,0.82,13.14c-0.81,4.31-2.39,8.39-4.51,13.18c-1.42,3.21-2.94,6.44-4.52,9.6
		C1364.43,146.24,1363.86,146.33,1363.64,146.34z"/>
	<path class="st11" d="M1361.43,139.19c-1.26-2.21-2.49-4.44-3.67-6.67c-2.33-4.41-4.09-8.15-5.11-12.05
		c-0.75-2.88-1.39-7.14-0.15-11.09c1.18-3.76,3.97-6.99,6.92-10.42c0.19-0.22,0.39-0.45,0.58-0.68c0.21,0.21,0.42,0.42,0.63,0.63
		c3.18,3.21,6.19,6.24,7.63,9.91c1.51,3.85,1.17,8.15,0.62,11.07c-0.74,3.96-2.24,7.82-4.26,12.38
		C1363.61,134.59,1362.53,136.9,1361.43,139.19z"/>
</g>
<path class="st2" d="M1357.31,80.57c-1.08,6.62-1.77,13.32-2.05,20.05c5.21-0.1,10.41-0.31,15.61-0.61
	c-1.27-6.82-2.71-13.6-4.32-20.33C1363.47,79.69,1360.38,80.06,1357.31,80.57z"/>
<g>
	<path class="st0" d="M1357.35,104.42c-3.84,1.92-4.33,9.28-3.07,13.15c0.08,0.26,0.41,0.2,0.41-0.08c0.03-2.33,0.2-4.79,0.76-7.03
		c0.51-2.03,1.74-3.77,2.09-5.83C1357.57,104.51,1357.47,104.36,1357.35,104.42z"/>
</g>
<g>
	<path class="st0" d="M1354.88,119.78c-0.16,1.23-0.04,2.41,0.9,3.23c0.13,0.11,0.33,0.04,0.33-0.17c-0.01-0.27-0.08-0.53-0.09-0.81
		c-0.01-0.21,0.02-0.42,0.01-0.63c-0.04-0.51-0.21-1.01-0.26-1.53C1355.71,119.34,1354.95,119.18,1354.88,119.78z"/>
</g>
<g>
	<path class="st3" d="M1520.87,114.23c0.33-4.64-0.38-9.52-2.71-13.52c-3.34-5.73-9.36-8.82-14.45-12.75l-0.97,0.18
		c-3.31,5.51-7.86,10.46-9.08,16.83c-0.86,4.45,0.03,9.15,1.8,13.35c1.76,4.2,4.35,7.97,7.01,11.63c1.99,2.74,4.03,5.43,6.12,8.09
		c1.61,2.04,4.64,1.62,5.61-0.79c1.27-3.15,2.46-6.35,3.55-9.59C1519.22,123.34,1520.54,118.87,1520.87,114.23z"/>
	<path class="st4" d="M1520.87,114.23c0.33-4.64-0.38-9.52-2.71-13.52c-3.34-5.73-9.36-8.82-14.45-12.75l-0.97,0.18
		c-3.31,5.51-7.86,10.46-9.08,16.83c-0.86,4.45,0.03,9.15,1.8,13.35c1.76,4.2,4.35,7.97,7.01,11.63c1.99,2.74,4.03,5.43,6.12,8.09
		c1.61,2.04,4.64,1.62,5.61-0.79c1.27-3.15,2.46-6.35,3.55-9.59C1519.22,123.34,1520.54,118.87,1520.87,114.23z"/>
	<path class="st3" d="M1510.3,136.88c-0.23,0.03-0.8,0.05-1.25-0.52c-2.08-2.63-4.12-5.32-6.07-8.01c-2.92-4-5.19-7.41-6.77-11.18
		c-1.25-2.98-2.56-7.47-1.67-12.09c0.82-4.28,3.35-7.92,6-11.81c0.7-1.02,1.41-2.07,2.09-3.14c1.02,0.72,2.06,1.47,3.08,2.19
		c3.87,2.7,7.5,5.29,9.74,9.12c2.41,4.13,2.65,8.93,2.42,12.21c-0.3,4.15-1.41,8.17-3,12.9c-1.07,3.17-2.25,6.36-3.51,9.47
		C1511.08,136.7,1510.52,136.85,1510.3,136.88z"/>
	<path class="st5" d="M1507.39,130.48c-1.48-1.91-2.94-3.83-4.35-5.76c-2.79-3.8-4.95-7.02-6.42-10.48
		c-1.08-2.55-2.22-6.38-1.49-10.18c0.69-3.62,3.04-7,5.5-10.61l0.49-0.71l0.71,0.49c3.58,2.5,6.96,4.89,8.85,8.11
		c1.99,3.39,2.18,7.45,1.98,10.25c-0.26,3.8-1.31,7.59-2.82,12.08C1509.07,125.94,1508.25,128.22,1507.39,130.48z"/>
</g>
<path class="st2" d="M1495.93,76.8c-0.08,6.27,0.18,12.55,0.79,18.79c5.14-0.86,10.26-1.82,15.36-2.86
	c-2.18-6.19-4.57-12.28-7.17-18.27C1501.88,74.98,1498.89,75.83,1495.93,76.8z"/>
<g>
	<path class="st0" d="M1499.3,98.79c-3.54,2.33-3.1,9.16-1.4,12.56c0.11,0.23,0.43,0.13,0.4-0.13c-0.25-2.15-0.38-4.44-0.1-6.59
		c0.24-1.95,1.25-3.72,1.32-5.68C1499.53,98.84,1499.4,98.72,1499.3,98.79z"/>
</g>
<g>
	<path class="st0" d="M1498.75,113.31c-0.02,1.16,0.25,2.23,1.27,2.87c0.14,0.09,0.34-0.01,0.31-0.2c-0.04-0.25-0.14-0.48-0.19-0.73
		c-0.03-0.19-0.02-0.39-0.07-0.58c-0.1-0.47-0.33-0.91-0.43-1.38C1499.53,112.8,1498.76,112.75,1498.75,113.31z"/>
</g>
<g>
	<path class="st6" d="M1667.14,103.72c1.42-3.82,1.91-8.06,0.64-11.96c-1.81-5.58-6.83-9.64-10.7-14.23l-0.99-0.09
		c-4.63,3.81-10.3,6.91-13.08,12.08c-1.94,3.61-2.22,7.87-1.51,11.88c0.71,4.01,2.36,7.84,4.12,11.56c1.32,2.78,2.71,5.54,4.17,8.26
		c1.12,2.09,4.17,2.36,5.65,0.51c1.93-2.41,3.79-4.87,5.58-7.37C1663.42,111.01,1665.72,107.54,1667.14,103.72z"/>
	<path class="st7" d="M1667.14,103.72c1.42-3.82,1.91-8.06,0.64-11.96c-1.81-5.58-6.83-9.64-10.7-14.23l-0.99-0.09
		c-4.63,3.81-10.3,6.91-13.08,12.08c-1.94,3.61-2.22,7.87-1.51,11.88c0.71,4.01,2.36,7.84,4.12,11.56c1.32,2.78,2.71,5.54,4.17,8.26
		c1.12,2.09,4.17,2.36,5.65,0.51c1.93-2.41,3.79-4.87,5.58-7.37C1663.42,111.01,1665.72,107.54,1667.14,103.72z"/>
	<path class="st6" d="M1651.71,120.58c-0.23-0.02-0.79-0.13-1.11-0.72c-1.45-2.69-2.83-5.44-4.13-8.17
		c-1.93-4.07-3.34-7.52-3.98-11.12c-0.5-2.84-0.68-7.02,1.33-10.76c1.87-3.46,5.23-5.95,8.79-8.59c0.94-0.69,1.9-1.4,2.84-2.14
		c0.79,0.89,1.61,1.76,2.41,2.61c3.03,3.23,5.9,6.29,7.11,10.03c1.31,4.04,0.39,8.11-0.62,10.82c-1.27,3.42-3.28,6.56-5.91,10.22
		c-1.76,2.46-3.62,4.91-5.53,7.3C1652.51,120.59,1651.94,120.6,1651.71,120.58z"/>
	<path class="st8" d="M1650.29,114.48c-1.01-1.95-1.99-3.92-2.92-5.88c-1.83-3.88-3.18-7.14-3.76-10.44
		c-0.43-2.44-0.6-5.99,1.06-9.07c1.58-2.93,4.7-5.24,8.01-7.69c0.22-0.16,0.43-0.32,0.65-0.48c0.19,0.2,0.37,0.4,0.56,0.59
		c2.81,3,5.47,5.83,6.5,9c1.08,3.33,0.28,6.79-0.59,9.11c-1.17,3.15-3.07,6.12-5.57,9.6
		C1652.96,110.98,1651.64,112.74,1650.29,114.48z"/>
</g>
<path class="st2" d="M1652.58,66.13c-1.79,5.28-3.2,10.67-4.22,16.13c5.18,0.53,10.37,0.98,15.56,1.35
	c-0.52-5.72-1.21-11.43-2.08-17.11C1658.79,66.14,1655.68,66.09,1652.58,66.13z"/>
<g>
	<path class="st0" d="M1650.03,85.61c-4.02,1.11-5.31,7.06-4.48,10.37c0.06,0.22,0.39,0.21,0.42-0.02c0.28-1.9,0.72-3.89,1.52-5.65
		c0.72-1.6,2.14-2.87,2.71-4.51C1650.23,85.71,1650.15,85.58,1650.03,85.61z"/>
</g>
<g>
	<path class="st0" d="M1645.9,97.85c-0.3,0.99-0.3,1.96,0.54,2.75c0.12,0.11,0.33,0.07,0.34-0.1c0.02-0.23-0.02-0.44,0-0.67
		c0.02-0.17,0.07-0.34,0.07-0.51c0.01-0.43-0.1-0.85-0.09-1.28C1646.78,97.6,1646.04,97.38,1645.9,97.85z"/>
</g>
<g>
	<path class="st9" d="M1832.71,99.8c0.57-4.37,0.08-9-2.07-12.83c-3.09-5.49-8.97-8.53-13.9-12.28l-0.98,0.16
		c-3.51,5.11-8.25,9.63-9.76,15.51c-1.06,4.11-0.4,8.48,1.14,12.43c1.54,3.95,3.91,7.53,6.36,11.05c1.83,2.62,3.7,5.22,5.63,7.8
		c1.48,1.98,4.53,1.74,5.65-0.48c1.47-2.89,2.84-5.83,4.11-8.83C1830.58,108.32,1832.14,104.16,1832.71,99.8z"/>
	<path class="st10" d="M1832.71,99.8c0.57-4.37,0.08-9-2.07-12.83c-3.09-5.49-8.97-8.53-13.9-12.28l-0.98,0.16
		c-3.51,5.11-8.25,9.63-9.76,15.51c-1.06,4.11-0.4,8.48,1.14,12.43c1.54,3.95,3.91,7.53,6.36,11.05c1.83,2.62,3.7,5.22,5.63,7.8
		c1.48,1.98,4.53,1.74,5.65-0.48c1.47-2.89,2.84-5.83,4.11-8.83C1830.58,108.32,1832.14,104.16,1832.71,99.8z"/>
	<path class="st9" d="M1820.89,120.62c-0.23,0.02-0.8,0.01-1.22-0.55c-1.91-2.55-3.79-5.14-5.59-7.72
		c-2.68-3.84-4.77-7.08-6.15-10.62c-1.1-2.8-2.18-7-1.08-11.26c1.01-3.95,3.69-7.29,6.49-10.87c0.74-0.94,1.49-1.91,2.21-2.9
		c0.99,0.7,2,1.41,2.99,2.11c3.75,2.6,7.27,5.12,9.35,8.78c2.23,3.95,2.23,8.49,1.84,11.57c-0.51,3.9-1.83,7.64-3.68,12.01
		c-1.25,2.93-2.61,5.86-4.06,8.71C1821.68,120.49,1821.12,120.6,1820.89,120.62z"/>
	<path class="st11" d="M1818.37,114.51c-1.37-1.84-2.71-3.69-4.01-5.54c-2.58-3.64-4.56-6.71-5.85-9.96c-0.95-2.4-1.9-5.98-1-9.49
		c0.86-3.35,3.34-6.44,5.93-9.77l0.51-0.66l0.69,0.47c3.48,2.4,6.74,4.71,8.49,7.79c1.84,3.23,1.84,7.06,1.5,9.68
		c-0.45,3.56-1.69,7.08-3.44,11.22C1820.31,110.35,1819.36,112.45,1818.37,114.51z"/>
</g>
<path class="st2" d="M1809.36,64.16c-0.28,5.86-0.25,11.71,0.11,17.53c5.16-0.71,10.31-1.5,15.44-2.39
	c-1.93-5.86-4.11-11.63-6.52-17.28C1815.35,62.5,1812.34,63.28,1809.36,64.16z"/>
<g>
	<path class="st0" d="M1811.9,84.72c-3.63,2.1-3.5,8.44-1.97,11.65c0.1,0.21,0.42,0.13,0.41-0.11c-0.14-2.01-0.17-4.14,0.21-6.13
		c0.33-1.8,1.41-3.44,1.57-5.26C1812.12,84.78,1812,84.66,1811.9,84.72z"/>
</g>
<g>
	<path class="st0" d="M1810.68,98.22c-0.08,1.08,0.13,2.08,1.12,2.7c0.14,0.09,0.34,0,0.31-0.17c-0.03-0.24-0.12-0.45-0.15-0.69
		c-0.02-0.18-0.01-0.36-0.04-0.54c-0.08-0.44-0.28-0.85-0.36-1.29C1811.48,97.77,1810.71,97.7,1810.68,98.22z"/>
</g>
<g>
	<path class="st0" d="M1097.28,32.23c-4.13,0.68-6.14,6.62-5.72,10.1c0.03,0.23,0.36,0.26,0.42,0.03c0.51-1.91,1.19-3.89,2.2-5.61
		c0.92-1.56,2.47-2.7,3.24-4.31C1097.47,32.36,1097.4,32.21,1097.28,32.23z"/>
</g>
<g>
	<path class="st0" d="M1091.68,44.29c-0.42,0.98-0.54,1.98,0.2,2.87c0.1,0.12,0.32,0.11,0.35-0.06c0.05-0.23,0.03-0.46,0.08-0.68
		c0.04-0.17,0.11-0.34,0.14-0.51c0.06-0.43,0-0.88,0.07-1.32C1092.58,44.13,1091.88,43.82,1091.68,44.29z"/>
</g>
<g>
	<path class="st9" d="M1154.14,63.98c1.47-4.54,2.02-9.56,0.81-14.15c-1.74-6.56-6.7-11.27-10.52-16.62l-0.99-0.09
		c-4.69,4.59-10.41,8.36-13.27,14.52c-2,4.3-2.34,9.34-1.68,14.07c0.66,4.73,2.25,9.22,3.96,13.59c1.28,3.27,2.63,6.49,4.06,9.68
		c1.09,2.45,4.14,2.71,5.65,0.5c1.96-2.89,3.86-5.83,5.69-8.82C1150.31,72.66,1152.66,68.52,1154.14,63.98z"/>
	<path class="st10" d="M1154.14,63.98c1.47-4.54,2.02-9.56,0.81-14.15c-1.74-6.56-6.7-11.27-10.52-16.62l-0.99-0.09
		c-4.69,4.59-10.41,8.36-13.27,14.52c-2,4.3-2.34,9.34-1.68,14.07c0.66,4.73,2.25,9.22,3.96,13.59c1.28,3.27,2.63,6.49,4.06,9.68
		c1.09,2.45,4.14,2.71,5.65,0.5c1.96-2.89,3.86-5.83,5.69-8.82C1150.31,72.66,1152.66,68.52,1154.14,63.98z"/>
	<path class="st9" d="M1138.44,84.19c-0.23-0.02-0.79-0.14-1.1-0.82c-1.41-3.15-2.76-6.38-4.02-9.58
		c-1.87-4.78-3.24-8.83-3.83-13.07c-0.46-3.35-0.59-8.28,1.48-12.74c1.92-4.13,5.32-7.13,8.93-10.32c0.95-0.84,1.92-1.69,2.87-2.58
		c0.78,1.04,1.59,2.05,2.37,3.04c2.99,3.76,5.82,7.32,6.98,11.72c1.26,4.75,0.27,9.58-0.77,12.8c-1.32,4.07-3.38,7.82-6.06,12.19
		c-1.8,2.94-3.69,5.87-5.64,8.73C1139.25,84.19,1138.67,84.21,1138.44,84.19z"/>
	<path class="st11" d="M1137.11,77.01c-0.99-2.29-1.94-4.6-2.84-6.9c-1.78-4.55-3.08-8.38-3.62-12.28
		c-0.4-2.88-0.52-7.07,1.19-10.74c1.62-3.49,4.78-6.28,8.12-9.23c0.22-0.19,0.44-0.39,0.66-0.58c0.18,0.23,0.37,0.46,0.55,0.69
		c2.77,3.49,5.4,6.79,6.38,10.51c1.03,3.91,0.18,8.02-0.71,10.78c-1.22,3.74-3.16,7.29-5.72,11.45
		C1139.83,72.82,1138.48,74.93,1137.11,77.01z"/>
</g>
<path class="st2" d="M1140.07,19.82c-1.87,6.27-3.36,12.67-4.45,19.14c5.18,0.53,10.37,0.97,15.57,1.31
	c-0.44-6.75-1.06-13.48-1.84-20.19C1146.3,19.72,1143.18,19.71,1140.07,19.82z"/>
<g>
	<path class="st0" d="M1137.25,42.89c-4.04,1.39-5.41,8.45-4.63,12.34c0.05,0.26,0.39,0.24,0.42-0.03c0.31-2.25,0.78-4.61,1.6-6.71
		c0.75-1.91,2.18-3.44,2.78-5.38C1137.45,43,1137.37,42.85,1137.25,42.89z"/>
</g>
<g>
	<path class="st0" d="M1132.94,57.44c-0.31,1.17-0.32,2.33,0.51,3.24c0.11,0.13,0.33,0.08,0.35-0.12c0.02-0.27-0.02-0.52,0.01-0.79
		c0.02-0.2,0.07-0.4,0.08-0.6c0.02-0.5-0.09-1-0.07-1.51C1133.83,57.12,1133.09,56.87,1132.94,57.44z"/>
</g>
<g>
	<path class="st3" d="M1301.82,71.33c1.27-4.46,1.59-9.34,0.17-13.72c-2.03-6.28-7.21-10.63-11.26-15.65l-0.99-0.04
		c-4.48,4.64-10.02,8.52-12.6,14.59c-1.8,4.24-1.91,9.13-1.04,13.68c0.87,4.55,2.66,8.83,4.57,12.99c1.43,3.11,2.93,6.17,4.49,9.2
		c1.2,2.32,4.26,2.46,5.66,0.25c1.83-2.88,3.59-5.8,5.29-8.77C1298.39,79.89,1300.55,75.79,1301.82,71.33z"/>
	<path class="st4" d="M1301.82,71.33c1.27-4.46,1.59-9.34,0.17-13.72c-2.03-6.28-7.21-10.63-11.26-15.65l-0.99-0.04
		c-4.48,4.64-10.02,8.52-12.6,14.59c-1.8,4.24-1.91,9.13-1.04,13.68c0.87,4.55,2.66,8.83,4.57,12.99c1.43,3.11,2.93,6.17,4.49,9.2
		c1.2,2.32,4.26,2.46,5.66,0.25c1.83-2.88,3.59-5.8,5.29-8.77C1298.39,79.89,1300.55,75.79,1301.82,71.33z"/>
	<path class="st3" d="M1287.06,91.53c-0.23-0.01-0.8-0.1-1.13-0.75c-1.55-2.99-3.05-6.06-4.45-9.11c-2.09-4.55-3.63-8.41-4.41-12.48
		c-0.62-3.22-0.96-7.99,0.91-12.39c1.73-4.07,4.99-7.12,8.45-10.35c0.91-0.85,1.84-1.72,2.75-2.61c0.83,0.97,1.68,1.92,2.51,2.85
		c3.16,3.52,6.14,6.84,7.5,11.05c1.47,4.54,0.71,9.26-0.19,12.42c-1.14,3.99-3.02,7.7-5.5,12.05c-1.66,2.91-3.42,5.83-5.23,8.68
		C1287.86,91.5,1287.29,91.54,1287.06,91.53z"/>
	<path class="st5" d="M1285.4,84.64c-1.09-2.17-2.15-4.37-3.15-6.56c-1.99-4.33-3.46-7.98-4.17-11.73
		c-0.53-2.77-0.84-6.82,0.7-10.44c1.46-3.45,4.49-6.27,7.7-9.27c0.21-0.2,0.42-0.39,0.63-0.59c0.19,0.22,0.39,0.43,0.58,0.65
		c2.93,3.26,5.7,6.35,6.85,9.91c1.21,3.74,0.55,7.75-0.22,10.46c-1.04,3.67-2.83,7.18-5.19,11.32
		C1287.93,80.47,1286.68,82.57,1285.4,84.64z"/>
</g>
<path class="st2" d="M1285.78,29.18c-1.58,6.14-2.78,12.39-3.58,18.7c5.2,0.3,10.4,0.51,15.61,0.63c-0.75-6.51-1.67-13-2.75-19.46
	C1291.99,28.83,1288.88,28.95,1285.78,29.18z"/>
<g>
	<path class="st0" d="M1284,51.62c-3.98,1.51-5.02,8.39-4.06,12.13c0.06,0.25,0.4,0.22,0.42-0.04c0.2-2.19,0.57-4.49,1.3-6.55
		c0.66-1.87,2.02-3.41,2.53-5.32C1284.21,51.72,1284.12,51.57,1284,51.62z"/>
</g>
<g>
	<path class="st0" d="M1280.36,65.88c-0.26,1.15-0.22,2.26,0.65,3.11c0.12,0.12,0.33,0.06,0.34-0.13c0.01-0.26-0.04-0.5-0.03-0.77
		c0.01-0.2,0.06-0.39,0.05-0.59c0-0.49-0.14-0.97-0.14-1.46C1281.22,65.53,1280.48,65.32,1280.36,65.88z"/>
</g>
<g>
	<path class="st6" d="M1446.62,78.36c1.13-4.44,1.3-9.28-0.25-13.57c-2.22-6.15-7.53-10.29-11.74-15.13l-0.99-0.01
		c-4.34,4.72-9.75,8.72-12.14,14.8c-1.67,4.25-1.63,9.08-0.62,13.55c1.01,4.47,2.93,8.64,4.97,12.7c1.52,3.03,3.11,6.01,4.77,8.96
		c1.27,2.26,4.33,2.3,5.67,0.08c1.74-2.9,3.41-5.84,5.02-8.82C1443.45,86.92,1445.48,82.8,1446.62,78.36z"/>
	<path class="st7" d="M1446.62,78.36c1.13-4.44,1.3-9.28-0.25-13.57c-2.22-6.15-7.53-10.29-11.74-15.13l-0.99-0.01
		c-4.34,4.72-9.75,8.72-12.14,14.8c-1.67,4.25-1.63,9.08-0.62,13.55c1.01,4.47,2.93,8.64,4.97,12.7c1.52,3.03,3.11,6.01,4.77,8.96
		c1.27,2.26,4.33,2.3,5.67,0.08c1.74-2.9,3.41-5.84,5.02-8.82C1443.45,86.92,1445.48,82.8,1446.62,78.36z"/>
	<path class="st6" d="M1432.48,98.77c-0.23,0-0.8-0.08-1.16-0.71c-1.64-2.91-3.23-5.89-4.73-8.87c-2.22-4.43-3.89-8.2-4.79-12.21
		c-0.71-3.17-1.2-7.87,0.53-12.27c1.6-4.08,4.77-7.19,8.13-10.48c0.88-0.87,1.79-1.75,2.67-2.67c0.85,0.94,1.74,1.85,2.59,2.74
		c3.27,3.38,6.35,6.58,7.84,10.7c1.61,4.45,0.99,9.13,0.19,12.28c-1.01,3.98-2.78,7.7-5.13,12.07c-1.57,2.93-3.24,5.87-4.97,8.73
		C1433.28,98.72,1432.71,98.78,1432.48,98.77z"/>
	<path class="st8" d="M1430.61,92.01c-1.16-2.11-2.28-4.25-3.35-6.39c-2.12-4.22-3.7-7.78-4.53-11.47
		c-0.61-2.72-1.05-6.72,0.38-10.34c1.36-3.45,4.3-6.34,7.41-9.39c0.2-0.2,0.41-0.4,0.61-0.6c0.2,0.21,0.4,0.41,0.6,0.62
		c3.03,3.14,5.89,6.1,7.15,9.59c1.32,3.66,0.78,7.65,0.1,10.35c-0.93,3.66-2.61,7.18-4.84,11.34
		C1433.01,87.82,1431.83,89.93,1430.61,92.01z"/>
</g>
<path class="st2" d="M1429.28,37.19c-1.39,6.12-2.4,12.33-3,18.59c5.21,0.14,10.41,0.2,15.62,0.15c-0.95-6.41-2.06-12.8-3.35-19.15
	C1435.48,36.65,1432.38,36.86,1429.28,37.19z"/>
<g>
	<path class="st0" d="M1428.19,59.42c-3.93,1.61-4.76,8.45-3.69,12.11c0.07,0.24,0.4,0.2,0.42-0.05c0.14-2.17,0.43-4.45,1.09-6.52
		c0.6-1.87,1.91-3.44,2.36-5.34C1428.41,59.51,1428.31,59.37,1428.19,59.42z"/>
</g>
<g>
	<path class="st0" d="M1424.99,73.61c-0.22,1.14-0.15,2.24,0.75,3.05c0.12,0.11,0.33,0.05,0.34-0.14c0-0.26-0.06-0.5-0.05-0.76
		c0-0.19,0.04-0.39,0.04-0.58c-0.02-0.48-0.17-0.95-0.19-1.44C1425.85,73.25,1425.1,73.06,1424.99,73.61z"/>
</g>
<g>
	<path class="st9" d="M1596.47,78.64c0.77-4.63,0.55-9.58-1.34-13.84c-2.71-6.1-8.33-9.92-12.91-14.53l-0.99,0.06
		c-3.94,5.16-9.02,9.68-10.92,16.08c-1.32,4.47-0.9,9.41,0.47,13.9c1.36,4.49,3.62,8.6,5.98,12.58c1.76,2.97,3.59,5.9,5.48,8.78
		c1.45,2.21,4.5,2.01,5.66-0.37c1.5-3.1,2.94-6.24,4.29-9.41C1594,87.63,1595.7,83.26,1596.47,78.64z"/>
	<path class="st10" d="M1596.47,78.64c0.77-4.63,0.55-9.58-1.34-13.84c-2.71-6.1-8.33-9.92-12.91-14.53l-0.99,0.06
		c-3.94,5.16-9.02,9.68-10.92,16.08c-1.32,4.47-0.9,9.41,0.47,13.9c1.36,4.49,3.62,8.6,5.98,12.58c1.76,2.97,3.59,5.9,5.48,8.78
		c1.45,2.21,4.5,2.01,5.66-0.37c1.5-3.1,2.94-6.24,4.29-9.41C1594,87.63,1595.7,83.26,1596.47,78.64z"/>
	<path class="st9" d="M1584.02,100.61c-0.23,0.02-0.8-0.02-1.21-0.63c-1.87-2.84-3.7-5.77-5.42-8.69
		c-2.57-4.35-4.54-8.07-5.76-12.09c-0.97-3.18-1.83-7.94-0.46-12.58c1.27-4.29,4.18-7.72,7.26-11.35c0.81-0.95,1.64-1.93,2.45-2.94
		c0.93,0.89,1.88,1.75,2.81,2.59c3.53,3.2,6.86,6.22,8.68,10.31c1.96,4.42,1.72,9.25,1.18,12.53c-0.69,4.15-2.15,8.09-4.14,12.74
		c-1.33,3.12-2.76,6.25-4.25,9.32C1584.81,100.49,1584.25,100.59,1584.02,100.61z"/>
	<path class="st11" d="M1581.61,93.84c-1.32-2.07-2.61-4.17-3.85-6.26c-2.45-4.14-4.31-7.66-5.44-11.36
		c-0.83-2.73-1.58-6.78-0.45-10.6c1.07-3.63,3.77-6.81,6.63-10.18c0.19-0.22,0.38-0.44,0.56-0.67c0.22,0.2,0.43,0.39,0.65,0.59
		c3.27,2.97,6.36,5.77,7.9,9.23c1.61,3.64,1.4,7.75,0.93,10.57c-0.63,3.81-2.02,7.54-3.92,11.97
		C1583.66,89.37,1582.66,91.62,1581.61,93.84z"/>
</g>
<path class="st2" d="M1575.88,37.93c-0.9,6.36-1.4,12.79-1.5,19.24c5.2-0.26,10.4-0.62,15.59-1.08c-1.46-6.48-3.09-12.92-4.88-19.3
	C1582.02,36.9,1578.94,37.35,1575.88,37.93z"/>
<g>
	<path class="st0" d="M1576.58,60.73c-3.79,1.95-4.07,9.01-2.7,12.67c0.09,0.24,0.42,0.17,0.41-0.09c-0.04-2.22,0.07-4.58,0.57-6.74
		c0.45-1.96,1.63-3.66,1.93-5.64C1576.8,60.81,1576.7,60.67,1576.58,60.73z"/>
</g>
<g>
	<path class="st0" d="M1574.53,75.49c-0.13,1.19,0.03,2.31,0.99,3.06c0.13,0.1,0.34,0.02,0.32-0.17c-0.02-0.26-0.1-0.5-0.11-0.77
		c-0.01-0.2,0.01-0.4-0.01-0.6c-0.06-0.49-0.24-0.96-0.3-1.45C1575.36,75.05,1574.59,74.92,1574.53,75.49z"/>
</g>
<g>
	<path class="st3" d="M1748.21,72.08c1.61-4.53,2.31-9.57,1.23-14.21c-1.54-6.66-6.36-11.54-10.02-17.02l-0.98-0.12
		c-4.83,4.49-10.66,8.11-13.7,14.23c-2.13,4.27-2.62,9.33-2.1,14.11s1.97,9.34,3.55,13.79c1.18,3.32,2.44,6.61,3.77,9.86
		c1.02,2.49,4.06,2.85,5.63,0.66c2.05-2.85,4.04-5.76,5.96-8.71C1744.12,80.71,1746.6,76.61,1748.21,72.08z"/>
	<path class="st4" d="M1748.21,72.08c1.61-4.53,2.31-9.57,1.23-14.21c-1.54-6.66-6.36-11.54-10.02-17.02l-0.98-0.12
		c-4.83,4.49-10.66,8.11-13.7,14.23c-2.13,4.27-2.62,9.33-2.1,14.11s1.97,9.34,3.55,13.79c1.18,3.32,2.44,6.61,3.77,9.86
		c1.02,2.49,4.06,2.85,5.63,0.66c2.05-2.85,4.04-5.76,5.96-8.71C1744.12,80.71,1746.6,76.61,1748.21,72.08z"/>
	<path class="st3" d="M1731.92,91.98c-0.23-0.03-0.79-0.16-1.07-0.86c-1.32-3.21-2.57-6.5-3.73-9.76
		c-1.73-4.86-2.97-8.98-3.43-13.26c-0.36-3.39-0.34-8.35,1.86-12.78c2.04-4.1,5.54-7.03,9.23-10.13c0.97-0.82,1.97-1.65,2.95-2.52
		c0.75,1.07,1.52,2.11,2.28,3.13c2.88,3.87,5.6,7.53,6.63,12c1.11,4.82-0.01,9.65-1.15,12.86c-1.44,4.06-3.61,7.77-6.42,12.1
		c-1.89,2.9-3.87,5.8-5.9,8.62C1732.72,92,1732.15,92.01,1731.92,91.98z"/>
	<path class="st5" d="M1730.8,84.71c-0.92-2.33-1.8-4.68-2.63-7.03c-1.65-4.63-2.83-8.52-3.25-12.46c-0.31-2.9-0.3-7.13,1.51-10.78
		c1.73-3.47,4.97-6.18,8.4-9.06c0.22-0.19,0.45-0.38,0.68-0.57c0.18,0.24,0.35,0.47,0.53,0.71c2.67,3.59,5.19,6.99,6.06,10.76
		c0.92,3.97-0.06,8.08-1.04,10.83c-1.33,3.73-3.38,7.24-6.06,11.36C1733.64,80.57,1732.24,82.66,1730.8,84.71z"/>
</g>
<path class="st2" d="M1735.48,27.24c-2.05,6.26-3.73,12.65-5.02,19.14c5.16,0.68,10.34,1.27,15.52,1.76
	c-0.24-6.81-0.65-13.6-1.23-20.37C1741.7,27.32,1738.59,27.22,1735.48,27.24z"/>
<g>
	<path class="st0" d="M1731.96,50.38c-4.08,1.28-5.66,8.34-4.99,12.29c0.04,0.26,0.38,0.25,0.42-0.01c0.37-2.25,0.92-4.61,1.8-6.7
		c0.8-1.9,2.28-3.4,2.94-5.34C1732.16,50.5,1732.08,50.34,1731.96,50.38z"/>
</g>
<g>
	<path class="st0" d="M1727.22,64.9c-0.35,1.17-0.39,2.33,0.41,3.27c0.11,0.13,0.33,0.09,0.35-0.11c0.03-0.27,0-0.53,0.03-0.8
		c0.02-0.2,0.09-0.4,0.1-0.61c0.03-0.51-0.06-1.01-0.03-1.52C1728.12,64.6,1727.39,64.33,1727.22,64.9z"/>
</g>
<g>
	<path class="st6" d="M1921.73,48.97c0.52-3.53,0.13-7.41-1.98-10.76c-3.01-4.8-8.9-7.55-13.9-10.47l-0.97,0.21
		c-3.35,4.75-8.16,8.6-9.76,13.75c-1.12,3.59-0.5,7.59,1.17,11.29c1.67,3.69,4.33,7.05,7.23,10.04c2.19,2.24,4.47,4.31,6.96,6.08
		c1.89,1.37,4.69,0.14,5.32-1.95c0.78-2.72,1.75-5.34,2.71-7.89C1919.84,55.84,1921.21,52.51,1921.73,48.97z"/>
	<path class="st7" d="M1921.73,48.97c0.52-3.53,0.13-7.41-1.98-10.76c-3.01-4.8-8.9-7.55-13.9-10.47l-0.97,0.21
		c-3.35,4.75-8.16,8.6-9.76,13.75c-1.12,3.59-0.5,7.59,1.17,11.29c1.67,3.69,4.33,7.05,7.23,10.04c2.19,2.24,4.47,4.31,6.96,6.08
		c1.89,1.37,4.69,0.14,5.32-1.95c0.78-2.72,1.75-5.34,2.71-7.89C1919.84,55.84,1921.21,52.51,1921.73,48.97z"/>
	<path class="st6" d="M1911.98,67.75c-0.22,0.08-0.78,0.22-1.3-0.17c-2.38-1.78-4.66-3.85-6.75-6.04c-3.13-3.28-5.36-6.3-6.85-9.57
		c-1.18-2.61-2.24-6.44-1.09-10.18c1.08-3.48,3.8-6.34,6.58-9.56c0.73-0.84,1.47-1.73,2.18-2.64c0.99,0.56,2.01,1.13,3,1.69
		c3.76,2.13,7.27,4.36,9.27,7.54c2.17,3.44,2.12,7.27,1.75,9.8c-0.45,3.23-1.7,6.34-3.13,10.17c-0.97,2.58-1.92,5.26-2.75,8.04
		C1912.71,67.43,1912.19,67.67,1911.98,67.75z"/>
	<path class="st8" d="M1908.44,62.88c-1.62-1.43-3.13-2.96-4.59-4.55c-2.85-3.14-4.93-5.95-6.26-8.92c-0.97-2.17-1.9-5.42-0.94-8.47
		c0.9-2.93,3.43-5.61,6.01-8.59l0.51-0.59l0.69,0.37c3.47,1.91,6.71,3.91,8.42,6.58c1.79,2.82,1.74,6.1,1.41,8.37
		c-0.43,3.06-1.63,6.09-3.08,9.88C1909.88,58.87,1909.12,60.85,1908.44,62.88z"/>
</g>
<path class="st2" d="M1897.97,20.38c0.28,5.29,0.51,9.77,0.72,13.81c5.14-0.83,10.27-1.73,15.39-2.72
	c-0.99-2.64-2.08-5.27-3.36-7.85c-0.62-1.29-1.29-2.56-2.02-3.81c-0.38-0.65-0.76-1.31-1.14-1.98c-0.47-0.79-0.99-1.49-1.66-2.09
	C1903.11,17.17,1900.59,18.85,1897.97,20.38z"/>
<g>
	<path class="st0" d="M1901.1,36.68c-3.65,1.9-3.63,7.39-2.1,10.29c0.1,0.19,0.42,0.11,0.41-0.11c-0.15-1.8-0.14-3.71,0.26-5.44
		c0.36-1.6,1.45-3.02,1.64-4.61C1901.32,36.72,1901.2,36.62,1901.1,36.68z"/>
</g>
<g>
	<path class="st0" d="M1899.75,48.62c-0.08,0.97,0.16,1.91,1.16,2.43c0.14,0.07,0.33-0.01,0.31-0.17c-0.03-0.22-0.13-0.41-0.16-0.62
		c-0.02-0.16-0.01-0.33-0.05-0.49c-0.09-0.4-0.3-0.77-0.38-1.16C1900.55,48.18,1899.79,48.14,1899.75,48.62z"/>
</g>
</svg>
